<?xml version="1.0" standalone="no"?>
<!DOCTYPE svg PUBLIC "-//W3C//DTD SVG 1.1//EN" "http://www.w3.org/Graphics/SVG/1.1/DTD/svg11.dtd" >
<svg xmlns="http://www.w3.org/2000/svg" xmlns:xlink="http://www.w3.org/1999/xlink" version="1.1">
<metadata>
Created by FontForge 20161003 at Fri Mar 30 08:21:46 2018
 By www-data
Copyright 2012 The Encode Project Authors (impallari@gmail.com), with Reserved Font Name "Encode Sans".
</metadata>
<defs>
<font id="EncodeSansExtraBold" horiz-adv-x="1290" >
  <font-face 
    font-family="EncodeSansExtraBold"
    font-weight="800"
    font-stretch="normal"
    units-per-em="2000"
    panose-1="0 0 9 0 0 0 0 0 0 0"
    ascent="1600"
    descent="-400"
    x-height="1097"
    cap-height="1480"
    bbox="-1107 -508 3026 2313"
    underline-thickness="50"
    underline-position="-150"
    unicode-range="U+000D-FB02"
  />
<missing-glyph horiz-adv-x="1028" 
d="M843 1616v-2056h-652v2056h652zM685 1478h-340v-68h134v-76h-136v-68h342v68h-136v76h136v68zM549 1213h-206v-214h342v70h-136v144zM479 1143v-74h-68v74h68zM685 944h-342v-68h136v-76h-136v-68h206v144h136v68zM685 820h-68v-135h-274v-70h342v205zM685 569h-206v-115
h70v48h68v-97h-206v164h-68v-232h342v232zM685 214h-342v-233h342v233zM617 146v-97h-206v97h206zM685 -66h-342v-68h144l-144 -96v-68h342v68h-210l144 96h66v68z" />
    <glyph glyph-name="fi" unicode="fi" horiz-adv-x="1424" 
d="M255 1412.5q59 107.5 170 165.5t264 58q91 0 155 -16v-291q-43 12 -95 12q-89 0 -134.5 -41t-45.5 -121v-82h269v-293h-269v-804h-373v804h-169v293h169v63q0 145 59 252.5zM957 1277.5q-56 48.5 -56 141.5q0 92 56 140.5t172 48.5q115 0 171 -48.5t56 -140.5
q0 -93 -56 -141.5t-171 -48.5q-116 0 -172 48.5zM940 0v1097h377v-1097h-377z" />
    <glyph glyph-name="fl" unicode="fl" horiz-adv-x="1423" 
d="M255 1412.5q59 107.5 170 165.5t264 58q91 0 155 -16v-291q-43 12 -95 12q-89 0 -134.5 -41t-45.5 -121v-82h269v-293h-269v-804h-373v804h-169v293h169v63q0 145 59 252.5zM940 1616h376v-1616h-376v1616z" />
    <glyph glyph-name="f_j" unicode="fj" horiz-adv-x="1424" 
d="M569 804v-804h-373v804h-169v293h169v63q0 145 59 252.5t170 165.5t264 58q91 0 155 -16v-291q-43 12 -95 12q-89 0 -134.5 -41t-45.5 -121v-82h269v-293h-269zM952 1278.5q-56 48.5 -56 141.5q0 92 56 140.5t172 48.5q115 0 171 -48.5t56 -140.5q0 -93 -56 -141.5
t-171 -48.5q-116 0 -172 48.5zM940 1097h377v-904q0 -194 -65 -351.5t-219 -315.5l-242 160q84 111 116.5 221t32.5 271v919z" />
    <glyph glyph-name=".notdef" horiz-adv-x="1028" 
d="M843 1616v-2056h-652v2056h652zM685 1478h-340v-68h134v-76h-136v-68h342v68h-136v76h136v68zM549 1213h-206v-214h342v70h-136v144zM479 1143v-74h-68v74h68zM685 944h-342v-68h136v-76h-136v-68h206v144h136v68zM685 820h-68v-135h-274v-70h342v205zM685 569h-206v-115
h70v48h68v-97h-206v164h-68v-232h342v232zM685 214h-342v-233h342v233zM617 146v-97h-206v97h206zM685 -66h-342v-68h144l-144 -96v-68h342v68h-210l144 96h66v68z" />
    <glyph glyph-name=".null" horiz-adv-x="0" 
 />
    <glyph glyph-name="nonmarkingreturn" unicode="&#xd;" horiz-adv-x="508" 
 />
    <glyph glyph-name="NULL" horiz-adv-x="0" 
 />
    <glyph glyph-name="NULL" horiz-adv-x="0" 
 />
    <glyph glyph-name="space" unicode=" " horiz-adv-x="508" 
 />
    <glyph glyph-name="exclam" unicode="!" horiz-adv-x="631" 
d="M203 502l-88 479v499h400v-499l-83 -479h-229zM141 38.5q-65 57.5 -65 154.5q0 98 64 155t175 57q73 0 127.5 -26.5t83.5 -74.5t29 -111t-29.5 -111t-84 -74.5t-126.5 -26.5q-109 0 -174 57.5z" />
    <glyph glyph-name="quotedbl" unicode="&#x22;" horiz-adv-x="966" 
d="M133 820l-69 796h368l-69 -796h-230zM603 820l-69 796h368l-69 -796h-230z" />
    <glyph glyph-name="numbersign" unicode="#" 
d="M1190 829h-175l-18 -178h193v-281h-222l-39 -370h-286l39 370h-150l-39 -370h-286l39 370h-146v281h175l18 178h-193v281h223l38 370h286l-38 -370h150l38 370h286l-38 -370h145v-281zM711 651l18 178h-150l-18 -178h150z" />
    <glyph glyph-name="dollar" unicode="$" horiz-adv-x="1186" 
d="M1042.5 172.5q-95.5 -113.5 -272.5 -161.5v-251h-354v223q-175 11 -328 58v308q92 -28 208 -45t207 -17q139 0 196.5 34.5t57.5 102.5q0 37 -16 61.5t-56 44t-115 39.5l-122 32q-200 49 -300 155.5t-100 278.5q0 166 92 276.5t276 156.5v252h354v-221q152 -6 288 -38
v-309q-69 19 -157 30t-166 11q-170 0 -238 -36t-68 -102q0 -34 14 -57.5t48.5 -41.5t97.5 -35l122 -31q220 -54 323.5 -160.5t103.5 -279.5q0 -164 -95.5 -277.5z" />
    <glyph glyph-name="percent" unicode="%" horiz-adv-x="2184" 
d="M277 620.5q-95 52.5 -148 157t-53 256.5q0 151 53 256t148 157.5t223 52.5q127 0 222.5 -52.5t148 -157.5t52.5 -256q0 -152 -52.5 -256.5t-148 -157t-222.5 -52.5q-128 0 -223 52.5zM606 0l668 1480h304l-668 -1480h-304zM630 1033q0 236 -130 236q-131 0 -131 -235
t131 -235q130 0 130 234zM1462 34.5q-95 52.5 -148 157.5t-53 256t53 256t148 157.5t223 52.5q127 0 222.5 -52.5t148 -157.5t52.5 -256t-52.5 -256t-148 -157.5t-222.5 -52.5q-128 0 -223 52.5zM1815 448q0 235 -130 235q-131 0 -131 -235t131 -235q130 0 130 235z" />
    <glyph glyph-name="ampersand" unicode="&#x26;" horiz-adv-x="1640" 
d="M1469 -20l-258 167q-90 -82 -219 -123.5t-292 -41.5q-197 0 -333.5 52t-205 147t-68.5 224q0 123 62.5 217t165.5 145q-53 64 -75 129t-22 138q0 222 164.5 344t489.5 122q138 0 269 -23v-309q-53 11 -117 18t-123 7q-165 0 -233.5 -43t-68.5 -125q0 -52 30 -93.5
t103 -90.5l361 -233q1 9 1 29q0 114 -33 249h299q32 -125 32 -246q0 -114 -24 -209l266 -172zM965 306l-399 257q-32 20 -46 30q-48 -60 -48 -145q0 -95 71.5 -147.5t200.5 -52.5q136 0 221 58z" />
    <glyph glyph-name="quotesingle" unicode="'" horiz-adv-x="497" 
d="M133 820l-69 796h368l-69 -796h-230z" />
    <glyph glyph-name="parenleft" unicode="(" horiz-adv-x="736" 
d="M96 588q0 646 343 1028h391q-182 -224 -265.5 -474t-83.5 -554t83.5 -554t265.5 -474h-391q-343 382 -343 1028z" />
    <glyph glyph-name="parenright" unicode=")" horiz-adv-x="736" 
d="M171.5 34q83.5 250 83.5 554t-83.5 554t-265.5 474h391q178 -198 260.5 -456t82.5 -572t-82.5 -572t-260.5 -456h-391q182 224 265.5 474z" />
    <glyph glyph-name="asterisk" unicode="*" horiz-adv-x="1037" 
d="M658 1123l141 -127l89 -123l-199 -144l-89 122l-82 186l-81 -186l-89 -122l-199 144l89 123l141 127l-185 20l-164 53l76 233l163 -53l167 -97l-40 189v148h245v-148l-40 -189l167 97l163 53l76 -233l-164 -53z" />
    <glyph glyph-name="plus" unicode="+" horiz-adv-x="1109" 
d="M406 305v313h-300v284h300v313h297v-313h300v-284h-300v-313h-297z" />
    <glyph glyph-name="comma" unicode="," horiz-adv-x="591" 
d="M471.5 355q61.5 -73 61.5 -217q0 -127 -47.5 -257t-128.5 -233h-213q48 100 75 179.5t36 155.5q-92 11 -145.5 70t-53.5 152q0 105 62.5 164t171.5 59q120 0 181.5 -73z" />
    <glyph glyph-name="hyphen" unicode="-" horiz-adv-x="935" 
d="M106 417v304h723v-304h-723z" />
    <glyph glyph-name="period" unicode="." horiz-adv-x="591" 
d="M121 41.5q-65 60.5 -65 163.5t64 163t175 60q74 0 128 -27.5t83 -78t29 -117.5t-29.5 -117.5t-84 -78.5t-126.5 -28q-109 0 -174 60.5z" />
    <glyph glyph-name="slash" unicode="/" horiz-adv-x="850" 
d="M0 -240l480 1856h370l-480 -1856h-370z" />
    <glyph glyph-name="zero" unicode="0" horiz-adv-x="1370" 
d="M241.5 168.5q-155.5 188.5 -155.5 571.5t155.5 571.5t442.5 188.5q288 0 444 -188.5t156 -571.5t-156 -571.5t-444 -188.5q-287 0 -442.5 188.5zM808.5 333.5q48.5 41.5 74 140t25.5 265.5q0 168 -25.5 267t-74 140.5t-123.5 41.5t-124 -41.5t-74.5 -140t-25.5 -265.5
q0 -169 25.5 -267.5t74 -140t124.5 -41.5q75 0 123.5 41.5z" />
    <glyph glyph-name="one" unicode="1" horiz-adv-x="868" 
d="M490 1486h247v-1486h-383v1037l-326 -223v356z" />
    <glyph glyph-name="two" unicode="2" horiz-adv-x="1105" 
d="M1056 315v-315h-1012v205l404 491q88 108 125 183.5t37 141.5q0 88 -59.5 130t-194.5 42q-87 0 -174.5 -15.5t-156.5 -41.5v308q69 24 175 40t198 16q297 0 443.5 -107t146.5 -333q0 -115 -47.5 -227.5t-159.5 -244.5l-232 -273h507z" />
    <glyph glyph-name="three" unicode="3" horiz-adv-x="1114" 
d="M982.5 645.5q75.5 -88.5 75.5 -230.5q0 -207 -156.5 -321t-465.5 -114q-204 0 -396 50v282q87 -22 188 -35.5t191 -13.5q146 0 212.5 44t66.5 132t-65 131t-216 43h-231v286h194q140 0 201.5 41t61.5 120t-58 118t-185 39q-84 0 -173.5 -14.5t-163.5 -40.5v283
q73 24 178.5 39.5t201.5 15.5q281 0 423.5 -104.5t142.5 -300.5q0 -122 -64.5 -209t-178.5 -122q141 -30 216.5 -118.5z" />
    <glyph glyph-name="four" unicode="4" horiz-adv-x="1306" 
d="M1276 580v-294h-185v-286h-342v286h-716v209l495 985h366l-445 -900h300l36 400h306v-400h185z" />
    <glyph glyph-name="five" unicode="5" horiz-adv-x="1127" 
d="M829 839.5q132 -55.5 193 -151t61 -236.5q0 -231 -156.5 -351.5t-463.5 -120.5q-205 0 -396 55v283q86 -24 187.5 -38t191.5 -14q144 0 210 44t66 131q0 62 -35 100t-126 61t-261 33l-190 10l52 835h861v-292h-521l-18 -278q213 -15 345 -70.5z" />
    <glyph glyph-name="six" unicode="6" horiz-adv-x="1286" 
d="M1003.5 855.5q107.5 -48.5 169.5 -149.5t62 -253q0 -145 -65 -251.5t-186.5 -164t-287.5 -57.5q-184 0 -318.5 75.5t-208.5 234.5t-74 402q0 400 193 604t554 204q192 0 314 -46v-289q-135 46 -294 46q-192 0 -289 -94.5t-105 -286.5q58 35 133.5 54.5t154.5 19.5
q140 0 247.5 -48.5zM838 300.5q52 47.5 52 141.5q0 97 -55.5 144t-155.5 47q-117 0 -211 -60q6 -121 34.5 -191.5t77 -99.5t117.5 -29q89 0 141 47.5z" />
    <glyph glyph-name="seven" unicode="7" horiz-adv-x="1053" 
d="M11 1480h984v-205l-453 -1275h-393l440 1165h-578v315z" />
    <glyph glyph-name="eight" unicode="8" horiz-adv-x="1370" 
d="M1233.5 632q58.5 -90 58.5 -218q0 -126 -67.5 -224t-203.5 -154t-333 -56q-208 0 -345.5 49t-203 136.5t-65.5 202.5t67 204.5t194 143.5q-118 67 -170 157.5t-52 206.5q0 125 67 220t200.5 147.5t327.5 52.5q171 0 293.5 -45t187 -129.5t64.5 -201.5q0 -221 -219 -335
q141 -67 199.5 -157zM530.5 1199.5q-57.5 -40.5 -57.5 -105.5q0 -50 24 -84t90.5 -65t198.5 -68q73 45 106 95.5t33 113.5q0 74 -56.5 114t-165.5 40q-115 0 -172.5 -40.5zM876.5 279.5q60.5 39.5 60.5 113.5q0 52 -27.5 88t-97 66.5t-200.5 63.5l-37 10q-73 -37 -109 -92
t-36 -116q0 -84 64.5 -128.5t194.5 -44.5q127 0 187.5 39.5z" />
    <glyph glyph-name="nine" unicode="9" horiz-adv-x="1286" 
d="M908.5 1424.5q134.5 -75.5 208.5 -234.5t74 -402q0 -400 -193 -604t-554 -204q-192 0 -314 46v289q135 -46 294 -46q192 0 289 94.5t105 286.5q-58 -35 -133.5 -54.5t-154.5 -19.5q-140 0 -247.5 48.5t-169.5 149.5t-62 253q0 145 65 251.5t186.5 164t287.5 57.5
q184 0 318.5 -75.5zM451.5 894q55.5 -47 155.5 -47q117 0 211 60q-6 121 -34.5 191.5t-77 99.5t-117.5 29q-89 0 -141 -47.5t-52 -141.5q0 -97 55.5 -144z" />
    <glyph glyph-name="colon" unicode=":" horiz-adv-x="591" 
d="M121 41.5q-65 60.5 -65 163.5t64 163t175 60q74 0 128 -27.5t83 -78t29 -117.5t-29.5 -117.5t-84 -78.5t-126.5 -28q-109 0 -174 60.5zM121 729.5q-65 60.5 -65 163.5t64 163t175 60q74 0 128 -27.5t83 -78t29 -117.5t-29.5 -117.5t-84 -78.5t-126.5 -28
q-109 0 -174 60.5z" />
    <glyph glyph-name="semicolon" unicode=";" horiz-adv-x="591" 
d="M471.5 355q61.5 -73 61.5 -217q0 -127 -47.5 -257t-128.5 -233h-213q48 100 75 179.5t36 155.5q-92 11 -145.5 70t-53.5 152q0 105 62.5 164t171.5 59q120 0 181.5 -73zM121 729.5q-65 60.5 -65 163.5t64 163t175 60q74 0 128 -27.5t83 -78t29 -117.5t-29.5 -117.5
t-84 -78.5t-126.5 -28q-109 0 -174 60.5z" />
    <glyph glyph-name="less" unicode="&#x3c;" horiz-adv-x="1109" 
d="M1003 1269v-286l-637 -221l637 -225v-286l-897 330v358z" />
    <glyph glyph-name="equal" unicode="=" horiz-adv-x="1109" 
d="M106 850v284h897v-284h-897zM106 386v284h897v-284h-897z" />
    <glyph glyph-name="greater" unicode="&#x3e;" horiz-adv-x="1109" 
d="M106 1269l897 -330v-358l-897 -330v286l637 225l-637 221v286z" />
    <glyph glyph-name="question" unicode="?" horiz-adv-x="1023" 
d="M278 853q127 21 200 51t102.5 67.5t29.5 86.5q0 75 -59 113t-187 38q-83 0 -172 -15t-163 -41v292q73 24 178.5 39.5t201.5 15.5q281 0 424 -105t143 -304q0 -157 -98 -260t-280 -155l-27 -176h-228zM283 38.5q-65 57.5 -65 154.5q0 98 64 155t176 57q73 0 127 -26.5
t83 -74.5t29 -111t-29.5 -111t-83.5 -74.5t-126 -26.5q-110 0 -175 57.5z" />
    <glyph glyph-name="at" unicode="@" horiz-adv-x="2153" 
d="M703.5 551.5q114.5 87.5 361.5 103.5l153 11q-4 55 -27.5 87.5t-71.5 47t-128 14.5q-69 0 -148.5 -13.5t-147.5 -37.5l2 279q81 26 177.5 40.5t185.5 14.5q187 0 301.5 -45.5t169.5 -149t55 -278.5v-298q0 -109 89 -109q46 0 78 30t49.5 109t16.5 219q-1 246 -80 396
t-239.5 219t-414.5 69q-255 0 -414.5 -73t-237.5 -235t-78 -431q0 -271 79.5 -433.5t247.5 -236t441 -73.5q233 0 474 55v-239q-236 -54 -474 -54q-1047 0 -1047 980q0 496 260 737t749 241q483 0 737.5 -230t254.5 -684q0 -317 -129 -461t-359 -144q-241 0 -338 152h-20
q-31 -80 -104.5 -116t-172.5 -36q-114 0 -196 40.5t-125.5 113.5t-43.5 170q0 161 114.5 248.5zM1102 460q-74 -6 -109 -34t-35 -83q0 -52 33.5 -77.5t89.5 -25.5q34 0 73.5 11.5t64.5 34.5v182z" />
    <glyph glyph-name="A" unicode="A" horiz-adv-x="1497" 
d="M1113 0l-107 365h-519l-106 -365h-372l459 1480h562l459 -1480h-376zM575 667h343l-172 586z" />
    <glyph glyph-name="B" unicode="B" horiz-adv-x="1359" 
d="M1241 649.5q72 -86.5 72 -229.5q0 -144 -75 -240.5t-242 -147.5t-440 -51q-94 0 -216.5 8.5t-219.5 22.5v1432q109 25 244 40t255 15q339 0 496.5 -103t157.5 -315q0 -115 -62 -200.5t-167 -117.5q125 -27 197 -113.5zM494 1207v-310h184q128 0 182 39.5t54 123.5
q0 58 -24 93.5t-77 52.5t-143 17q-88 0 -176 -16zM839.5 277q65.5 19 93 57.5t27.5 101.5q0 93 -58 135t-192 42h-216v-348q75 -7 167 -7q113 0 178.5 19z" />
    <glyph glyph-name="C" unicode="C" horiz-adv-x="1268" 
d="M281 165q-205 185 -205 571q0 249 95.5 419.5t280 257.5t449.5 87q167 0 317 -33v-313q-142 30 -285 30q-158 0 -258 -46t-149 -143.5t-49 -254.5q0 -159 48 -256.5t145.5 -142.5t251.5 -45q140 0 296 43v-313q-71 -21 -159 -33.5t-174 -12.5q-399 0 -604 185z" />
    <glyph glyph-name="D" unicode="D" horiz-adv-x="1536" 
d="M334 -10q-113 6 -214 18v1436q110 24 242 38.5t257 14.5q421 0 631 -185.5t210 -571.5q0 -265 -100 -432t-302 -245.5t-512 -78.5q-99 0 -212 6zM884.5 337.5q91.5 44.5 137 143t45.5 261.5q0 160 -47 259t-139 143.5t-233 44.5q-33 0 -73 -3.5t-71 -9.5v-878
q62 -5 145 -5q144 0 235.5 44.5z" />
    <glyph glyph-name="E" unicode="E" horiz-adv-x="1286" 
d="M499 304h715v-304h-1094v1480h1084v-304h-705v-268h602v-304h-602v-300z" />
    <glyph glyph-name="F" unicode="F" horiz-adv-x="1245" 
d="M1203 1170h-699v-301h595v-310h-595v-559h-384v1480h1083v-310z" />
    <glyph glyph-name="G" unicode="G" horiz-adv-x="1454" 
d="M1336 720v-705q-209 -34 -383 -34q-441 0 -659 187t-218 568q0 376 223.5 570t657.5 194q175 0 334 -36v-313q-148 33 -299 33q-184 0 -297 -46.5t-166.5 -146t-52.5 -261.5q0 -224 109.5 -330t336.5 -106q38 0 58 1v425h356z" />
    <glyph glyph-name="H" unicode="H" horiz-adv-x="1555" 
d="M120 0v1480h384v-556h547v556h384v-1480h-384v587h-547v-587h-384z" />
    <glyph glyph-name="I" unicode="I" horiz-adv-x="624" 
d="M120 0v1480h384v-1480h-384z" />
    <glyph glyph-name="J" unicode="J" horiz-adv-x="624" 
d="M-27 -190q83 110 116 220.5t33 270.5v1179h382v-1169q-2 -193 -67 -350t-221 -313z" />
    <glyph glyph-name="K" unicode="K" horiz-adv-x="1363" 
d="M1003 0l-385 587h-114v-587h-384v1480h384v-556h114l355 556h401l-456 -715l499 -765h-414z" />
    <glyph glyph-name="L" unicode="L" horiz-adv-x="1176" 
d="M120 0v1480h384v-1163h663v-317h-1047z" />
    <glyph glyph-name="M" unicode="M" horiz-adv-x="1920" 
d="M1327 1480h469v-1480h-358v978l-323 -761h-310l-323 729v-946h-358v1480h469l373 -868z" />
    <glyph glyph-name="N" unicode="N" horiz-adv-x="1570" 
d="M1089 1480h360v-1480h-384l-585 906v-906h-360v1480h384l585 -906v906z" />
    <glyph glyph-name="O" unicode="O" horiz-adv-x="1606" 
d="M417 65q-163 85 -252 255t-89 420t89 420t252 255t386 85t386.5 -85t252.5 -255.5t89 -419.5t-89 -419t-252.5 -255.5t-386.5 -85.5t-386 85zM1052.5 395.5q85.5 107.5 85.5 337.5q0 239 -85.5 349t-249.5 110q-163 0 -248.5 -107t-85.5 -338q0 -241 84.5 -350
t249.5 -109q164 0 249.5 107.5z" />
    <glyph glyph-name="P" unicode="P" horiz-adv-x="1347" 
d="M120 1452q243 47 473 47q347 0 517 -132t170 -413q0 -269 -165.5 -407t-486.5 -138q-30 0 -82 2l-42 1v-412h-384v1452zM842 753q66 60 66 198t-67.5 200.5t-211.5 62.5q-75 0 -125 -9v-504q69 -8 128 -8q144 0 210 60z" />
    <glyph glyph-name="Q" unicode="Q" horiz-adv-x="1606" 
d="M1411 275q-120 -182 -352 -238q210 -57 454 -87l-63 -297q-520 82 -822 230t-427 356t-125 492q0 254 88.5 426t252 257.5t386.5 85.5q224 0 387 -85t252 -255.5t89 -419.5q0 -283 -120 -465zM552.5 396q83.5 -108 250.5 -108q164 0 249.5 107.5t85.5 337.5
q0 239 -85.5 349t-249.5 110q-163 0 -248.5 -107t-85.5 -338q0 -243 83.5 -351z" />
    <glyph glyph-name="R" unicode="R" horiz-adv-x="1403" 
d="M980 0l-350 518q-30 0 -82 2q-34 2 -51 2v-522h-377v1444q110 25 238 40t249 15q331 0 497 -120.5t166 -368.5q1 -153 -70.5 -261t-204.5 -166l401 -583h-416zM497 809q74 -9 147 -9q136 0 202 49.5t66 160.5q0 108 -65 159t-198 51q-79 0 -152 -13v-398z" />
    <glyph glyph-name="S" unicode="S" horiz-adv-x="1186" 
d="M292.5 -3q-111.5 17 -204.5 48v309q92 -31 209 -49t219 -18q130 0 185.5 35t55.5 102q0 37 -16 61.5t-56 44t-115 39.5l-122 32q-200 49 -300 155.5t-100 278.5q0 223 163.5 344t484.5 121q101 0 194 -11.5t168 -31.5v-309q-69 21 -159 33t-180 12q-159 0 -224.5 -36
t-65.5 -102q0 -34 14 -57.5t48.5 -41.5t97.5 -35l122 -31q220 -54 323.5 -160.5t103.5 -279.5q0 -144 -74 -250t-213.5 -163t-332.5 -57q-114 0 -225.5 17z" />
    <glyph glyph-name="T" unicode="T" horiz-adv-x="1325" 
d="M470 0v1163h-457v317h1299v-317h-457v-1163h-385z" />
    <glyph glyph-name="U" unicode="U" horiz-adv-x="1523" 
d="M272 140.5q-158 160.5 -158 491.5v848h384v-884q0 -158 66.5 -230.5t201.5 -72.5t201 72.5t66 230.5v884h376v-848q0 -330 -156 -491t-487 -161q-336 0 -494 160.5z" />
    <glyph glyph-name="V" unicode="V" horiz-adv-x="1475" 
d="M1104 1480h373l-456 -1480h-568l-456 1480h401l349 -1184z" />
    <glyph glyph-name="W" unicode="W" horiz-adv-x="2339" 
d="M1955 1480h362l-381 -1480h-491l-269 1055l-282 -1055h-491l-381 1480h387l269 -1119l292 1119h421l282 -1138z" />
    <glyph glyph-name="X" unicode="X" horiz-adv-x="1411" 
d="M928 776l526 -776h-422l-331 498l-331 -498h-417l526 771l-485 709h424l288 -429l287 429h412z" />
    <glyph glyph-name="Y" unicode="Y" horiz-adv-x="1325" 
d="M1372 1480l-515 -862v-618h-384v614l-532 866h404l328 -543l324 543h375z" />
    <glyph glyph-name="Z" unicode="Z" horiz-adv-x="1271" 
d="M554 316h658v-316h-1153v210l647 954h-637v316h1132v-210z" />
    <glyph glyph-name="bracketleft" unicode="[" horiz-adv-x="736" 
d="M140 -440v2056h624v-294h-248v-1468h239v-294h-615z" />
    <glyph glyph-name="backslash" unicode="\" horiz-adv-x="851" 
d="M480 -240l-480 1856h371l480 -1856h-371z" />
    <glyph glyph-name="bracketright" unicode="]" horiz-adv-x="736" 
d="M-19 -440v294h239v1468h-248v294h624v-2056h-615z" />
    <glyph glyph-name="asciicircum" unicode="^" 
d="M1236 740h-363l-228 415l-228 -415h-363l416 740h350z" />
    <glyph glyph-name="underscore" unicode="_" horiz-adv-x="1241" 
d="M86 -294v293h1069v-293h-1069z" />
    <glyph glyph-name="grave" unicode="`" horiz-adv-x="1169" 
d="M413 1226l-283 390h397l229 -390h-343z" />
    <glyph glyph-name="a" unicode="a" horiz-adv-x="1149" 
d="M823 1068.5q116 -46.5 171 -152.5t55 -288v-628h-308l-26 104h-17q-46 -64 -118 -94.5t-163 -30.5q-113 0 -195.5 41t-125.5 114t-43 169q0 162 114.5 250.5t361.5 103.5l154 10q-2 62 -25.5 98t-74 52t-138.5 16q-67 0 -147.5 -11t-150.5 -32v279q82 22 180.5 34
t187.5 12q192 0 308 -46.5zM617 247q36 11 66 35v181l-114 -8q-76 -5 -111.5 -34.5t-35.5 -81.5q0 -50 31.5 -76.5t90.5 -26.5q37 0 73 11z" />
    <glyph glyph-name="b" unicode="b" horiz-adv-x="1266" 
d="M324.5 -4.5q-118.5 16.5 -217.5 49.5v1571h376v-623h17q48 59 118 90.5t159 31.5q120 0 217 -59.5t154.5 -181.5t57.5 -303q0 -291 -161 -441.5t-485 -150.5q-117 0 -235.5 16.5zM770.5 326.5q57.5 65.5 57.5 215.5q0 148 -50 207.5t-148 59.5q-41 0 -79.5 -11t-67.5 -33
v-491q49 -13 110 -13q120 0 177.5 65.5z" />
    <glyph glyph-name="c" unicode="c" horiz-adv-x="993" 
d="M214 122q-153 143 -153 424q0 284 162 426.5t467 142.5q140 0 253 -25v-294q-105 18 -199 18q-156 0 -226.5 -63t-70.5 -202q0 -143 67 -206.5t205 -63.5q50 0 100.5 8t123.5 25v-293q-60 -19 -133.5 -29.5t-149.5 -10.5q-293 0 -446 143z" />
    <glyph glyph-name="d" unicode="d" horiz-adv-x="1266" 
d="M286 38q-103 58 -164 180.5t-61 307.5q0 285 156.5 437.5t456.5 152.5q45 0 109 -6v506h376v-1616h-315l-23 114h-16q-48 -63 -121 -98.5t-167 -35.5q-128 0 -231 58zM714.5 298.5q40.5 13.5 68.5 39.5v485q-50 10 -108 10q-121 0 -179 -65t-58 -214q0 -148 49.5 -208.5
t143.5 -60.5q43 0 83.5 13.5z" />
    <glyph glyph-name="e" unicode="e" horiz-adv-x="1138" 
d="M1088 442h-653q6 -69 35.5 -108.5t95 -57t181.5 -17.5q120 0 278 32v-278q-165 -34 -332 -34q-221 0 -360 59.5t-205.5 185t-66.5 325.5q0 178 61.5 305t180.5 194t290 67q243 0 369 -149.5t126 -428.5v-95zM473.5 830q-37.5 -52 -39.5 -177h306q-2 125 -38.5 177
t-112.5 52q-78 0 -115.5 -52z" />
    <glyph glyph-name="f" unicode="f" horiz-adv-x="833" 
d="M619.5 1297.5q-50.5 -43.5 -50.5 -134.5v-66h269v-293h-269v-804h-373v804h-169v293h169v48q0 153 60.5 263.5t178.5 169t286 58.5q85 0 164 -12v-290q-65 7 -103 7q-112 0 -162.5 -43.5z" />
    <glyph glyph-name="g" unicode="g" horiz-adv-x="1266" 
d="M139 -417v291q183 -48 352 -48q155 0 223.5 54.5t68.5 176.5v61h-17q-48 -59 -118 -90.5t-159 -31.5q-117 0 -214 59t-155.5 178.5t-58.5 293.5q0 284 161.5 435.5t484.5 152.5q115 0 236.5 -17t215.5 -48v-922q0 -206 -69 -335.5t-209.5 -191t-358.5 -61.5
q-207 0 -383 43zM715.5 310q38.5 11 67.5 33v479q-55 11 -109 11q-118 0 -177 -65t-59 -210q0 -143 49.5 -201t148.5 -58q41 0 79.5 11z" />
    <glyph glyph-name="h" unicode="h" horiz-adv-x="1254" 
d="M107 1616h376v-625h17q53 61 126.5 92.5t164.5 31.5q105 0 186.5 -46t129 -145.5t47.5 -254.5v-669h-376v643q0 82 -32.5 116t-96.5 34q-47 0 -92 -18.5t-74 -51.5v-723h-376v1616z" />
    <glyph glyph-name="i" unicode="i" horiz-adv-x="591" 
d="M107 0v1097h377v-1097h-377zM124 1277.5q-56 48.5 -56 141.5q0 92 56 140.5t172 48.5q115 0 171 -48.5t56 -140.5q0 -93 -56 -141.5t-171 -48.5q-116 0 -172 48.5z" />
    <glyph glyph-name="j" unicode="j" horiz-adv-x="591" 
d="M-42 -314q84 111 116.5 221t32.5 271v919h377v-904q0 -194 -65 -351.5t-219 -315.5zM119 1278.5q-56 48.5 -56 141.5q0 92 56 140.5t172 48.5q115 0 171 -48.5t56 -140.5q0 -93 -56 -141.5t-171 -48.5q-116 0 -172 48.5z" />
    <glyph glyph-name="k" unicode="k" horiz-adv-x="1230" 
d="M861 0l-272 415h-106v-415h-376v1616h376v-903h104l246 384h398l-330 -525l366 -572h-406z" />
    <glyph glyph-name="l" unicode="l" horiz-adv-x="590" 
d="M107 0v1616h376v-1616h-376z" />
    <glyph glyph-name="m" unicode="m" horiz-adv-x="1844" 
d="M1643 1007q101 -108 101 -340v-667h-375v646q0 80 -31.5 113.5t-88.5 33.5q-40 0 -75 -13.5t-62 -40.5q2 -38 2 -59v-680h-368v646q0 80 -29 113.5t-85 33.5q-44 0 -84 -18.5t-65 -52.5v-722h-376v1097h309l25 -107h17q116 125 304 125q90 0 162 -34t118 -104
q67 70 151 104t175 34q174 0 275 -108z" />
    <glyph glyph-name="n" unicode="n" horiz-adv-x="1254" 
d="M107 1097h309l25 -107h17q58 61 138.5 93t175.5 32q176 0 279 -108.5t103 -337.5v-669h-376v645q0 81 -32.5 114.5t-96.5 33.5q-47 0 -92 -18.5t-74 -51.5v-723h-376v1097z" />
    <glyph glyph-name="o" unicode="o" horiz-adv-x="1238" 
d="M320.5 43q-125.5 64 -192.5 191t-67 311q0 281 145 425.5t413 144.5q177 0 302 -64.5t190.5 -192t65.5 -311.5q0 -185 -67 -312t-192.5 -191.5t-298.5 -64.5t-298.5 64zM719.5 286q39.5 26 60 88.5t20.5 170.5q0 109 -20.5 172.5t-60 89.5t-100.5 26t-100.5 -26t-60 -89
t-20.5 -171q0 -109 20.5 -172t60 -89t100.5 -26t100.5 26z" />
    <glyph glyph-name="p" unicode="p" horiz-adv-x="1266" 
d="M107 1097h315l23 -115h16q48 62 121 97.5t167 35.5q128 0 231 -58t164.5 -180t61.5 -307q0 -286 -157 -438.5t-457 -152.5q-43 0 -109 6v-425h-376v1537zM770.5 327q57.5 65 57.5 214t-49.5 209t-143.5 60q-43 0 -83.5 -13.5t-68.5 -39.5v-485q60 -10 108 -10
q122 0 179.5 65z" />
    <glyph glyph-name="q" unicode="q" horiz-adv-x="1266" 
d="M783 101h-17q-48 -59 -118 -90.5t-159 -31.5q-120 0 -216.5 59.5t-154 182t-57.5 302.5q0 290 160.5 441t484.5 151q115 0 237 -17t216 -48v-1490h-376v541zM715.5 296q38.5 11 67.5 33v493q-55 11 -110 11q-117 0 -176 -65.5t-59 -214.5t50 -208.5t148 -59.5
q41 0 79.5 11z" />
    <glyph glyph-name="r" unicode="r" horiz-adv-x="841" 
d="M107 1097h307l29 -140h17q41 80 113 118.5t167 38.5q41 0 89 -8v-339q-44 10 -113 10t-133.5 -23.5t-99.5 -64.5v-689h-376v1097z" />
    <glyph glyph-name="s" unicode="s" horiz-adv-x="1007" 
d="M84 28v271q80 -24 173 -37t188 -13q93 0 132 20.5t39 60.5q0 29 -16.5 44t-57.5 22l-188 33q-156 28 -229 107t-73 216q0 112 60 193t182.5 125.5t303.5 44.5q82 0 162.5 -9.5t142.5 -26.5v-271q-63 17 -139.5 27t-154.5 10q-118 0 -163.5 -23t-45.5 -62q0 -25 17 -39.5
t58 -22.5l188 -33q151 -27 226 -102t75 -220q0 -113 -60.5 -194.5t-175.5 -125.5t-276 -44q-209 0 -368 49z" />
    <glyph glyph-name="t" unicode="t" horiz-adv-x="877" 
d="M835 298v-294q-45 -11 -103.5 -18t-111.5 -7q-213 0 -322.5 105.5t-109.5 324.5v395h-169v293h169l69 383h307v-383h268v-293h-268v-337q0 -69 16 -108t50.5 -55.5t95.5 -16.5q41 0 109 11z" />
    <glyph glyph-name="u" unicode="u" horiz-adv-x="1244" 
d="M204 88.5q-104 107.5 -104 336.5v672h376v-645q0 -81 31.5 -115t91.5 -34q44 0 89 18.5t73 51.5v724h376v-1097h-309l-25 107h-15q-61 -62 -137.5 -94t-163.5 -32q-179 0 -283 107.5z" />
    <glyph glyph-name="v" unicode="v" horiz-adv-x="1205" 
d="M843 1097h369l-375 -1097h-469l-375 1097h392l229 -754z" />
    <glyph glyph-name="w" unicode="w" horiz-adv-x="1854" 
d="M1477 1097h340l-284 -1097h-412l-190 742l-196 -742h-411l-287 1097h355l161 -694l177 694h412l169 -678z" />
    <glyph glyph-name="x" unicode="x" horiz-adv-x="1167" 
d="M803 557l381 -557h-411l-192 296l-197 -296h-400l378 553l-371 544h411l186 -281l184 281h399z" />
    <glyph glyph-name="y" unicode="y" horiz-adv-x="1205" 
d="M843 1097h369l-527 -1537h-367l152 440h-102l-375 1097h392l228 -756z" />
    <glyph glyph-name="z" unicode="z" horiz-adv-x="1047" 
d="M530 294h468v-294h-932v239l459 565h-448v293h911v-238z" />
    <glyph glyph-name="braceleft" unicode="{" horiz-adv-x="776" 
d="M509.5 727.5q-46.5 -67.5 -146.5 -96.5q100 -29 146.5 -97t46.5 -176v-403q0 -61 32 -88.5t96 -27.5h120v-286q-98 -13 -186 -13q-216 0 -327 102.5t-111 298.5v423q0 55 -32 87.5t-87 32.5h-61v293h61q55 0 87 32.5t32 87.5v338q0 196 111 298.5t327 102.5q88 0 186 -13
v-286h-120q-64 0 -96 -27.5t-32 -88.5v-318q0 -108 -46.5 -175.5z" />
    <glyph glyph-name="bar" unicode="|" horiz-adv-x="578" 
d="M120 -440v2056h337v-2056h-337z" />
    <glyph glyph-name="braceright" unicode="}" horiz-adv-x="776" 
d="M776 777v-293h-61q-54 0 -86.5 -32.5t-32.5 -87.5v-423q0 -196 -110.5 -298.5t-326.5 -102.5q-89 0 -187 13v286h120q64 0 96 27.5t32 88.5v403q0 107 46.5 175.5t147.5 97.5q-101 29 -147.5 96.5t-46.5 175.5v318q0 61 -32 88.5t-96 27.5h-120v286q98 13 187 13
q216 0 326.5 -102.5t110.5 -298.5v-338q0 -55 32.5 -87.5t86.5 -32.5h61z" />
    <glyph glyph-name="asciitilde" unicode="~" horiz-adv-x="1109" 
d="M651.5 576.5q-48.5 15.5 -121.5 47.5q-58 27 -99 40.5t-81 13.5q-71 0 -128.5 -25.5t-115.5 -83.5v288q48 53 107.5 77t139.5 24q56 0 106 -16t120 -48q58 -27 99 -40.5t81 -13.5q70 0 127.5 26t116.5 84v-289q-49 -52 -108 -76t-139 -24q-56 0 -104.5 15.5z" />
    <glyph glyph-name="uni00A0" unicode="&#xa0;" horiz-adv-x="508" 
 />
    <glyph glyph-name="exclamdown" unicode="&#xa1;" horiz-adv-x="631" 
d="M441.5 1088.5q54.5 -27.5 84 -78.5t29.5 -117q0 -67 -29 -118t-83 -78.5t-128 -27.5q-111 0 -175 60t-64 164q0 103 65 163t174 60q72 0 126.5 -27.5zM203 573h229l83 -468v-485h-400v485z" />
    <glyph glyph-name="cent" unicode="&#xa2;" horiz-adv-x="998" 
d="M517 751q-70 -63 -70 -202q0 -143 67 -206.5t205 -63.5q50 0 100.5 8t123.5 25v-293q-69 -22 -161 -33v-226h-320v239q-197 43 -299 180.5t-102 366.5q0 225 102.5 361.5t298.5 183.5v246h320v-225q78 -4 161 -22v-294q-105 18 -200 18q-156 0 -226 -63z" />
    <glyph glyph-name="sterling" unicode="&#xa3;" horiz-adv-x="1371" 
d="M1315 304v-304h-1243v304h187v308h-187v276h187v101q0 251 165 381t497 130q94 0 184.5 -10.5t164.5 -28.5v-309q-69 19 -157 30t-166 11q-121 0 -189.5 -19t-97.5 -60t-29 -110v-116h443v-276h-443v-308h684z" />
    <glyph glyph-name="currency" unicode="&#xa4;" 
d="M1088 473l118 -115l-179 -179l-115 118l-90 105q-81 -38 -177 -38q-98 0 -177 38l-90 -105l-116 -118l-178 179l118 115l104 89q-40 78 -40 178q0 98 40 178l-104 89l-118 115l178 179l115 -118l92 -107q79 38 176 38q96 0 175 -38l92 107l116 118l178 -179l-118 -115
l-104 -89q40 -80 40 -178q0 -100 -40 -178zM528.5 612.5q45.5 -47.5 116.5 -47.5t116.5 47t45.5 128q0 76 -44.5 125.5t-115.5 49.5q-73 0 -118.5 -47.5t-45.5 -127.5t45.5 -127.5z" />
    <glyph glyph-name="yen" unicode="&#xa5;" horiz-adv-x="1331" 
d="M1376 1480l-407 -680h202v-218h-312v-116h312v-218h-312v-248h-383v248h-312v218h312v116h-312v218h197l-417 680h405l327 -543l325 543h375z" />
    <glyph glyph-name="brokenbar" unicode="&#xa6;" horiz-adv-x="578" 
d="M120 836v780h337v-780h-337zM120 -440v780h337v-780h-337z" />
    <glyph glyph-name="section" unicode="&#xa7;" horiz-adv-x="1143" 
d="M948 510q61 -67 61 -174q0 -110 -60 -190.5t-178 -123.5t-289 -43q-85 0 -176 10.5t-169 30.5v256q163 -42 340 -42q108 0 151 21t43 60q0 30 -18 46t-57 24l-235 46q-132 26 -205.5 102.5t-73.5 208.5q0 134 109 225q-65 70 -65 171q0 170 136.5 265t421.5 95
q154 0 284 -27v-256q-122 27 -256 27q-248 0 -248 -84q0 -27 18 -42.5t58 -23.5l244 -44q135 -26 206 -100t71 -208q0 -136 -113 -230zM707 622q26 25 37 46.5t11 46.5q0 39 -22.5 63t-77.5 35l-229 44q-38 -50 -38 -95q0 -38 23 -62.5t78 -35.5z" />
    <glyph glyph-name="dieresis" unicode="&#xa8;" horiz-adv-x="1169" 
d="M183 1283.5q-51 48.5 -51 135.5q0 86 51 134.5t147 48.5q95 0 146 -48.5t51 -134.5q0 -87 -51 -135.5t-146 -48.5q-96 0 -147 48.5zM693 1283.5q-51 48.5 -51 135.5q0 86 51 134.5t146 48.5q96 0 147 -48.5t51 -134.5q0 -87 -51 -135.5t-147 -48.5q-95 0 -146 48.5z" />
    <glyph glyph-name="copyright" unicode="&#xa9;" horiz-adv-x="1650" 
d="M432 73q-170 95 -263 267.5t-93 399.5t93 399.5t263 267.5t393 95t393 -95t263 -267.5t93 -399.5t-93 -399.5t-263 -267.5t-393 -95t-393 95zM1120 239q123 69 188 197.5t65 303.5t-65 303.5t-188 197.5t-295 69t-295.5 -69t-188.5 -197.5t-65 -303.5t65 -303.5
t188.5 -197.5t295.5 -69t295 69zM658.5 372q-98.5 48 -152 140t-53.5 220q0 129 54.5 222t156 141.5t240.5 48.5q105 0 192 -23v-224q-93 17 -168 17q-207 0 -207 -181q0 -88 50 -133.5t144 -45.5q43 0 83 5.5t98 20.5v-224q-85 -32 -206 -32q-133 0 -231.5 48z" />
    <glyph glyph-name="ordfeminine" unicode="&#xaa;" horiz-adv-x="961" 
d="M693 1462q102 -39 150.5 -127.5t48.5 -238.5v-486h-289l-25 84h-15q-36 -52 -96 -76.5t-135 -24.5q-97 0 -165.5 33.5t-103.5 92.5t-35 136q0 134 93.5 203t298.5 78l125 6q0 38 -15.5 60.5t-56.5 33.5t-117 11q-59 0 -124.5 -8.5t-123.5 -24.5v249q73 18 156.5 28
t159.5 10q167 0 269 -39zM545 842v136l-72 -3q-54 -3 -79 -22.5t-25 -55.5q0 -38 24 -58t70 -20q48 0 82 23z" />
    <glyph glyph-name="guillemotleft" unicode="&#xab;" horiz-adv-x="1302" 
d="M323 131l-249 438l249 437h381l-248 -437l248 -438h-381zM886 131l-249 438l249 437h381l-248 -437l248 -438h-381z" />
    <glyph glyph-name="logicalnot" unicode="&#xac;" horiz-adv-x="1332" 
d="M935 199v419h-829v284h1126v-703h-297z" />
    <glyph glyph-name="uni00AD" unicode="&#xad;" horiz-adv-x="935" 
d="M106 417v304h723v-304h-723z" />
    <glyph glyph-name="registered" unicode="&#xae;" horiz-adv-x="1414" 
d="M1024.5 1420q138.5 -78 215.5 -218t77 -320t-77 -319.5t-215.5 -217t-317.5 -77.5t-317.5 77.5t-215.5 217t-77 319.5t77 320t215.5 218t317.5 78t317.5 -78zM947 469q103 58 159.5 164.5t56.5 248.5t-56.5 249t-159.5 165.5t-240 58.5t-240 -58.5t-159.5 -165.5
t-56.5 -249t56.5 -248.5t159.5 -164.5t240 -58t240 58zM844 813l146 -213h-167l-132 192h-47l-5 -192h-152v592h211q132 0 196.5 -50t64.5 -151q0 -135 -115 -178zM644 914h78q45 0 67 19t22 58t-23 59t-66 20h-78v-156z" />
    <glyph glyph-name="macron" unicode="&#xaf;" horiz-adv-x="1169" 
d="M213 1309v221h743v-221h-743z" />
    <glyph glyph-name="degree" unicode="&#xb0;" horiz-adv-x="968" 
d="M285.5 786.5q-88.5 49.5 -138.5 136.5t-50 196t50 196t138.5 135.5t198.5 48.5t198.5 -48.5t138.5 -135.5t50 -196t-50 -196t-138.5 -136.5t-198.5 -49.5t-198.5 49.5zM599 996q45 46 45 123t-45 122t-115 45q-69 0 -114.5 -45t-45.5 -122t45 -123t115 -46t115 46z" />
    <glyph glyph-name="plusminus" unicode="&#xb1;" horiz-adv-x="1109" 
d="M406 387v286h-300v285h300v286h297v-286h300v-285h-300v-286h-297zM106 1v285h897v-285h-897z" />
    <glyph glyph-name="uni00B2" unicode="&#xb2;" horiz-adv-x="879" 
d="M805 101v-237h-727v154l279 322q59 70 85 117t26 87q0 54 -39 79t-134 25q-58 0 -120 -11t-109 -28v232q53 17 127 27t146 10q211 0 317 -74t106 -230q-1 -77 -35.5 -151t-110.5 -162l-141 -160h330z" />
    <glyph glyph-name="uni00B3" unicode="&#xb3;" horiz-adv-x="879" 
d="M745.5 300.5q49.5 -59.5 49.5 -154.5q0 -141 -112 -218.5t-333 -77.5q-145 0 -282 33v213q63 -16 134 -25t133 -9q96 0 138.5 26t42.5 78q0 51 -38.5 76t-128.5 25h-188v214h168q79 0 114 24t35 68q0 47 -38 70.5t-124 23.5q-56 0 -120.5 -10.5t-114.5 -28.5v213
q51 16 127 26.5t144 10.5q204 0 306.5 -71.5t102.5 -206.5q0 -81 -42 -139t-116 -81q93 -20 142.5 -79.5z" />
    <glyph glyph-name="acute" unicode="&#xb4;" horiz-adv-x="1169" 
d="M413 1226l229 390h397l-283 -390h-343z" />
    <glyph glyph-name="uni00B5" unicode="&#xb5;" horiz-adv-x="1244" 
d="M1137 1097v-1097h-309l-25 107h-15q-44 -62 -100 -94t-119 -32q-51 0 -93 16v-437h-376v1536h376v-644q0 -81 31.5 -115t91.5 -34q44 0 89 18.5t73 51.5v724h376z" />
    <glyph glyph-name="paragraph" unicode="&#xb6;" horiz-adv-x="1347" 
d="M572 411q-52 -2 -77 -2q-212 0 -320 137.5t-108 407.5q0 190 51 310t157.5 177.5t274.5 57.5q149 0 285 -19v-1480h-263v411zM965 0v1480h262v-1480h-262z" />
    <glyph glyph-name="periodcentered" unicode="&#xb7;" horiz-adv-x="591" 
d="M121 397q-65 60 -65 163q0 104 63.5 163.5t175.5 59.5q74 0 128 -27.5t83 -78t29 -117.5t-29.5 -117.5t-84 -78t-126.5 -27.5q-109 0 -174 60z" />
    <glyph glyph-name="cedilla" unicode="&#xb8;" horiz-adv-x="1169" 
d="M807 -144.5q42 -46.5 42 -118.5q0 -89 -68.5 -139t-203.5 -50q-97 0 -185 30v139q37 -15 83 -22.5t84 -7.5q49 0 73 15.5t24 50.5q0 68 -98 68h-49v199h175v-102q81 -16 123 -62.5z" />
    <glyph glyph-name="uni00B9" unicode="&#xb9;" horiz-adv-x="879" 
d="M630 101h194v-237h-696v237h204v446l-199 -124v255l304 190h193v-767z" />
    <glyph glyph-name="ordmasculine" unicode="&#xba;" horiz-adv-x="1034" 
d="M256 646.5q-108 53.5 -164.5 155.5t-56.5 245t56.5 245t164.5 155.5t261 53.5t261 -54.5t164.5 -156.5t56.5 -243q0 -142 -56.5 -244t-164.5 -156t-261 -54t-261 53.5zM617 891.5q34 45.5 34 155.5q0 111 -34 155.5t-100 44.5t-100.5 -44.5t-34.5 -155.5
q0 -110 35 -155.5t100 -45.5q66 0 100 45.5z" />
    <glyph glyph-name="guillemotright" unicode="&#xbb;" horiz-adv-x="1302" 
d="M34 131l249 438l-249 437h382l248 -437l-248 -438h-382zM597 131l249 438l-249 437h382l248 -437l-248 -438h-382z" />
    <glyph glyph-name="onequarter" unicode="&#xbc;" horiz-adv-x="2161" 
d="M630 853h194v-237h-696v237h204v446l-199 -124v255l304 190h193v-767zM521 -136l809 1752h310l-809 -1752h-310zM2139 268v-220h-117v-184h-259v184h-457v157l294 659h273l-263 -596h153l52 258h207v-258h117z" />
    <glyph glyph-name="onehalf" unicode="&#xbd;" horiz-adv-x="2161" 
d="M630 853h194v-237h-696v237h204v446l-199 -124v255l304 190h193v-767zM521 -136l809 1752h310l-809 -1752h-310zM2087 101v-237h-727v154l279 322q59 70 85 117t26 87q0 54 -39 79t-134 25q-58 0 -120 -11t-109 -28v232q53 17 127 27t146 10q211 0 317 -74t106 -230
q-1 -77 -35.5 -151t-110.5 -162l-141 -160h330z" />
    <glyph glyph-name="threequarters" unicode="&#xbe;" horiz-adv-x="2161" 
d="M745.5 1052.5q49.5 -59.5 49.5 -154.5q0 -141 -112 -218.5t-333 -77.5q-145 0 -282 33v213q63 -16 134 -25t133 -9q96 0 138.5 26t42.5 78q0 51 -38.5 76t-128.5 25h-188v214h168q79 0 114 24t35 68q0 47 -38 70.5t-124 23.5q-56 0 -120.5 -10.5t-114.5 -28.5v213
q51 16 127 26.5t144 10.5q204 0 306.5 -71.5t102.5 -206.5q0 -81 -42 -139t-116 -81q93 -20 142.5 -79.5zM521 -136l809 1752h310l-809 -1752h-310zM2139 268v-220h-117v-184h-259v184h-457v157l294 659h273l-263 -596h153l52 258h207v-258h117z" />
    <glyph glyph-name="questiondown" unicode="&#xbf;" horiz-adv-x="1023" 
d="M740 1058.5q65 -57.5 65 -154.5q0 -98 -64 -155t-175 -57q-73 0 -127.5 26.5t-83.5 74.5t-29 111t29.5 111t84 74.5t126.5 26.5q109 0 174 -57.5zM745 244q-127 -21 -199.5 -51t-102 -67t-29.5 -86q0 -74 58.5 -111.5t186.5 -37.5q83 0 172 14.5t164 40.5v-291
q-73 -24 -179 -39.5t-201 -15.5q-282 0 -424.5 105t-142.5 302q0 156 98 259t280 155l26 176h228z" />
    <glyph glyph-name="Agrave" unicode="&#xc0;" horiz-adv-x="1497" 
d="M1113 0l-107 365h-519l-106 -365h-372l459 1480h562l459 -1480h-376zM575 667h343l-172 586zM578 1590l-237 310h394l182 -310h-339z" />
    <glyph glyph-name="Aacute" unicode="&#xc1;" horiz-adv-x="1497" 
d="M1113 0l-107 365h-519l-106 -365h-372l459 1480h562l459 -1480h-376zM575 667h343l-172 586zM577 1590l181 310h394l-237 -310h-338z" />
    <glyph glyph-name="Acircumflex" unicode="&#xc2;" horiz-adv-x="1497" 
d="M1113 0l-107 365h-519l-106 -365h-372l459 1480h562l459 -1480h-376zM575 667h343l-172 586zM1165 1590h-279l-138 175l-139 -175h-279l260 310h316z" />
    <glyph glyph-name="Atilde" unicode="&#xc3;" horiz-adv-x="1497" 
d="M1113 0l-107 365h-519l-106 -365h-372l459 1480h562l459 -1480h-376zM575 667h343l-172 586zM832.5 1611q-43.5 10 -102.5 30q-56 18 -92 27t-76 9q-62 0 -110 -16.5t-99 -53.5v210q43 39 94.5 57t121.5 18q50 0 92 -10t104 -31q54 -19 91 -28t77 -9q62 0 110 16.5
t99 53.5v-210q-42 -38 -93 -55.5t-123 -17.5q-50 0 -93.5 10z" />
    <glyph glyph-name="Adieresis" unicode="&#xc4;" horiz-adv-x="1497" 
d="M1113 0l-107 365h-519l-106 -365h-372l459 1480h562l459 -1480h-376zM575 667h343l-172 586zM335.5 1629.5q-49.5 42.5 -49.5 120.5q0 79 49.5 121.5t146.5 42.5t147 -42.5t50 -121.5q0 -78 -50 -120.5t-147 -42.5t-146.5 42.5zM866 1629.5q-50 42.5 -50 120.5
q0 79 50 121.5t147 42.5t146.5 -42.5t49.5 -121.5q0 -78 -49.5 -120.5t-146.5 -42.5t-147 42.5z" />
    <glyph glyph-name="Aring" unicode="&#xc5;" horiz-adv-x="1497" 
d="M1113 0l-107 365h-519l-106 -365h-372l459 1480h562l459 -1480h-376zM575 667h343l-172 586zM634.5 1578.5q-50.5 27.5 -79 76.5t-28.5 111t28.5 111t79 76.5t114.5 27.5q63 0 113.5 -27.5t79 -76.5t28.5 -111t-28.5 -111t-79 -76.5t-113.5 -27.5q-64 0 -114.5 27.5z
M810.5 1701q23.5 24 23.5 65q0 40 -23.5 64.5t-61.5 24.5t-62 -24.5t-24 -64.5q0 -41 23.5 -65t62.5 -24q38 0 61.5 24z" />
    <glyph glyph-name="AE" unicode="&#xc6;" horiz-adv-x="2063" 
d="M1346 304h646v-304h-1001l-28 364h-472l-107 -364h-375l460 1480h1513v-304h-712l23 -268h585v-304h-558zM581 668h359l-40 508h-170z" />
    <glyph glyph-name="Ccedilla" unicode="&#xc7;" horiz-adv-x="1268" 
d="M675 1138q-100 -46 -149 -143.5t-49 -254.5q0 -159 48 -256.5t145.5 -142.5t251.5 -45q140 0 296 43v-313q-71 -21 -159 -33.5t-174 -12.5q-34 0 -50 1v-61q92 -14 139 -60t47 -120q0 -91 -72.5 -141.5t-218.5 -50.5q-108 0 -206 31v138q43 -14 93.5 -22t93.5 -8
q59 0 88 15.5t29 50.5t-30 51.5t-88 16.5h-50v176q-288 47 -436 229.5t-148 509.5q0 249 95.5 419.5t280 257.5t449.5 87q167 0 317 -33v-313q-142 30 -285 30q-158 0 -258 -46z" />
    <glyph glyph-name="Egrave" unicode="&#xc8;" horiz-adv-x="1286" 
d="M499 304h715v-304h-1094v1480h1084v-304h-705v-268h602v-304h-602v-300zM514 1590l-237 310h394l182 -310h-339z" />
    <glyph glyph-name="Eacute" unicode="&#xc9;" horiz-adv-x="1286" 
d="M499 304h715v-304h-1094v1480h1084v-304h-705v-268h602v-304h-602v-300zM513 1590l181 310h394l-237 -310h-338z" />
    <glyph glyph-name="Ecircumflex" unicode="&#xca;" horiz-adv-x="1286" 
d="M499 304h715v-304h-1094v1480h1084v-304h-705v-268h602v-304h-602v-300zM1101 1590h-279l-138 175l-139 -175h-279l260 310h316z" />
    <glyph glyph-name="Edieresis" unicode="&#xcb;" horiz-adv-x="1286" 
d="M499 304h715v-304h-1094v1480h1084v-304h-705v-268h602v-304h-602v-300zM271.5 1629.5q-49.5 42.5 -49.5 120.5q0 79 49.5 121.5t146.5 42.5t147 -42.5t50 -121.5q0 -78 -50 -120.5t-147 -42.5t-146.5 42.5zM802 1629.5q-50 42.5 -50 120.5q0 79 50 121.5t147 42.5
t146.5 -42.5t49.5 -121.5q0 -78 -49.5 -120.5t-146.5 -42.5t-147 42.5z" />
    <glyph glyph-name="Igrave" unicode="&#xcc;" horiz-adv-x="624" 
d="M120 0v1480h384v-1480h-384zM142 1590l-237 310h394l182 -310h-339z" />
    <glyph glyph-name="Iacute" unicode="&#xcd;" horiz-adv-x="624" 
d="M120 0v1480h384v-1480h-384zM141 1590l181 310h394l-237 -310h-338z" />
    <glyph glyph-name="Icircumflex" unicode="&#xce;" horiz-adv-x="624" 
d="M120 0v1480h384v-1480h-384zM729 1590h-279l-138 175l-139 -175h-279l260 310h316z" />
    <glyph glyph-name="Idieresis" unicode="&#xcf;" horiz-adv-x="624" 
d="M120 0v1480h384v-1480h-384zM-100.5 1629.5q-49.5 42.5 -49.5 120.5q0 79 49.5 121.5t146.5 42.5t147 -42.5t50 -121.5q0 -78 -50 -120.5t-147 -42.5t-146.5 42.5zM430 1629.5q-50 42.5 -50 120.5q0 79 50 121.5t147 42.5t146.5 -42.5t49.5 -121.5q0 -78 -49.5 -120.5
t-146.5 -42.5t-147 42.5z" />
    <glyph glyph-name="Eth" unicode="&#xd0;" horiz-adv-x="1536" 
d="M1250 1311.5q210 -185.5 210 -571.5q0 -265 -100 -432t-302 -245.5t-512 -78.5q-99 0 -212 6t-214 18v634h-116v241h116v561q110 24 242 38.5t257 14.5q421 0 631 -185.5zM884.5 337.5q91.5 44.5 137 143t45.5 261.5q0 160 -47 259t-139 143.5t-233 44.5q-33 0 -73 -3.5
t-71 -9.5v-293h253v-241h-253v-344q62 -5 145 -5q144 0 235.5 44.5z" />
    <glyph glyph-name="Ntilde" unicode="&#xd1;" horiz-adv-x="1570" 
d="M1089 1480h360v-1480h-384l-585 906v-906h-360v1480h384l585 -906v906zM869.5 1611q-43.5 10 -102.5 30q-56 18 -92 27t-76 9q-62 0 -110 -16.5t-99 -53.5v210q43 39 94.5 57t121.5 18q50 0 92 -10t104 -31q54 -19 91 -28t77 -9q62 0 110 16.5t99 53.5v-210
q-42 -38 -93 -55.5t-123 -17.5q-50 0 -93.5 10z" />
    <glyph glyph-name="Ograve" unicode="&#xd2;" horiz-adv-x="1606" 
d="M417 65q-163 85 -252 255t-89 420t89 420t252 255t386 85t386.5 -85t252.5 -255.5t89 -419.5t-89 -419t-252.5 -255.5t-386.5 -85.5t-386 85zM1052.5 395.5q85.5 107.5 85.5 337.5q0 239 -85.5 349t-249.5 110q-163 0 -248.5 -107t-85.5 -338q0 -241 84.5 -350
t249.5 -109q164 0 249.5 107.5zM633 1590l-237 310h394l182 -310h-339z" />
    <glyph glyph-name="Oacute" unicode="&#xd3;" horiz-adv-x="1606" 
d="M417 65q-163 85 -252 255t-89 420t89 420t252 255t386 85t386.5 -85t252.5 -255.5t89 -419.5t-89 -419t-252.5 -255.5t-386.5 -85.5t-386 85zM1052.5 395.5q85.5 107.5 85.5 337.5q0 239 -85.5 349t-249.5 110q-163 0 -248.5 -107t-85.5 -338q0 -241 84.5 -350
t249.5 -109q164 0 249.5 107.5zM632 1590l181 310h394l-237 -310h-338z" />
    <glyph glyph-name="Ocircumflex" unicode="&#xd4;" horiz-adv-x="1606" 
d="M417 65q-163 85 -252 255t-89 420t89 420t252 255t386 85t386.5 -85t252.5 -255.5t89 -419.5t-89 -419t-252.5 -255.5t-386.5 -85.5t-386 85zM1052.5 395.5q85.5 107.5 85.5 337.5q0 239 -85.5 349t-249.5 110q-163 0 -248.5 -107t-85.5 -338q0 -241 84.5 -350
t249.5 -109q164 0 249.5 107.5zM1220 1590h-279l-138 175l-139 -175h-279l260 310h316z" />
    <glyph glyph-name="Otilde" unicode="&#xd5;" horiz-adv-x="1606" 
d="M417 65q-163 85 -252 255t-89 420t89 420t252 255t386 85t386.5 -85t252.5 -255.5t89 -419.5t-89 -419t-252.5 -255.5t-386.5 -85.5t-386 85zM1052.5 395.5q85.5 107.5 85.5 337.5q0 239 -85.5 349t-249.5 110q-163 0 -248.5 -107t-85.5 -338q0 -241 84.5 -350
t249.5 -109q164 0 249.5 107.5zM887.5 1611q-43.5 10 -102.5 30q-56 18 -92 27t-76 9q-62 0 -110 -16.5t-99 -53.5v210q43 39 94.5 57t121.5 18q50 0 92 -10t104 -31q54 -19 91 -28t77 -9q62 0 110 16.5t99 53.5v-210q-42 -38 -93 -55.5t-123 -17.5q-50 0 -93.5 10z" />
    <glyph glyph-name="Odieresis" unicode="&#xd6;" horiz-adv-x="1606" 
d="M417 65q-163 85 -252 255t-89 420t89 420t252 255t386 85t386.5 -85t252.5 -255.5t89 -419.5t-89 -419t-252.5 -255.5t-386.5 -85.5t-386 85zM1052.5 395.5q85.5 107.5 85.5 337.5q0 239 -85.5 349t-249.5 110q-163 0 -248.5 -107t-85.5 -338q0 -241 84.5 -350
t249.5 -109q164 0 249.5 107.5zM390.5 1629.5q-49.5 42.5 -49.5 120.5q0 79 49.5 121.5t146.5 42.5t147 -42.5t50 -121.5q0 -78 -50 -120.5t-147 -42.5t-146.5 42.5zM921 1629.5q-50 42.5 -50 120.5q0 79 50 121.5t147 42.5t146.5 -42.5t49.5 -121.5q0 -78 -49.5 -120.5
t-146.5 -42.5t-147 42.5z" />
    <glyph glyph-name="multiply" unicode="&#xd7;" horiz-adv-x="1056" 
d="M277 308l-201 201l251 251l-251 251l201 201l251 -251l251 251l201 -201l-251 -251l251 -251l-201 -201l-251 251z" />
    <glyph glyph-name="Oslash" unicode="&#xd8;" horiz-adv-x="1606" 
d="M1486 1052q45 -137 45 -312q0 -249 -89 -419t-252.5 -255.5t-386.5 -85.5q-235 0 -402 93l-102 -129l-153 121l103 131q-85 96 -129 232.5t-44 311.5q0 250 89 420t252 255t386 85q236 0 402 -93l102 129l152 -121l-103 -130q85 -96 130 -233zM498 511l496 628
q-77 53 -191 53q-163 0 -248.5 -107t-85.5 -338q0 -140 29 -236zM1052.5 395.5q85.5 107.5 85.5 337.5q0 141 -30 237l-497 -630q75 -52 192 -52q164 0 249.5 107.5z" />
    <glyph glyph-name="Ugrave" unicode="&#xd9;" horiz-adv-x="1523" 
d="M272 140.5q-158 160.5 -158 491.5v848h384v-884q0 -158 66.5 -230.5t201.5 -72.5t201 72.5t66 230.5v884h376v-848q0 -330 -156 -491t-487 -161q-336 0 -494 160.5zM596 1590l-237 310h394l182 -310h-339z" />
    <glyph glyph-name="Uacute" unicode="&#xda;" horiz-adv-x="1523" 
d="M272 140.5q-158 160.5 -158 491.5v848h384v-884q0 -158 66.5 -230.5t201.5 -72.5t201 72.5t66 230.5v884h376v-848q0 -330 -156 -491t-487 -161q-336 0 -494 160.5zM595 1590l181 310h394l-237 -310h-338z" />
    <glyph glyph-name="Ucircumflex" unicode="&#xdb;" horiz-adv-x="1523" 
d="M272 140.5q-158 160.5 -158 491.5v848h384v-884q0 -158 66.5 -230.5t201.5 -72.5t201 72.5t66 230.5v884h376v-848q0 -330 -156 -491t-487 -161q-336 0 -494 160.5zM1183 1590h-279l-138 175l-139 -175h-279l260 310h316z" />
    <glyph glyph-name="Udieresis" unicode="&#xdc;" horiz-adv-x="1523" 
d="M272 140.5q-158 160.5 -158 491.5v848h384v-884q0 -158 66.5 -230.5t201.5 -72.5t201 72.5t66 230.5v884h376v-848q0 -330 -156 -491t-487 -161q-336 0 -494 160.5zM353.5 1629.5q-49.5 42.5 -49.5 120.5q0 79 49.5 121.5t146.5 42.5t147 -42.5t50 -121.5
q0 -78 -50 -120.5t-147 -42.5t-146.5 42.5zM884 1629.5q-50 42.5 -50 120.5q0 79 50 121.5t147 42.5t146.5 -42.5t49.5 -121.5q0 -78 -49.5 -120.5t-146.5 -42.5t-147 42.5z" />
    <glyph glyph-name="Yacute" unicode="&#xdd;" horiz-adv-x="1325" 
d="M1372 1480l-515 -862v-618h-384v614l-532 866h404l328 -543l324 543h375zM492 1590l181 310h394l-237 -310h-338z" />
    <glyph glyph-name="Thorn" unicode="&#xde;" horiz-adv-x="1357" 
d="M120 1480h384v-179q67 5 95 5q343 0 512 -132.5t169 -413.5q0 -270 -164.5 -407.5t-483.5 -137.5q-31 0 -87 2l-41 1v-218h-384v1480zM842 560q66 60 66 198t-67.5 200.5t-211.5 62.5q-69 0 -125 -10v-504q60 -7 128 -7q144 0 210 60z" />
    <glyph glyph-name="germandbls" unicode="&#xdf;" horiz-adv-x="1632" 
d="M1515 563q75 -75 75 -220q0 -113 -62 -195t-182 -125.5t-292 -43.5q-84 0 -175.5 10.5t-169.5 30.5v272q74 -20 166.5 -31.5t173.5 -11.5q107 0 150 20.5t43 60.5q0 29 -16.5 44t-57.5 22l-189 33q-155 28 -228 107t-73 216q0 165 129 257t378 95v14q0 135 -76 198.5
t-210 63.5q-167 0 -247 -88.5t-80 -272.5v-1019h-376v798h-169v299h173q16 169 100 290t229 185t340 64q176 0 306 -59t202 -181.5t72 -308.5q0 -113 -36 -250q-75 8 -158 8q-132 0 -180.5 -23t-48.5 -62q0 -25 17 -39.5t58 -22.5l188 -33q151 -27 226 -102z" />
    <glyph glyph-name="agrave" unicode="&#xe0;" horiz-adv-x="1149" 
d="M823 1068.5q116 -46.5 171 -152.5t55 -288v-628h-308l-26 104h-17q-46 -64 -118 -94.5t-163 -30.5q-113 0 -195.5 41t-125.5 114t-43 169q0 162 114.5 250.5t361.5 103.5l154 10q-2 62 -25.5 98t-74 52t-138.5 16q-67 0 -147.5 -11t-150.5 -32v279q82 22 180.5 34
t187.5 12q192 0 308 -46.5zM617 247q36 11 66 35v181l-114 -8q-76 -5 -111.5 -34.5t-35.5 -81.5q0 -50 31.5 -76.5t90.5 -26.5q37 0 73 11zM399 1226l-283 390h397l229 -390h-343z" />
    <glyph glyph-name="aacute" unicode="&#xe1;" horiz-adv-x="1149" 
d="M823 1068.5q116 -46.5 171 -152.5t55 -288v-628h-308l-26 104h-17q-46 -64 -118 -94.5t-163 -30.5q-113 0 -195.5 41t-125.5 114t-43 169q0 162 114.5 250.5t361.5 103.5l154 10q-2 62 -25.5 98t-74 52t-138.5 16q-67 0 -147.5 -11t-150.5 -32v279q82 22 180.5 34
t187.5 12q192 0 308 -46.5zM617 247q36 11 66 35v181l-114 -8q-76 -5 -111.5 -34.5t-35.5 -81.5q0 -50 31.5 -76.5t90.5 -26.5q37 0 73 11zM399 1226l229 390h397l-283 -390h-343z" />
    <glyph glyph-name="acircumflex" unicode="&#xe2;" horiz-adv-x="1149" 
d="M823 1068.5q116 -46.5 171 -152.5t55 -288v-628h-308l-26 104h-17q-46 -64 -118 -94.5t-163 -30.5q-113 0 -195.5 41t-125.5 114t-43 169q0 162 114.5 250.5t361.5 103.5l154 10q-2 62 -25.5 98t-74 52t-138.5 16q-67 0 -147.5 -11t-150.5 -32v279q82 22 180.5 34
t187.5 12q192 0 308 -46.5zM617 247q36 11 66 35v181l-114 -8q-76 -5 -111.5 -34.5t-35.5 -81.5q0 -50 31.5 -76.5t90.5 -26.5q37 0 73 11zM959 1226h-265l-123 218l-124 -218h-264l236 390h303z" />
    <glyph glyph-name="atilde" unicode="&#xe3;" horiz-adv-x="1149" 
d="M823 1068.5q116 -46.5 171 -152.5t55 -288v-628h-308l-26 104h-17q-46 -64 -118 -94.5t-163 -30.5q-113 0 -195.5 41t-125.5 114t-43 169q0 162 114.5 250.5t361.5 103.5l154 10q-2 62 -25.5 98t-74 52t-138.5 16q-67 0 -147.5 -11t-150.5 -32v279q82 22 180.5 34
t187.5 12q192 0 308 -46.5zM617 247q36 11 66 35v181l-114 -8q-76 -5 -111.5 -34.5t-35.5 -81.5q0 -50 31.5 -76.5t90.5 -26.5q37 0 73 11zM649.5 1277q-39.5 13 -96.5 38q-52 23 -85 34t-68 11q-58 0 -105 -21t-96 -68v230q42 42 92 61.5t116 19.5q45 0 84.5 -13t96.5 -38
q52 -23 85 -34t68 -11q58 0 105 21t96 67v-229q-42 -42 -92 -61.5t-116 -19.5q-45 0 -84.5 13z" />
    <glyph glyph-name="adieresis" unicode="&#xe4;" horiz-adv-x="1149" 
d="M823 1068.5q116 -46.5 171 -152.5t55 -288v-628h-308l-26 104h-17q-46 -64 -118 -94.5t-163 -30.5q-113 0 -195.5 41t-125.5 114t-43 169q0 162 114.5 250.5t361.5 103.5l154 10q-2 62 -25.5 98t-74 52t-138.5 16q-67 0 -147.5 -11t-150.5 -32v279q82 22 180.5 34
t187.5 12q192 0 308 -46.5zM617 247q36 11 66 35v181l-114 -8q-76 -5 -111.5 -34.5t-35.5 -81.5q0 -50 31.5 -76.5t90.5 -26.5q37 0 73 11zM169 1283.5q-51 48.5 -51 135.5q0 86 51 134.5t147 48.5q95 0 146 -48.5t51 -134.5q0 -87 -51 -135.5t-146 -48.5q-96 0 -147 48.5z
M679 1283.5q-51 48.5 -51 135.5q0 86 51 134.5t146 48.5q96 0 147 -48.5t51 -134.5q0 -87 -51 -135.5t-147 -48.5q-95 0 -146 48.5z" />
    <glyph glyph-name="aring" unicode="&#xe5;" horiz-adv-x="1149" 
d="M823 1068.5q116 -46.5 171 -152.5t55 -288v-628h-308l-26 104h-17q-46 -64 -118 -94.5t-163 -30.5q-113 0 -195.5 41t-125.5 114t-43 169q0 162 114.5 250.5t361.5 103.5l154 10q-2 62 -25.5 98t-74 52t-138.5 16q-67 0 -147.5 -11t-150.5 -32v279q82 22 180.5 34
t187.5 12q192 0 308 -46.5zM617 247q36 11 66 35v181l-114 -8q-76 -5 -111.5 -34.5t-35.5 -81.5q0 -50 31.5 -76.5t90.5 -26.5q37 0 73 11zM456.5 1247.5q-50.5 27.5 -79 76.5t-28.5 111t28.5 111t79 76.5t114.5 27.5q63 0 113.5 -27.5t79 -76.5t28.5 -111t-28.5 -111
t-79 -76.5t-113.5 -27.5q-64 0 -114.5 27.5zM632.5 1370.5q23.5 24.5 23.5 64.5q0 41 -23.5 65t-61.5 24q-39 0 -62.5 -24t-23.5 -65q0 -40 24 -64.5t62 -24.5t61.5 24.5z" />
    <glyph glyph-name="ae" unicode="&#xe6;" horiz-adv-x="1745" 
d="M1695 442h-645q6 -69 35 -108.5t93 -57t176 -17.5q121 0 278 32v-278q-165 -34 -330 -34q-171 0 -290.5 37t-194.5 114q-141 -151 -365 -151q-130 0 -219.5 40.5t-134.5 114t-45 172.5q0 163 118 255t364 92h151q0 68 -24 107t-76.5 56t-142.5 17q-66 0 -145.5 -11
t-149.5 -32v279q174 46 350 46q140 0 236.5 -30.5t155.5 -95.5q61 61 145 93.5t186 32.5q149 0 255.5 -66.5t162.5 -196t56 -314.5v-96zM1088 830q-37 -52 -39 -177h298q-2 126 -37.5 177.5t-109.5 51.5q-75 0 -112 -52zM637 252.5q41 15.5 81 52.5q-20 62 -28 145h-116
q-152 0 -152 -113q0 -49 32.5 -74.5t93.5 -25.5q48 0 89 15.5z" />
    <glyph glyph-name="ccedilla" unicode="&#xe7;" horiz-adv-x="993" 
d="M517.5 751q-70.5 -63 -70.5 -202q0 -143 67 -206.5t205 -63.5q50 0 100.5 8t123.5 25v-293q-59 -19 -131 -29.5t-147 -10.5v-61q81 -16 123 -62.5t42 -118.5q0 -89 -68.5 -139t-203.5 -50q-97 0 -185 30v139q37 -15 83 -22.5t84 -7.5q49 0 73 15.5t24 50.5q0 68 -98 68
h-49v172q-211 38 -320 177t-109 376q0 284 162 426.5t467 142.5q140 0 253 -25v-294q-105 18 -199 18q-156 0 -226.5 -63z" />
    <glyph glyph-name="egrave" unicode="&#xe8;" horiz-adv-x="1138" 
d="M1088 442h-653q6 -69 35.5 -108.5t95 -57t181.5 -17.5q120 0 278 32v-278q-165 -34 -332 -34q-221 0 -360 59.5t-205.5 185t-66.5 325.5q0 178 61.5 305t180.5 194t290 67q243 0 369 -149.5t126 -428.5v-95zM473.5 830q-37.5 -52 -39.5 -177h306q-2 125 -38.5 177
t-112.5 52q-78 0 -115.5 -52zM414 1226l-283 390h397l229 -390h-343z" />
    <glyph glyph-name="eacute" unicode="&#xe9;" horiz-adv-x="1138" 
d="M1088 442h-653q6 -69 35.5 -108.5t95 -57t181.5 -17.5q120 0 278 32v-278q-165 -34 -332 -34q-221 0 -360 59.5t-205.5 185t-66.5 325.5q0 178 61.5 305t180.5 194t290 67q243 0 369 -149.5t126 -428.5v-95zM473.5 830q-37.5 -52 -39.5 -177h306q-2 125 -38.5 177
t-112.5 52q-78 0 -115.5 -52zM414 1226l229 390h397l-283 -390h-343z" />
    <glyph glyph-name="ecircumflex" unicode="&#xea;" horiz-adv-x="1138" 
d="M1088 442h-653q6 -69 35.5 -108.5t95 -57t181.5 -17.5q120 0 278 32v-278q-165 -34 -332 -34q-221 0 -360 59.5t-205.5 185t-66.5 325.5q0 178 61.5 305t180.5 194t290 67q243 0 369 -149.5t126 -428.5v-95zM473.5 830q-37.5 -52 -39.5 -177h306q-2 125 -38.5 177
t-112.5 52q-78 0 -115.5 -52zM974 1226h-265l-123 218l-124 -218h-264l236 390h303z" />
    <glyph glyph-name="edieresis" unicode="&#xeb;" horiz-adv-x="1138" 
d="M1088 442h-653q6 -69 35.5 -108.5t95 -57t181.5 -17.5q120 0 278 32v-278q-165 -34 -332 -34q-221 0 -360 59.5t-205.5 185t-66.5 325.5q0 178 61.5 305t180.5 194t290 67q243 0 369 -149.5t126 -428.5v-95zM473.5 830q-37.5 -52 -39.5 -177h306q-2 125 -38.5 177
t-112.5 52q-78 0 -115.5 -52zM184 1283.5q-51 48.5 -51 135.5q0 86 51 134.5t147 48.5q95 0 146 -48.5t51 -134.5q0 -87 -51 -135.5t-146 -48.5q-96 0 -147 48.5zM694 1283.5q-51 48.5 -51 135.5q0 86 51 134.5t146 48.5q96 0 147 -48.5t51 -134.5q0 -87 -51 -135.5
t-147 -48.5q-95 0 -146 48.5z" />
    <glyph glyph-name="igrave" unicode="&#xec;" horiz-adv-x="591" 
d="M107 0v1097h377v-1097h-377zM123 1226l-283 390h397l229 -390h-343z" />
    <glyph glyph-name="iacute" unicode="&#xed;" horiz-adv-x="591" 
d="M107 0v1097h377v-1097h-377zM123 1226l229 390h397l-283 -390h-343z" />
    <glyph glyph-name="icircumflex" unicode="&#xee;" horiz-adv-x="591" 
d="M107 0v1097h377v-1097h-377zM683 1226h-265l-123 218l-124 -218h-264l236 390h303z" />
    <glyph glyph-name="idieresis" unicode="&#xef;" horiz-adv-x="591" 
d="M107 0v1097h377v-1097h-377zM-107 1283.5q-51 48.5 -51 135.5q0 86 51 134.5t147 48.5q95 0 146 -48.5t51 -134.5q0 -87 -51 -135.5t-146 -48.5q-96 0 -147 48.5zM403 1283.5q-51 48.5 -51 135.5q0 86 51 134.5t146 48.5q96 0 147 -48.5t51 -134.5q0 -87 -51 -135.5
t-147 -48.5q-95 0 -146 48.5z" />
    <glyph glyph-name="eth" unicode="&#xf0;" horiz-adv-x="1238" 
d="M1118.5 969q61.5 -179 61.5 -351q0 -325 -144.5 -483t-416.5 -158q-174 0 -299.5 64.5t-192 192t-66.5 311.5q0 186 64.5 311.5t182 187.5t275.5 62q65 0 117 -17q-38 75 -97 156l-423 -77l-40 200l308 56q-105 104 -228 192h442q74 -56 142 -127l303 55l40 -200
l-198 -36q108 -160 169.5 -339zM720.5 285.5q39.5 26.5 59.5 88.5t20 168q0 109 -20.5 172.5t-60 90.5t-100.5 27t-100.5 -26.5t-60 -89.5t-20.5 -171t20 -170.5t59.5 -89t101.5 -26.5t101.5 26.5z" />
    <glyph glyph-name="ntilde" unicode="&#xf1;" horiz-adv-x="1254" 
d="M107 1097h309l25 -107h17q58 61 138.5 93t175.5 32q176 0 279 -108.5t103 -337.5v-669h-376v645q0 81 -32.5 114.5t-96.5 33.5q-47 0 -92 -18.5t-74 -51.5v-723h-376v1097zM709.5 1277q-39.5 13 -96.5 38q-52 23 -85 34t-68 11q-58 0 -105 -21t-96 -68v230q42 42 92 61.5
t116 19.5q45 0 84.5 -13t96.5 -38q52 -23 85 -34t68 -11q58 0 105 21t96 67v-229q-42 -42 -92 -61.5t-116 -19.5q-45 0 -84.5 13z" />
    <glyph glyph-name="ograve" unicode="&#xf2;" horiz-adv-x="1238" 
d="M320.5 43q-125.5 64 -192.5 191t-67 311q0 281 145 425.5t413 144.5q177 0 302 -64.5t190.5 -192t65.5 -311.5q0 -185 -67 -312t-192.5 -191.5t-298.5 -64.5t-298.5 64zM719.5 286q39.5 26 60 88.5t20.5 170.5q0 109 -20.5 172.5t-60 89.5t-100.5 26t-100.5 -26t-60 -89
t-20.5 -171q0 -109 20.5 -172t60 -89t100.5 -26t100.5 26zM447 1226l-283 390h397l229 -390h-343z" />
    <glyph glyph-name="oacute" unicode="&#xf3;" horiz-adv-x="1238" 
d="M320.5 43q-125.5 64 -192.5 191t-67 311q0 281 145 425.5t413 144.5q177 0 302 -64.5t190.5 -192t65.5 -311.5q0 -185 -67 -312t-192.5 -191.5t-298.5 -64.5t-298.5 64zM719.5 286q39.5 26 60 88.5t20.5 170.5q0 109 -20.5 172.5t-60 89.5t-100.5 26t-100.5 -26t-60 -89
t-20.5 -171q0 -109 20.5 -172t60 -89t100.5 -26t100.5 26zM447 1226l229 390h397l-283 -390h-343z" />
    <glyph glyph-name="ocircumflex" unicode="&#xf4;" horiz-adv-x="1238" 
d="M320.5 43q-125.5 64 -192.5 191t-67 311q0 281 145 425.5t413 144.5q177 0 302 -64.5t190.5 -192t65.5 -311.5q0 -185 -67 -312t-192.5 -191.5t-298.5 -64.5t-298.5 64zM719.5 286q39.5 26 60 88.5t20.5 170.5q0 109 -20.5 172.5t-60 89.5t-100.5 26t-100.5 -26t-60 -89
t-20.5 -171q0 -109 20.5 -172t60 -89t100.5 -26t100.5 26zM1007 1226h-265l-123 218l-124 -218h-264l236 390h303z" />
    <glyph glyph-name="otilde" unicode="&#xf5;" horiz-adv-x="1238" 
d="M320.5 43q-125.5 64 -192.5 191t-67 311q0 281 145 425.5t413 144.5q177 0 302 -64.5t190.5 -192t65.5 -311.5q0 -185 -67 -312t-192.5 -191.5t-298.5 -64.5t-298.5 64zM719.5 286q39.5 26 60 88.5t20.5 170.5q0 109 -20.5 172.5t-60 89.5t-100.5 26t-100.5 -26t-60 -89
t-20.5 -171q0 -109 20.5 -172t60 -89t100.5 -26t100.5 26zM697.5 1277q-39.5 13 -96.5 38q-52 23 -85 34t-68 11q-58 0 -105 -21t-96 -68v230q42 42 92 61.5t116 19.5q45 0 84.5 -13t96.5 -38q52 -23 85 -34t68 -11q58 0 105 21t96 67v-229q-42 -42 -92 -61.5t-116 -19.5
q-45 0 -84.5 13z" />
    <glyph glyph-name="odieresis" unicode="&#xf6;" horiz-adv-x="1238" 
d="M320.5 43q-125.5 64 -192.5 191t-67 311q0 281 145 425.5t413 144.5q177 0 302 -64.5t190.5 -192t65.5 -311.5q0 -185 -67 -312t-192.5 -191.5t-298.5 -64.5t-298.5 64zM719.5 286q39.5 26 60 88.5t20.5 170.5q0 109 -20.5 172.5t-60 89.5t-100.5 26t-100.5 -26t-60 -89
t-20.5 -171q0 -109 20.5 -172t60 -89t100.5 -26t100.5 26zM217 1283.5q-51 48.5 -51 135.5q0 86 51 134.5t147 48.5q95 0 146 -48.5t51 -134.5q0 -87 -51 -135.5t-146 -48.5q-96 0 -147 48.5zM727 1283.5q-51 48.5 -51 135.5q0 86 51 134.5t146 48.5q96 0 147 -48.5
t51 -134.5q0 -87 -51 -135.5t-147 -48.5q-95 0 -146 48.5z" />
    <glyph glyph-name="divide" unicode="&#xf7;" horiz-adv-x="1109" 
d="M396 1034q-59 54 -59 148t58 147.5t160 53.5q100 0 158.5 -55t58.5 -146q0 -60 -27 -106t-76 -71t-114 -25q-100 0 -159 54zM106 618v284h897v-284h-897zM396 191q-59 54 -59 147q0 94 58 148t160 54q101 0 159 -55t58 -147q0 -60 -27 -105.5t-76 -70.5t-114 -25
q-100 0 -159 54z" />
    <glyph glyph-name="oslash" unicode="&#xf8;" horiz-adv-x="1238" 
d="M1140.5 789.5q36.5 -105.5 36.5 -242.5q0 -185 -67 -312t-192.5 -191.5t-298.5 -64.5q-151 0 -265 48l-70 -95l-148 110l66 89q-141 147 -141 414q0 281 145 425.5t413 144.5q151 0 262 -46l70 96l147 -110l-64 -88q70 -72 106.5 -177.5zM513 811.5q-42 -26.5 -64 -90.5
t-22 -174q0 -71 9 -122l282 391q-39 22 -99 22q-64 0 -106 -26.5zM726 281.5q42 26.5 63.5 90t21.5 173.5q0 71 -10 129l-285 -395q40 -24 103 -24q65 0 107 26.5z" />
    <glyph glyph-name="ugrave" unicode="&#xf9;" horiz-adv-x="1244" 
d="M204 88.5q-104 107.5 -104 336.5v672h376v-645q0 -81 31.5 -115t91.5 -34q44 0 89 18.5t73 51.5v724h376v-1097h-309l-25 107h-15q-61 -62 -137.5 -94t-163.5 -32q-179 0 -283 107.5zM447 1226l-283 390h397l229 -390h-343z" />
    <glyph glyph-name="uacute" unicode="&#xfa;" horiz-adv-x="1244" 
d="M204 88.5q-104 107.5 -104 336.5v672h376v-645q0 -81 31.5 -115t91.5 -34q44 0 89 18.5t73 51.5v724h376v-1097h-309l-25 107h-15q-61 -62 -137.5 -94t-163.5 -32q-179 0 -283 107.5zM447 1226l229 390h397l-283 -390h-343z" />
    <glyph glyph-name="ucircumflex" unicode="&#xfb;" horiz-adv-x="1244" 
d="M204 88.5q-104 107.5 -104 336.5v672h376v-645q0 -81 31.5 -115t91.5 -34q44 0 89 18.5t73 51.5v724h376v-1097h-309l-25 107h-15q-61 -62 -137.5 -94t-163.5 -32q-179 0 -283 107.5zM1007 1226h-265l-123 218l-124 -218h-264l236 390h303z" />
    <glyph glyph-name="udieresis" unicode="&#xfc;" horiz-adv-x="1244" 
d="M204 88.5q-104 107.5 -104 336.5v672h376v-645q0 -81 31.5 -115t91.5 -34q44 0 89 18.5t73 51.5v724h376v-1097h-309l-25 107h-15q-61 -62 -137.5 -94t-163.5 -32q-179 0 -283 107.5zM217 1283.5q-51 48.5 -51 135.5q0 86 51 134.5t147 48.5q95 0 146 -48.5t51 -134.5
q0 -87 -51 -135.5t-146 -48.5q-96 0 -147 48.5zM727 1283.5q-51 48.5 -51 135.5q0 86 51 134.5t146 48.5q96 0 147 -48.5t51 -134.5q0 -87 -51 -135.5t-147 -48.5q-95 0 -146 48.5z" />
    <glyph glyph-name="yacute" unicode="&#xfd;" horiz-adv-x="1205" 
d="M843 1097h369l-527 -1537h-367l152 440h-102l-375 1097h392l228 -756zM431 1226l229 390h397l-283 -390h-343z" />
    <glyph glyph-name="thorn" unicode="&#xfe;" horiz-adv-x="1266" 
d="M107 1616h376v-623h17q48 59 118 90.5t160 31.5q119 0 216 -59.5t154.5 -182t57.5 -303.5q0 -286 -157 -438.5t-457 -152.5q-43 0 -109 6v-425h-376v2056zM770.5 327q57.5 65 57.5 214t-50 208.5t-147 59.5q-42 0 -81 -12.5t-67 -36.5v-488q60 -10 108 -10
q122 0 179.5 65z" />
    <glyph glyph-name="ydieresis" unicode="&#xff;" horiz-adv-x="1205" 
d="M843 1097h369l-527 -1537h-367l152 440h-102l-375 1097h392l228 -756zM201 1283.5q-51 48.5 -51 135.5q0 86 51 134.5t147 48.5q95 0 146 -48.5t51 -134.5q0 -87 -51 -135.5t-146 -48.5q-96 0 -147 48.5zM711 1283.5q-51 48.5 -51 135.5q0 86 51 134.5t146 48.5
q96 0 147 -48.5t51 -134.5q0 -87 -51 -135.5t-147 -48.5q-95 0 -146 48.5z" />
    <glyph glyph-name="Amacron" unicode="&#x100;" horiz-adv-x="1497" 
d="M1113 0l-107 365h-519l-106 -365h-372l459 1480h562l459 -1480h-376zM575 667h343l-172 586zM357 1635v222h781v-222h-781z" />
    <glyph glyph-name="amacron" unicode="&#x101;" horiz-adv-x="1149" 
d="M823 1068.5q116 -46.5 171 -152.5t55 -288v-628h-308l-26 104h-17q-46 -64 -118 -94.5t-163 -30.5q-113 0 -195.5 41t-125.5 114t-43 169q0 162 114.5 250.5t361.5 103.5l154 10q-2 62 -25.5 98t-74 52t-138.5 16q-67 0 -147.5 -11t-150.5 -32v279q82 22 180.5 34
t187.5 12q192 0 308 -46.5zM617 247q36 11 66 35v181l-114 -8q-76 -5 -111.5 -34.5t-35.5 -81.5q0 -50 31.5 -76.5t90.5 -26.5q37 0 73 11zM199 1309v221h743v-221h-743z" />
    <glyph glyph-name="Abreve" unicode="&#x102;" horiz-adv-x="1497" 
d="M1113 0l-107 365h-519l-106 -365h-372l459 1480h562l459 -1480h-376zM575 667h343l-172 586zM462 1673q-102 81 -120 223h226q12 -63 55.5 -94.5t124.5 -31.5q80 0 123.5 31.5t55.5 94.5h226q-18 -142 -120 -223t-285 -81q-184 0 -286 81z" />
    <glyph glyph-name="abreve" unicode="&#x103;" horiz-adv-x="1149" 
d="M823 1068.5q116 -46.5 171 -152.5t55 -288v-628h-308l-26 104h-17q-46 -64 -118 -94.5t-163 -30.5q-113 0 -195.5 41t-125.5 114t-43 169q0 162 114.5 250.5t361.5 103.5l154 10q-2 62 -25.5 98t-74 52t-138.5 16q-67 0 -147.5 -11t-150.5 -32v279q82 22 180.5 34
t187.5 12q192 0 308 -46.5zM617 247q36 11 66 35v181l-114 -8q-76 -5 -111.5 -34.5t-35.5 -81.5q0 -50 31.5 -76.5t90.5 -26.5q37 0 73 11zM294 1327q-100 92 -110 268h224q7 -88 47 -131t116 -43t115.5 42.5t46.5 131.5h225q-10 -177 -110 -268.5t-277 -91.5t-277 92z" />
    <glyph glyph-name="Aogonek" unicode="&#x104;" horiz-adv-x="1497" 
d="M1526 -279v-141q-88 -32 -189 -32q-148 0 -223 57.5t-75 159.5q0 71 38 129t123 106h-87l-107 365h-519l-106 -365h-372l459 1480h562l459 -1480q-133 -48 -185.5 -98.5t-52.5 -110.5q0 -98 139 -98q60 0 136 28zM575 667h343l-172 586z" />
    <glyph glyph-name="aogonek" unicode="&#x105;" horiz-adv-x="1149" 
d="M1073 -279v-141q-42 -15 -83 -23.5t-93 -8.5q-135 0 -206.5 58t-71.5 159q0 71 35 129t115 106h-28l-26 104h-17q-46 -64 -118 -94.5t-163 -30.5q-113 0 -195.5 41t-125.5 114t-43 169q0 162 114.5 250.5t361.5 103.5l154 10q-2 62 -25.5 98t-74 52t-138.5 16
q-67 0 -147.5 -11t-150.5 -32v279q82 22 180.5 34t187.5 12q192 0 308 -46.5t171 -152.5t55 -288v-628q-122 -47 -170 -97.5t-48 -113.5q0 -45 30.5 -70.5t88.5 -25.5q54 0 123 28zM617 247q36 11 66 35v181l-114 -8q-76 -5 -111.5 -34.5t-35.5 -81.5q0 -50 31.5 -76.5
t90.5 -26.5q37 0 73 11z" />
    <glyph glyph-name="Cacute" unicode="&#x106;" horiz-adv-x="1268" 
d="M281 165q-205 185 -205 571q0 249 95.5 419.5t280 257.5t449.5 87q167 0 317 -33v-313q-142 30 -285 30q-158 0 -258 -46t-149 -143.5t-49 -254.5q0 -159 48 -256.5t145.5 -142.5t251.5 -45q140 0 296 43v-313q-71 -21 -159 -33.5t-174 -12.5q-399 0 -604 185zM598 1590
l181 310h394l-237 -310h-338z" />
    <glyph glyph-name="cacute" unicode="&#x107;" horiz-adv-x="993" 
d="M214 122q-153 143 -153 424q0 284 162 426.5t467 142.5q140 0 253 -25v-294q-105 18 -199 18q-156 0 -226.5 -63t-70.5 -202q0 -143 67 -206.5t205 -63.5q50 0 100.5 8t123.5 25v-293q-60 -19 -133.5 -29.5t-149.5 -10.5q-293 0 -446 143zM374 1226l229 390h397
l-283 -390h-343z" />
    <glyph glyph-name="Ccircumflex" unicode="&#x108;" horiz-adv-x="1268" 
d="M281 165q-205 185 -205 571q0 249 95.5 419.5t280 257.5t449.5 87q167 0 317 -33v-313q-142 30 -285 30q-158 0 -258 -46t-149 -143.5t-49 -254.5q0 -159 48 -256.5t145.5 -142.5t251.5 -45q140 0 296 43v-313q-71 -21 -159 -33.5t-174 -12.5q-399 0 -604 185zM1186 1590
h-279l-138 175l-139 -175h-279l260 310h316z" />
    <glyph glyph-name="ccircumflex" unicode="&#x109;" horiz-adv-x="993" 
d="M214 122q-153 143 -153 424q0 284 162 426.5t467 142.5q140 0 253 -25v-294q-105 18 -199 18q-156 0 -226.5 -63t-70.5 -202q0 -143 67 -206.5t205 -63.5q50 0 100.5 8t123.5 25v-293q-60 -19 -133.5 -29.5t-149.5 -10.5q-293 0 -446 143zM934 1226h-265l-123 218
l-124 -218h-264l236 390h303z" />
    <glyph glyph-name="Cdotaccent" unicode="&#x10a;" horiz-adv-x="1268" 
d="M281 165q-205 185 -205 571q0 249 95.5 419.5t280 257.5t449.5 87q167 0 317 -33v-313q-142 30 -285 30q-158 0 -258 -46t-149 -143.5t-49 -254.5q0 -159 48 -256.5t145.5 -142.5t251.5 -45q140 0 296 43v-313q-71 -21 -159 -33.5t-174 -12.5q-399 0 -604 185z
M600 1629.5q-57 42.5 -57 120.5q0 79 57 121.5t169 42.5q111 0 168 -42.5t57 -121.5q0 -78 -57 -120.5t-168 -42.5q-112 0 -169 42.5z" />
    <glyph glyph-name="cdotaccent" unicode="&#x10b;" horiz-adv-x="993" 
d="M214 122q-153 143 -153 424q0 284 162 426.5t467 142.5q140 0 253 -25v-294q-105 18 -199 18q-156 0 -226.5 -63t-70.5 -202q0 -143 67 -206.5t205 -63.5q50 0 100.5 8t123.5 25v-293q-60 -19 -133.5 -29.5t-149.5 -10.5q-293 0 -446 143zM374 1277.5q-56 48.5 -56 141.5
q0 92 56 140.5t172 48.5q115 0 171 -48.5t56 -140.5q0 -93 -56 -141.5t-171 -48.5q-116 0 -172 48.5z" />
    <glyph glyph-name="Ccaron" unicode="&#x10c;" horiz-adv-x="1268" 
d="M281 165q-205 185 -205 571q0 249 95.5 419.5t280 257.5t449.5 87q167 0 317 -33v-313q-142 30 -285 30q-158 0 -258 -46t-149 -143.5t-49 -254.5q0 -159 48 -256.5t145.5 -142.5t251.5 -45q140 0 296 43v-313q-71 -21 -159 -33.5t-174 -12.5q-399 0 -604 185zM907 1900
h279l-259 -310h-316l-260 310h279l139 -175z" />
    <glyph glyph-name="ccaron" unicode="&#x10d;" horiz-adv-x="993" 
d="M214 122q-153 143 -153 424q0 284 162 426.5t467 142.5q140 0 253 -25v-294q-105 18 -199 18q-156 0 -226.5 -63t-70.5 -202q0 -143 67 -206.5t205 -63.5q50 0 100.5 8t123.5 25v-293q-60 -19 -133.5 -29.5t-149.5 -10.5q-293 0 -446 143zM670 1616h264l-237 -390h-303
l-237 390h265l124 -218z" />
    <glyph glyph-name="Dcaron" unicode="&#x10e;" horiz-adv-x="1536" 
d="M334 -10q-113 6 -214 18v1436q110 24 242 38.5t257 14.5q421 0 631 -185.5t210 -571.5q0 -265 -100 -432t-302 -245.5t-512 -78.5q-99 0 -212 6zM884.5 337.5q91.5 44.5 137 143t45.5 261.5q0 160 -47 259t-139 143.5t-233 44.5q-33 0 -73 -3.5t-71 -9.5v-878
q62 -5 145 -5q144 0 235.5 44.5zM822 1900h279l-259 -310h-316l-260 310h279l139 -175z" />
    <glyph glyph-name="dcaron" unicode="&#x10f;" horiz-adv-x="1266" 
d="M286 38q-103 58 -164 180.5t-61 307.5q0 285 156.5 437.5t456.5 152.5q45 0 109 -6v506h376v-1616h-315l-23 114h-16q-48 -63 -121 -98.5t-167 -35.5q-128 0 -231 58zM714.5 298.5q40.5 13.5 68.5 39.5v485q-50 10 -108 10q-121 0 -179 -65t-58 -214q0 -148 49.5 -208.5
t143.5 -60.5q43 0 83.5 13.5zM1246 1392.5q7 101.5 7 223.5h246q0 -122 -20.5 -236t-56.5 -200h-201q18 111 25 212.5z" />
    <glyph glyph-name="Dcroat" unicode="&#x110;" horiz-adv-x="1536" 
d="M1250 1311.5q210 -185.5 210 -571.5q0 -265 -100 -432t-302 -245.5t-512 -78.5q-99 0 -212 6t-214 18v634h-116v241h116v561q110 24 242 38.5t257 14.5q421 0 631 -185.5zM884.5 337.5q91.5 44.5 137 143t45.5 261.5q0 160 -47 259t-139 143.5t-233 44.5q-33 0 -73 -3.5
t-71 -9.5v-293h253v-241h-253v-344q62 -5 145 -5q144 0 235.5 44.5z" />
    <glyph glyph-name="dcroat" unicode="&#x111;" horiz-adv-x="1266" 
d="M1263 1237h-104v-1237h-315l-23 114h-16q-48 -63 -121 -98.5t-167 -35.5q-128 0 -231 58t-164 180.5t-61 307.5q0 285 156.5 437.5t456.5 152.5q45 0 109 -6v127h-332v232h332v147h376v-147h104v-232zM783 823q-50 10 -108 10q-121 0 -179 -65t-58 -214
q0 -148 49.5 -208.5t143.5 -60.5q43 0 83.5 13.5t68.5 39.5v485z" />
    <glyph glyph-name="Emacron" unicode="&#x112;" horiz-adv-x="1286" 
d="M499 304h715v-304h-1094v1480h1084v-304h-705v-268h602v-304h-602v-300zM293 1635v222h781v-222h-781z" />
    <glyph glyph-name="emacron" unicode="&#x113;" horiz-adv-x="1138" 
d="M1088 442h-653q6 -69 35.5 -108.5t95 -57t181.5 -17.5q120 0 278 32v-278q-165 -34 -332 -34q-221 0 -360 59.5t-205.5 185t-66.5 325.5q0 178 61.5 305t180.5 194t290 67q243 0 369 -149.5t126 -428.5v-95zM473.5 830q-37.5 -52 -39.5 -177h306q-2 125 -38.5 177
t-112.5 52q-78 0 -115.5 -52zM214 1309v221h743v-221h-743z" />
    <glyph glyph-name="Ebreve" unicode="&#x114;" horiz-adv-x="1286" 
d="M499 304h715v-304h-1094v1480h1084v-304h-705v-268h602v-304h-602v-300zM398 1673q-102 81 -120 223h226q12 -63 55.5 -94.5t124.5 -31.5q80 0 123.5 31.5t55.5 94.5h226q-18 -142 -120 -223t-285 -81q-184 0 -286 81z" />
    <glyph glyph-name="ebreve" unicode="&#x115;" horiz-adv-x="1138" 
d="M1088 442h-653q6 -69 35.5 -108.5t95 -57t181.5 -17.5q120 0 278 32v-278q-165 -34 -332 -34q-221 0 -360 59.5t-205.5 185t-66.5 325.5q0 178 61.5 305t180.5 194t290 67q243 0 369 -149.5t126 -428.5v-95zM473.5 830q-37.5 -52 -39.5 -177h306q-2 125 -38.5 177
t-112.5 52q-78 0 -115.5 -52zM309 1327q-100 92 -110 268h224q7 -88 47 -131t116 -43t115.5 42.5t46.5 131.5h225q-10 -177 -110 -268.5t-277 -91.5t-277 92z" />
    <glyph glyph-name="Edotaccent" unicode="&#x116;" horiz-adv-x="1286" 
d="M499 304h715v-304h-1094v1480h1084v-304h-705v-268h602v-304h-602v-300zM515 1629.5q-57 42.5 -57 120.5q0 79 57 121.5t169 42.5q111 0 168 -42.5t57 -121.5q0 -78 -57 -120.5t-168 -42.5q-112 0 -169 42.5z" />
    <glyph glyph-name="edotaccent" unicode="&#x117;" horiz-adv-x="1138" 
d="M1088 442h-653q6 -69 35.5 -108.5t95 -57t181.5 -17.5q120 0 278 32v-278q-165 -34 -332 -34q-221 0 -360 59.5t-205.5 185t-66.5 325.5q0 178 61.5 305t180.5 194t290 67q243 0 369 -149.5t126 -428.5v-95zM473.5 830q-37.5 -52 -39.5 -177h306q-2 125 -38.5 177
t-112.5 52q-78 0 -115.5 -52zM414 1277.5q-56 48.5 -56 141.5q0 92 56 140.5t172 48.5q115 0 171 -48.5t56 -140.5q0 -93 -56 -141.5t-171 -48.5q-116 0 -172 48.5z" />
    <glyph glyph-name="Eogonek" unicode="&#x118;" horiz-adv-x="1286" 
d="M939.5 -98.5q-52.5 -50.5 -52.5 -110.5q0 -98 139 -98q60 0 136 28v-141q-88 -32 -189 -32q-148 0 -223 57.5t-75 159.5q0 71 38 129t123 106h-716v1480h1084v-304h-705v-268h602v-304h-602v-300h715v-304h-89q-133 -48 -185.5 -98.5z" />
    <glyph glyph-name="eogonek" unicode="&#x119;" horiz-adv-x="1138" 
d="M1088 442h-653q6 -69 35.5 -108.5t95 -57t181.5 -17.5q120 0 278 32v-278q-136 -48 -189 -103.5t-53 -120.5q0 -45 30.5 -70.5t88.5 -25.5q55 0 123 28v-141q-42 -15 -83 -23.5t-93 -8.5q-135 0 -206.5 58t-71.5 159q0 64 27.5 117.5t90.5 96.5q-220 1 -358 60.5
t-204 185t-66 324.5q0 178 61.5 305t180.5 194t290 67q243 0 369 -149.5t126 -428.5v-95zM473.5 821.5q-37.5 -51.5 -39.5 -177.5h306q-2 126 -38 177.5t-113 51.5q-78 0 -115.5 -51.5z" />
    <glyph glyph-name="Ecaron" unicode="&#x11a;" horiz-adv-x="1286" 
d="M499 304h715v-304h-1094v1480h1084v-304h-705v-268h602v-304h-602v-300zM822 1900h279l-259 -310h-316l-260 310h279l139 -175z" />
    <glyph glyph-name="ecaron" unicode="&#x11b;" horiz-adv-x="1138" 
d="M1088 442h-653q6 -69 35.5 -108.5t95 -57t181.5 -17.5q120 0 278 32v-278q-165 -34 -332 -34q-221 0 -360 59.5t-205.5 185t-66.5 325.5q0 178 61.5 305t180.5 194t290 67q243 0 369 -149.5t126 -428.5v-95zM473.5 830q-37.5 -52 -39.5 -177h306q-2 125 -38.5 177
t-112.5 52q-78 0 -115.5 -52zM710 1616h264l-237 -390h-303l-237 390h265l124 -218z" />
    <glyph glyph-name="Gcircumflex" unicode="&#x11c;" horiz-adv-x="1454" 
d="M1336 720v-705q-209 -34 -383 -34q-441 0 -659 187t-218 568q0 376 223.5 570t657.5 194q175 0 334 -36v-313q-148 33 -299 33q-184 0 -297 -46.5t-166.5 -146t-52.5 -261.5q0 -224 109.5 -330t336.5 -106q38 0 58 1v425h356zM1243 1590h-279l-138 175l-139 -175h-279
l260 310h316z" />
    <glyph glyph-name="gcircumflex" unicode="&#x11d;" horiz-adv-x="1266" 
d="M139 -417v291q183 -48 352 -48q155 0 223.5 54.5t68.5 176.5v61h-17q-48 -59 -118 -90.5t-159 -31.5q-117 0 -214 59t-155.5 178.5t-58.5 293.5q0 284 161.5 435.5t484.5 152.5q115 0 236.5 -17t215.5 -48v-922q0 -206 -69 -335.5t-209.5 -191t-358.5 -61.5
q-207 0 -383 43zM715.5 310q38.5 11 67.5 33v479q-55 11 -109 11q-118 0 -177 -65t-59 -210q0 -143 49.5 -201t148.5 -58q41 0 79.5 11zM1047 1226h-265l-123 218l-124 -218h-264l236 390h303z" />
    <glyph glyph-name="Gbreve" unicode="&#x11e;" horiz-adv-x="1454" 
d="M1336 720v-705q-209 -34 -383 -34q-441 0 -659 187t-218 568q0 376 223.5 570t657.5 194q175 0 334 -36v-313q-148 33 -299 33q-184 0 -297 -46.5t-166.5 -146t-52.5 -261.5q0 -224 109.5 -330t336.5 -106q38 0 58 1v425h356zM540 1673q-102 81 -120 223h226
q12 -63 55.5 -94.5t124.5 -31.5q80 0 123.5 31.5t55.5 94.5h226q-18 -142 -120 -223t-285 -81q-184 0 -286 81z" />
    <glyph glyph-name="gbreve" unicode="&#x11f;" horiz-adv-x="1266" 
d="M139 -417v291q183 -48 352 -48q155 0 223.5 54.5t68.5 176.5v61h-17q-48 -59 -118 -90.5t-159 -31.5q-117 0 -214 59t-155.5 178.5t-58.5 293.5q0 284 161.5 435.5t484.5 152.5q115 0 236.5 -17t215.5 -48v-922q0 -206 -69 -335.5t-209.5 -191t-358.5 -61.5
q-207 0 -383 43zM715.5 310q38.5 11 67.5 33v479q-55 11 -109 11q-118 0 -177 -65t-59 -210q0 -143 49.5 -201t148.5 -58q41 0 79.5 11zM382 1327q-100 92 -110 268h224q7 -88 47 -131t116 -43t115.5 42.5t46.5 131.5h225q-10 -177 -110 -268.5t-277 -91.5t-277 92z" />
    <glyph glyph-name="Gdotaccent" unicode="&#x120;" horiz-adv-x="1454" 
d="M1336 720v-705q-209 -34 -383 -34q-441 0 -659 187t-218 568q0 376 223.5 570t657.5 194q175 0 334 -36v-313q-148 33 -299 33q-184 0 -297 -46.5t-166.5 -146t-52.5 -261.5q0 -224 109.5 -330t336.5 -106q38 0 58 1v425h356zM657 1629.5q-57 42.5 -57 120.5
q0 79 57 121.5t169 42.5q111 0 168 -42.5t57 -121.5q0 -78 -57 -120.5t-168 -42.5q-112 0 -169 42.5z" />
    <glyph glyph-name="gdotaccent" unicode="&#x121;" horiz-adv-x="1266" 
d="M139 -417v291q183 -48 352 -48q155 0 223.5 54.5t68.5 176.5v61h-17q-48 -59 -118 -90.5t-159 -31.5q-117 0 -214 59t-155.5 178.5t-58.5 293.5q0 284 161.5 435.5t484.5 152.5q115 0 236.5 -17t215.5 -48v-922q0 -206 -69 -335.5t-209.5 -191t-358.5 -61.5
q-207 0 -383 43zM715.5 310q38.5 11 67.5 33v479q-55 11 -109 11q-118 0 -177 -65t-59 -210q0 -143 49.5 -201t148.5 -58q41 0 79.5 11zM487 1277.5q-56 48.5 -56 141.5q0 92 56 140.5t172 48.5q115 0 171 -48.5t56 -140.5q0 -93 -56 -141.5t-171 -48.5q-116 0 -172 48.5z
" />
    <glyph glyph-name="Gcommaaccent" unicode="&#x122;" horiz-adv-x="1454" 
d="M1336 720v-705q-209 -34 -383 -34q-441 0 -659 187t-218 568q0 376 223.5 570t657.5 194q175 0 334 -36v-313q-148 33 -299 33q-184 0 -297 -46.5t-166.5 -146t-52.5 -261.5q0 -224 109.5 -330t336.5 -106q38 0 58 1v425h356zM1031 -279q0 -56 -24 -120t-62 -109h-232
q47 86 60 147q-153 15 -153 122q0 124 205 124q206 0 206 -164z" />
    <glyph glyph-name="gcommaaccent" unicode="&#x123;" horiz-adv-x="1266" 
d="M139 -417v291q183 -48 352 -48q155 0 223.5 54.5t68.5 176.5v61h-17q-48 -59 -118 -90.5t-159 -31.5q-117 0 -214 59t-155.5 178.5t-58.5 293.5q0 284 161.5 435.5t484.5 152.5q115 0 236.5 -17t215.5 -48v-922q0 -206 -69 -335.5t-209.5 -191t-358.5 -61.5
q-207 0 -383 43zM715.5 310q38.5 11 67.5 33v479q-55 11 -109 11q-118 0 -177 -65t-59 -210q0 -143 49.5 -201t148.5 -58q41 0 79.5 11zM864 1357q0 -124 -205 -124q-206 0 -206 163q0 57 24 120.5t62 109.5h232q-47 -86 -60 -147q153 -15 153 -122z" />
    <glyph glyph-name="Hcircumflex" unicode="&#x124;" horiz-adv-x="1555" 
d="M120 0v1480h384v-556h547v556h384v-1480h-384v587h-547v-587h-384zM1195 1590h-279l-138 175l-139 -175h-279l260 310h316z" />
    <glyph glyph-name="hcircumflex" unicode="&#x125;" horiz-adv-x="1254" 
d="M107 1616h376v-625h17q53 61 126.5 92.5t164.5 31.5q105 0 186.5 -46t129 -145.5t47.5 -254.5v-669h-376v643q0 82 -32.5 116t-96.5 34q-47 0 -92 -18.5t-74 -51.5v-723h-376v1616zM1048 1686h-279l-138 175l-139 -175h-279l260 310h316z" />
    <glyph glyph-name="Hbar" unicode="&#x126;" horiz-adv-x="1555" 
d="M1551 1317v-232h-116v-1085h-384v587h-547v-587h-384v1085h-117v232h117v163h384v-163h547v163h384v-163h116zM1051 924v161h-547v-161h547z" />
    <glyph glyph-name="hbar" unicode="&#x127;" horiz-adv-x="1254" 
d="M977.5 1069q81.5 -46 129 -145.5t47.5 -254.5v-669h-376v643q0 82 -32.5 116t-96.5 34q-47 0 -92 -18.5t-74 -51.5v-723h-376v1235h-104v232h104v149h376v-149h332v-232h-332v-244h17q53 61 126.5 92.5t164.5 31.5q105 0 186.5 -46z" />
    <glyph glyph-name="Itilde" unicode="&#x128;" horiz-adv-x="624" 
d="M120 0v1480h384v-1480h-384zM396.5 1611q-43.5 10 -102.5 30q-56 18 -92 27t-76 9q-62 0 -110 -16.5t-99 -53.5v210q43 39 94.5 57t121.5 18q50 0 92 -10t104 -31q54 -19 91 -28t77 -9q62 0 110 16.5t99 53.5v-210q-42 -38 -93 -55.5t-123 -17.5q-50 0 -93.5 10z" />
    <glyph glyph-name="itilde" unicode="&#x129;" horiz-adv-x="591" 
d="M107 0v1097h377v-1097h-377zM373.5 1277q-39.5 13 -96.5 38q-52 23 -85 34t-68 11q-58 0 -105 -21t-96 -68v230q42 42 92 61.5t116 19.5q45 0 84.5 -13t96.5 -38q52 -23 85 -34t68 -11q58 0 105 21t96 67v-229q-42 -42 -92 -61.5t-116 -19.5q-45 0 -84.5 13z" />
    <glyph glyph-name="Imacron" unicode="&#x12a;" horiz-adv-x="624" 
d="M120 0v1480h384v-1480h-384zM-79 1635v222h781v-222h-781z" />
    <glyph glyph-name="imacron" unicode="&#x12b;" horiz-adv-x="591" 
d="M107 0v1097h377v-1097h-377zM-77 1309v221h743v-221h-743z" />
    <glyph glyph-name="Ibreve" unicode="&#x12c;" horiz-adv-x="624" 
d="M120 0v1480h384v-1480h-384zM26 1673q-102 81 -120 223h226q12 -63 55.5 -94.5t124.5 -31.5q80 0 123.5 31.5t55.5 94.5h226q-18 -142 -120 -223t-285 -81q-184 0 -286 81z" />
    <glyph glyph-name="ibreve" unicode="&#x12d;" horiz-adv-x="591" 
d="M107 0v1097h377v-1097h-377zM18 1327q-100 92 -110 268h224q7 -88 47 -131t116 -43t115.5 42.5t46.5 131.5h225q-10 -177 -110 -268.5t-277 -91.5t-277 92z" />
    <glyph glyph-name="Iogonek" unicode="&#x12e;" horiz-adv-x="624" 
d="M541 -279v-141q-88 -32 -189 -32q-148 0 -223 57.5t-75 159.5q0 71 38 129t123 106h-95v1480h384v-1480q-133 -48 -185.5 -98.5t-52.5 -110.5q0 -98 139 -98q60 0 136 28z" />
    <glyph glyph-name="iogonek" unicode="&#x12f;" horiz-adv-x="591" 
d="M123 1277.5q-56 48.5 -56 141.5q0 92 56 140.5t172 48.5q115 0 171 -48.5t56 -140.5q0 -93 -56 -141.5t-171 -48.5q-116 0 -172 48.5zM296.5 -281.5q30.5 -25.5 88.5 -25.5q54 0 123 28v-141q-42 -15 -83 -23.5t-93 -8.5q-135 0 -206.5 58t-71.5 159q0 71 35 129t115 106
h-97v1097h377v-1097q-122 -47 -170 -97.5t-48 -113.5q0 -45 30.5 -70.5z" />
    <glyph glyph-name="Idotaccent" unicode="&#x130;" horiz-adv-x="624" 
d="M120 0v1480h384v-1480h-384zM143 1629.5q-57 42.5 -57 120.5q0 79 57 121.5t169 42.5q111 0 168 -42.5t57 -121.5q0 -78 -57 -120.5t-168 -42.5q-112 0 -169 42.5z" />
    <glyph glyph-name="dotlessi" unicode="&#x131;" horiz-adv-x="591" 
d="M107 0v1097h377v-1097h-377z" />
    <glyph glyph-name="Jcircumflex" unicode="&#x134;" horiz-adv-x="624" 
d="M-27 -190q83 110 116 220.5t33 270.5v1179h382v-1169q-2 -193 -67 -350t-221 -313zM730 1590h-279l-138 175l-139 -175h-279l260 310h316z" />
    <glyph glyph-name="jcircumflex" unicode="&#x135;" horiz-adv-x="591" 
d="M-42 -314q84 111 116.5 221t32.5 271v919h377v-904q0 -194 -65 -351.5t-219 -315.5zM679 1227h-265l-123 218l-124 -218h-264l236 390h303z" />
    <glyph glyph-name="Kcommaaccent" unicode="&#x136;" horiz-adv-x="1363" 
d="M1003 0l-385 587h-114v-587h-384v1480h384v-556h114l355 556h401l-456 -715l499 -765h-414zM920 -279q0 -56 -24 -120t-62 -109h-232q47 86 60 147q-153 15 -153 122q0 124 205 124q206 0 206 -164z" />
    <glyph glyph-name="kcommaaccent" unicode="&#x137;" horiz-adv-x="1230" 
d="M861 0l-272 415h-106v-415h-376v1616h376v-903h104l246 384h398l-330 -525l366 -572h-406zM852 -279q0 -56 -24 -120t-62 -109h-232q47 86 60 147q-153 15 -153 122q0 124 205 124q206 0 206 -164z" />
    <glyph glyph-name="kgreenlandic" unicode="&#x138;" horiz-adv-x="1230" 
d="M861 0l-272 415h-106v-415h-376v1097h376v-384h104l246 384h398l-330 -525l366 -572h-406z" />
    <glyph glyph-name="Lacute" unicode="&#x139;" horiz-adv-x="1176" 
d="M120 0v1480h384v-1163h663v-317h-1047zM144 1590l181 310h394l-237 -310h-338z" />
    <glyph glyph-name="lacute" unicode="&#x13a;" horiz-adv-x="590" 
d="M107 0v1616h376v-1616h-376zM124 1686l181 310h394l-237 -310h-338z" />
    <glyph glyph-name="Lcommaaccent" unicode="&#x13b;" horiz-adv-x="1176" 
d="M120 0v1480h384v-1163h663v-317h-1047zM849 -279q0 -56 -24 -120t-62 -109h-232q47 86 60 147q-153 15 -153 122q0 124 205 124q206 0 206 -164z" />
    <glyph glyph-name="lcommaaccent" unicode="&#x13c;" horiz-adv-x="590" 
d="M107 0v1616h376v-1616h-376zM500 -279q0 -56 -24 -120t-62 -109h-232q47 86 60 147q-153 15 -153 122q0 124 205 124q206 0 206 -164z" />
    <glyph glyph-name="Lcaron" unicode="&#x13d;" horiz-adv-x="1176" 
d="M120 0v1480h384v-1163h663v-317h-1047zM771.5 1361q6.5 107 6.5 255h246q0 -286 -75 -476h-201q17 114 23.5 221z" />
    <glyph glyph-name="lcaron" unicode="&#x13e;" horiz-adv-x="590" 
d="M107 0v1616h376v-1616h-376zM570 1392.5q7 101.5 7 223.5h246q0 -122 -20.5 -236t-56.5 -200h-201q18 111 25 212.5z" />
    <glyph glyph-name="Ldot" unicode="&#x13f;" horiz-adv-x="1176" 
d="M120 0v1480h384v-1163h663v-317h-1047zM719 751.5q-56 48.5 -56 141.5q0 92 56 140.5t172 48.5t172 -48.5t56 -140.5q0 -93 -56 -141.5t-172 -48.5t-172 48.5z" />
    <glyph glyph-name="ldot" unicode="&#x140;" horiz-adv-x="966" 
d="M107 0v1616h376v-1616h-376zM604 652.5q-56 48.5 -56 141.5q0 92 56 140.5t172 48.5q115 0 171 -48.5t56 -140.5q0 -93 -56 -141.5t-171 -48.5q-116 0 -172 48.5z" />
    <glyph glyph-name="Lslash" unicode="&#x141;" horiz-adv-x="1176" 
d="M504 317h663v-317h-1047v607l-73 -38l-108 216l181 93v602h384v-404l264 136l109 -216l-373 -192v-487z" />
    <glyph glyph-name="lslash" unicode="&#x142;" horiz-adv-x="590" 
d="M665 773l-182 -93v-680h-376v489l-78 -40l-104 206l182 93v868h376v-677l78 40z" />
    <glyph glyph-name="Nacute" unicode="&#x143;" horiz-adv-x="1570" 
d="M1089 1480h360v-1480h-384l-585 906v-906h-360v1480h384l585 -906v906zM614 1590l181 310h394l-237 -310h-338z" />
    <glyph glyph-name="nacute" unicode="&#x144;" horiz-adv-x="1254" 
d="M107 1097h309l25 -107h17q58 61 138.5 93t175.5 32q176 0 279 -108.5t103 -337.5v-669h-376v645q0 81 -32.5 114.5t-96.5 33.5q-47 0 -92 -18.5t-74 -51.5v-723h-376v1097zM459 1226l229 390h397l-283 -390h-343z" />
    <glyph glyph-name="Ncommaaccent" unicode="&#x145;" horiz-adv-x="1570" 
d="M1089 1480h360v-1480h-384l-585 906v-906h-360v1480h384l585 -906v906zM990 -279q0 -56 -24 -120t-62 -109h-232q47 86 60 147q-153 15 -153 122q0 124 205 124q206 0 206 -164z" />
    <glyph glyph-name="ncommaaccent" unicode="&#x146;" horiz-adv-x="1254" 
d="M107 1097h309l25 -107h17q58 61 138.5 93t175.5 32q176 0 279 -108.5t103 -337.5v-669h-376v645q0 81 -32.5 114.5t-96.5 33.5q-47 0 -92 -18.5t-74 -51.5v-723h-376v1097zM836 -279q0 -56 -24 -120t-62 -109h-232q47 86 60 147q-153 15 -153 122q0 124 205 124
q206 0 206 -164z" />
    <glyph glyph-name="Ncaron" unicode="&#x147;" horiz-adv-x="1570" 
d="M1089 1480h360v-1480h-384l-585 906v-906h-360v1480h384l585 -906v906zM923 1900h279l-259 -310h-316l-260 310h279l139 -175z" />
    <glyph glyph-name="ncaron" unicode="&#x148;" horiz-adv-x="1254" 
d="M107 1097h309l25 -107h17q58 61 138.5 93t175.5 32q176 0 279 -108.5t103 -337.5v-669h-376v645q0 81 -32.5 114.5t-96.5 33.5q-47 0 -92 -18.5t-74 -51.5v-723h-376v1097zM755 1616h264l-237 -390h-303l-237 390h265l124 -218z" />
    <glyph glyph-name="napostrophe" unicode="&#x149;" horiz-adv-x="1254" 
d="M107 1097h309l25 -107h17q58 61 138.5 93t175.5 32q176 0 279 -108.5t103 -337.5v-669h-376v645q0 81 -32.5 114.5t-96.5 33.5q-47 0 -92 -18.5t-74 -51.5v-723h-376v1097zM421 1462q0 -57 -23.5 -120.5t-61.5 -108.5h-232q46 85 59 146q-152 15 -152 123q0 60 50 92
t154 32q206 0 206 -164z" />
    <glyph glyph-name="Eng" unicode="&#x14a;" horiz-adv-x="1570" 
d="M1449 1480v-1253q0 -146 -27.5 -263.5t-89.5 -223.5t-167 -214l-241 160q60 77 95.5 149t52.5 154l-592 917v-906h-360v1480h384l585 -899v899h360z" />
    <glyph glyph-name="eng" unicode="&#x14b;" horiz-adv-x="1254" 
d="M629 -314q83 111 116 221.5t33 270.5v469q0 82 -32.5 116t-96.5 34q-47 0 -92 -18.5t-74 -51.5v-727h-376v1097h309l25 -107h17q60 61 139.5 93t174.5 32q176 0 279 -108t103 -338v-482q-2 -192 -66 -348t-218 -313z" />
    <glyph glyph-name="Omacron" unicode="&#x14c;" horiz-adv-x="1606" 
d="M417 65q-163 85 -252 255t-89 420t89 420t252 255t386 85t386.5 -85t252.5 -255.5t89 -419.5t-89 -419t-252.5 -255.5t-386.5 -85.5t-386 85zM1052.5 395.5q85.5 107.5 85.5 337.5q0 239 -85.5 349t-249.5 110q-163 0 -248.5 -107t-85.5 -338q0 -241 84.5 -350
t249.5 -109q164 0 249.5 107.5zM412 1635v222h781v-222h-781z" />
    <glyph glyph-name="omacron" unicode="&#x14d;" horiz-adv-x="1238" 
d="M320.5 43q-125.5 64 -192.5 191t-67 311q0 281 145 425.5t413 144.5q177 0 302 -64.5t190.5 -192t65.5 -311.5q0 -185 -67 -312t-192.5 -191.5t-298.5 -64.5t-298.5 64zM719.5 286q39.5 26 60 88.5t20.5 170.5q0 109 -20.5 172.5t-60 89.5t-100.5 26t-100.5 -26t-60 -89
t-20.5 -171q0 -109 20.5 -172t60 -89t100.5 -26t100.5 26zM247 1309v221h743v-221h-743z" />
    <glyph glyph-name="Obreve" unicode="&#x14e;" horiz-adv-x="1606" 
d="M417 65q-163 85 -252 255t-89 420t89 420t252 255t386 85t386.5 -85t252.5 -255.5t89 -419.5t-89 -419t-252.5 -255.5t-386.5 -85.5t-386 85zM1052.5 395.5q85.5 107.5 85.5 337.5q0 239 -85.5 349t-249.5 110q-163 0 -248.5 -107t-85.5 -338q0 -241 84.5 -350
t249.5 -109q164 0 249.5 107.5zM517 1673q-102 81 -120 223h226q12 -63 55.5 -94.5t124.5 -31.5q80 0 123.5 31.5t55.5 94.5h226q-18 -142 -120 -223t-285 -81q-184 0 -286 81z" />
    <glyph glyph-name="obreve" unicode="&#x14f;" horiz-adv-x="1238" 
d="M320.5 43q-125.5 64 -192.5 191t-67 311q0 281 145 425.5t413 144.5q177 0 302 -64.5t190.5 -192t65.5 -311.5q0 -185 -67 -312t-192.5 -191.5t-298.5 -64.5t-298.5 64zM719.5 286q39.5 26 60 88.5t20.5 170.5q0 109 -20.5 172.5t-60 89.5t-100.5 26t-100.5 -26t-60 -89
t-20.5 -171q0 -109 20.5 -172t60 -89t100.5 -26t100.5 26zM342 1327q-100 92 -110 268h224q7 -88 47 -131t116 -43t115.5 42.5t46.5 131.5h225q-10 -177 -110 -268.5t-277 -91.5t-277 92z" />
    <glyph glyph-name="Ohungarumlaut" unicode="&#x150;" horiz-adv-x="1606" 
d="M417 65q-163 85 -252 255t-89 420t89 420t252 255t386 85t386.5 -85t252.5 -255.5t89 -419.5t-89 -419t-252.5 -255.5t-386.5 -85.5t-386 85zM1052.5 395.5q85.5 107.5 85.5 337.5q0 239 -85.5 349t-249.5 110q-163 0 -248.5 -107t-85.5 -338q0 -241 84.5 -350
t249.5 -109q164 0 249.5 107.5zM450 1590l139 310h294l-158 -310h-275zM880 1590l139 310h294l-158 -310h-275z" />
    <glyph glyph-name="ohungarumlaut" unicode="&#x151;" horiz-adv-x="1238" 
d="M320.5 43q-125.5 64 -192.5 191t-67 311q0 281 145 425.5t413 144.5q177 0 302 -64.5t190.5 -192t65.5 -311.5q0 -185 -67 -312t-192.5 -191.5t-298.5 -64.5t-298.5 64zM719.5 286q39.5 26 60 88.5t20.5 170.5q0 109 -20.5 172.5t-60 89.5t-100.5 26t-100.5 -26t-60 -89
t-20.5 -171q0 -109 20.5 -172t60 -89t100.5 -26t100.5 26zM266 1226l149 390h294l-168 -390h-275zM696 1226l149 390h293l-167 -390h-275z" />
    <glyph glyph-name="OE" unicode="&#x152;" horiz-adv-x="2152" 
d="M2081 304v-304h-803q-53 0 -165 -6q-110 -6 -157 -6q-299 0 -493.5 79t-290.5 245t-96 428q0 383 222 567.5t655 184.5q54 0 162 -6q110 -6 161 -6h795v-304h-674v-268h570v-304h-570v-300h684zM1019 1178q-51 4 -145 4q-138 0 -227 -44t-134 -142t-45 -258
q0 -159 45.5 -256t135 -141t227.5 -44q83 0 143 5v876z" />
    <glyph glyph-name="oe" unicode="&#x153;" horiz-adv-x="1871" 
d="M1821 442h-645q6 -69 35 -108.5t93 -57t177 -17.5q120 0 277 32v-278q-165 -34 -330 -34q-162 0 -275 35t-184 106q-130 -141 -368 -141q-165 0 -286 64t-187.5 191t-66.5 311q0 186 64.5 314t185.5 192t290 64q130 0 227 -41t160 -119q63 77 154 118.5t205 41.5
q149 0 255.5 -66.5t162.5 -196t56 -314.5v-96zM1214 830q-37 -52 -39 -177h298q-2 126 -37.5 177.5t-109.5 51.5q-75 0 -112 -52zM718.5 286q39.5 26 60 88.5t20.5 170.5q0 109 -21 172.5t-60.5 89.5t-99.5 26t-99.5 -26t-60 -89t-20.5 -171q0 -109 20.5 -171.5t59.5 -89
t100 -26.5t100.5 26z" />
    <glyph glyph-name="Racute" unicode="&#x154;" horiz-adv-x="1403" 
d="M980 0l-350 518q-30 0 -82 2q-34 2 -51 2v-522h-377v1444q110 25 238 40t249 15q331 0 497 -120.5t166 -368.5q1 -153 -70.5 -261t-204.5 -166l401 -583h-416zM497 809q74 -9 147 -9q136 0 202 49.5t66 160.5q0 108 -65 159t-198 51q-79 0 -152 -13v-398zM523 1590
l181 310h394l-237 -310h-338z" />
    <glyph glyph-name="racute" unicode="&#x155;" horiz-adv-x="841" 
d="M107 1097h307l29 -140h17q41 80 113 118.5t167 38.5q41 0 89 -8v-339q-44 10 -113 10t-133.5 -23.5t-99.5 -64.5v-689h-376v1097zM295 1226l229 390h397l-283 -390h-343z" />
    <glyph glyph-name="Rcommaaccent" unicode="&#x156;" horiz-adv-x="1403" 
d="M980 0l-350 518q-30 0 -82 2q-34 2 -51 2v-522h-377v1444q110 25 238 40t249 15q331 0 497 -120.5t166 -368.5q1 -153 -70.5 -261t-204.5 -166l401 -583h-416zM497 809q74 -9 147 -9q136 0 202 49.5t66 160.5q0 108 -65 159t-198 51q-79 0 -152 -13v-398zM943 -279
q0 -56 -24 -120t-62 -109h-232q47 86 60 147q-153 15 -153 122q0 124 205 124q206 0 206 -164z" />
    <glyph glyph-name="rcommaaccent" unicode="&#x157;" horiz-adv-x="841" 
d="M107 1097h307l29 -140h17q41 80 113 118.5t167 38.5q41 0 89 -8v-339q-44 10 -113 10t-133.5 -23.5t-99.5 -64.5v-689h-376v1097zM500 -279q0 -56 -24 -120t-62 -109h-232q47 86 60 147q-153 15 -153 122q0 124 205 124q206 0 206 -164z" />
    <glyph glyph-name="Rcaron" unicode="&#x158;" horiz-adv-x="1403" 
d="M980 0l-350 518q-30 0 -82 2q-34 2 -51 2v-522h-377v1444q110 25 238 40t249 15q331 0 497 -120.5t166 -368.5q1 -153 -70.5 -261t-204.5 -166l401 -583h-416zM497 809q74 -9 147 -9q136 0 202 49.5t66 160.5q0 108 -65 159t-198 51q-79 0 -152 -13v-398zM832 1900h279
l-259 -310h-316l-260 310h279l139 -175z" />
    <glyph glyph-name="rcaron" unicode="&#x159;" horiz-adv-x="841" 
d="M107 1097h307l29 -140h17q41 80 113 118.5t167 38.5q41 0 89 -8v-339q-44 10 -113 10t-133.5 -23.5t-99.5 -64.5v-689h-376v1097zM591 1616h264l-237 -390h-303l-237 390h265l124 -218z" />
    <glyph glyph-name="Sacute" unicode="&#x15a;" horiz-adv-x="1186" 
d="M292.5 -3q-111.5 17 -204.5 48v309q92 -31 209 -49t219 -18q130 0 185.5 35t55.5 102q0 37 -16 61.5t-56 44t-115 39.5l-122 32q-200 49 -300 155.5t-100 278.5q0 223 163.5 344t484.5 121q101 0 194 -11.5t168 -31.5v-309q-69 21 -159 33t-180 12q-159 0 -224.5 -36
t-65.5 -102q0 -34 14 -57.5t48.5 -41.5t97.5 -35l122 -31q220 -54 323.5 -160.5t103.5 -279.5q0 -144 -74 -250t-213.5 -163t-332.5 -57q-114 0 -225.5 17zM434 1590l181 310h394l-237 -310h-338z" />
    <glyph glyph-name="sacute" unicode="&#x15b;" horiz-adv-x="1007" 
d="M84 28v271q80 -24 173 -37t188 -13q93 0 132 20.5t39 60.5q0 29 -16.5 44t-57.5 22l-188 33q-156 28 -229 107t-73 216q0 112 60 193t182.5 125.5t303.5 44.5q82 0 162.5 -9.5t142.5 -26.5v-271q-63 17 -139.5 27t-154.5 10q-118 0 -163.5 -23t-45.5 -62q0 -25 17 -39.5
t58 -22.5l188 -33q151 -27 226 -102t75 -220q0 -113 -60.5 -194.5t-175.5 -125.5t-276 -44q-209 0 -368 49zM336 1226l229 390h397l-283 -390h-343z" />
    <glyph glyph-name="Scircumflex" unicode="&#x15c;" horiz-adv-x="1186" 
d="M292.5 -3q-111.5 17 -204.5 48v309q92 -31 209 -49t219 -18q130 0 185.5 35t55.5 102q0 37 -16 61.5t-56 44t-115 39.5l-122 32q-200 49 -300 155.5t-100 278.5q0 223 163.5 344t484.5 121q101 0 194 -11.5t168 -31.5v-309q-69 21 -159 33t-180 12q-159 0 -224.5 -36
t-65.5 -102q0 -34 14 -57.5t48.5 -41.5t97.5 -35l122 -31q220 -54 323.5 -160.5t103.5 -279.5q0 -144 -74 -250t-213.5 -163t-332.5 -57q-114 0 -225.5 17zM1022 1590h-279l-138 175l-139 -175h-279l260 310h316z" />
    <glyph glyph-name="scircumflex" unicode="&#x15d;" horiz-adv-x="1007" 
d="M84 28v271q80 -24 173 -37t188 -13q93 0 132 20.5t39 60.5q0 29 -16.5 44t-57.5 22l-188 33q-156 28 -229 107t-73 216q0 112 60 193t182.5 125.5t303.5 44.5q82 0 162.5 -9.5t142.5 -26.5v-271q-63 17 -139.5 27t-154.5 10q-118 0 -163.5 -23t-45.5 -62q0 -25 17 -39.5
t58 -22.5l188 -33q151 -27 226 -102t75 -220q0 -113 -60.5 -194.5t-175.5 -125.5t-276 -44q-209 0 -368 49zM896 1226h-265l-123 218l-124 -218h-264l236 390h303z" />
    <glyph glyph-name="Scedilla" unicode="&#x15e;" horiz-adv-x="1186" 
d="M1082.5 229.5q-55.5 -96.5 -160.5 -158t-253 -81.5v-70q92 -14 139 -60t47 -120q0 -91 -72.5 -141.5t-218.5 -50.5q-108 0 -206 31v138q43 -14 93.5 -22t93.5 -8q59 0 88 15.5t29 50.5t-30 51.5t-88 16.5h-50v159q-109 2 -213.5 19t-192.5 46v309q92 -31 209 -49t219 -18
q130 0 185.5 35t55.5 102q0 37 -16 61.5t-56 44t-115 39.5l-122 32q-200 49 -300 155.5t-100 278.5q0 223 163.5 344t484.5 121q101 0 194 -11.5t168 -31.5v-309q-69 21 -159 33t-180 12q-159 0 -224.5 -36t-65.5 -102q0 -34 14 -57.5t48.5 -41.5t97.5 -35l122 -31
q220 -54 323.5 -160.5t103.5 -279.5q0 -124 -55.5 -220.5z" />
    <glyph glyph-name="scedilla" unicode="&#x15f;" horiz-adv-x="1007" 
d="M871 111.5q-93 -91.5 -264 -120.5v-73q81 -16 123 -62.5t42 -118.5q0 -89 -68.5 -139t-203.5 -50q-97 0 -185 30v139q37 -15 83 -22.5t84 -7.5q49 0 73 15.5t24 50.5q0 68 -98 68h-49v158q-197 3 -348 49v271q80 -24 173 -37t188 -13q93 0 132 20.5t39 60.5
q0 29 -16.5 44t-57.5 22l-188 33q-156 28 -229 107t-73 216q0 112 60 193t182.5 125.5t303.5 44.5q82 0 162.5 -9.5t142.5 -26.5v-271q-63 17 -139.5 27t-154.5 10q-118 0 -163.5 -23t-45.5 -62q0 -25 17 -39.5t58 -22.5l188 -33q151 -27 226 -102t75 -220
q0 -140 -93 -231.5z" />
    <glyph glyph-name="Scaron" unicode="&#x160;" horiz-adv-x="1186" 
d="M292.5 -3q-111.5 17 -204.5 48v309q92 -31 209 -49t219 -18q130 0 185.5 35t55.5 102q0 37 -16 61.5t-56 44t-115 39.5l-122 32q-200 49 -300 155.5t-100 278.5q0 223 163.5 344t484.5 121q101 0 194 -11.5t168 -31.5v-309q-69 21 -159 33t-180 12q-159 0 -224.5 -36
t-65.5 -102q0 -34 14 -57.5t48.5 -41.5t97.5 -35l122 -31q220 -54 323.5 -160.5t103.5 -279.5q0 -144 -74 -250t-213.5 -163t-332.5 -57q-114 0 -225.5 17zM743 1900h279l-259 -310h-316l-260 310h279l139 -175z" />
    <glyph glyph-name="scaron" unicode="&#x161;" horiz-adv-x="1007" 
d="M84 28v271q80 -24 173 -37t188 -13q93 0 132 20.5t39 60.5q0 29 -16.5 44t-57.5 22l-188 33q-156 28 -229 107t-73 216q0 112 60 193t182.5 125.5t303.5 44.5q82 0 162.5 -9.5t142.5 -26.5v-271q-63 17 -139.5 27t-154.5 10q-118 0 -163.5 -23t-45.5 -62q0 -25 17 -39.5
t58 -22.5l188 -33q151 -27 226 -102t75 -220q0 -113 -60.5 -194.5t-175.5 -125.5t-276 -44q-209 0 -368 49zM632 1616h264l-237 -390h-303l-237 390h265l124 -218z" />
    <glyph glyph-name="uni0162" unicode="&#x162;" horiz-adv-x="1325" 
d="M727 0v-80q92 -14 139 -60t47 -120q0 -91 -72.5 -141.5t-218.5 -50.5q-108 0 -206 31v138q43 -14 93.5 -22t93.5 -8q59 0 88 15.5t29 50.5t-30 51.5t-88 16.5h-50v179h-82v1163h-457v317h1299v-317h-457v-1163h-128z" />
    <glyph glyph-name="uni0163" unicode="&#x163;" horiz-adv-x="877" 
d="M611 -21v-61q81 -16 123 -62.5t42 -118.5q0 -89 -68.5 -139t-203.5 -50q-97 0 -185 30v139q37 -15 83 -22.5t84 -7.5q49 0 73 15.5t24 50.5q0 68 -98 68h-49v183q-248 78 -248 405v395h-169v293h169l69 383h307v-383h268v-293h-268v-337q0 -69 16 -108t50.5 -55.5
t95.5 -16.5q41 0 109 11v-294q-45 -11 -103.5 -18t-111.5 -7h-9z" />
    <glyph glyph-name="Tcaron" unicode="&#x164;" horiz-adv-x="1325" 
d="M470 0v1163h-457v317h1299v-317h-457v-1163h-385zM801 1900h279l-259 -310h-316l-260 310h279l139 -175z" />
    <glyph glyph-name="tcaron" unicode="&#x165;" horiz-adv-x="877" 
d="M835 298v-294q-45 -11 -103.5 -18t-111.5 -7q-213 0 -322.5 105.5t-109.5 324.5v395h-169v293h169l69 383h307v-383h268v-293h-268v-337q0 -69 16 -108t50.5 -55.5t95.5 -16.5q41 0 109 11zM673 1392.5q7 101.5 7 223.5h246q0 -122 -20.5 -236t-56.5 -200h-201
q18 111 25 212.5z" />
    <glyph glyph-name="Tbar" unicode="&#x166;" horiz-adv-x="1325" 
d="M1312 1163h-457v-329h293v-240h-293v-594h-385v594h-291v240h291v329h-457v317h1299v-317z" />
    <glyph glyph-name="tbar" unicode="&#x167;" horiz-adv-x="877" 
d="M835 298v-294q-45 -11 -103.5 -18t-111.5 -7q-213 0 -322.5 105.5t-109.5 324.5v50h-113v224h113v121h-169v293h169l69 383h307v-383h268v-293h-268v-121h217v-224h-217q1 -66 17 -103.5t50.5 -53t94.5 -15.5q41 0 109 11z" />
    <glyph glyph-name="Utilde" unicode="&#x168;" horiz-adv-x="1523" 
d="M272 140.5q-158 160.5 -158 491.5v848h384v-884q0 -158 66.5 -230.5t201.5 -72.5t201 72.5t66 230.5v884h376v-848q0 -330 -156 -491t-487 -161q-336 0 -494 160.5zM850.5 1611q-43.5 10 -102.5 30q-56 18 -92 27t-76 9q-62 0 -110 -16.5t-99 -53.5v210q43 39 94.5 57
t121.5 18q50 0 92 -10t104 -31q54 -19 91 -28t77 -9q62 0 110 16.5t99 53.5v-210q-42 -38 -93 -55.5t-123 -17.5q-50 0 -93.5 10z" />
    <glyph glyph-name="utilde" unicode="&#x169;" horiz-adv-x="1244" 
d="M204 88.5q-104 107.5 -104 336.5v672h376v-645q0 -81 31.5 -115t91.5 -34q44 0 89 18.5t73 51.5v724h376v-1097h-309l-25 107h-15q-61 -62 -137.5 -94t-163.5 -32q-179 0 -283 107.5zM697.5 1277q-39.5 13 -96.5 38q-52 23 -85 34t-68 11q-58 0 -105 -21t-96 -68v230
q42 42 92 61.5t116 19.5q45 0 84.5 -13t96.5 -38q52 -23 85 -34t68 -11q58 0 105 21t96 67v-229q-42 -42 -92 -61.5t-116 -19.5q-45 0 -84.5 13z" />
    <glyph glyph-name="Umacron" unicode="&#x16a;" horiz-adv-x="1523" 
d="M272 140.5q-158 160.5 -158 491.5v848h384v-884q0 -158 66.5 -230.5t201.5 -72.5t201 72.5t66 230.5v884h376v-848q0 -330 -156 -491t-487 -161q-336 0 -494 160.5zM375 1635v222h781v-222h-781z" />
    <glyph glyph-name="umacron" unicode="&#x16b;" horiz-adv-x="1244" 
d="M204 88.5q-104 107.5 -104 336.5v672h376v-645q0 -81 31.5 -115t91.5 -34q44 0 89 18.5t73 51.5v724h376v-1097h-309l-25 107h-15q-61 -62 -137.5 -94t-163.5 -32q-179 0 -283 107.5zM247 1309v221h743v-221h-743z" />
    <glyph glyph-name="Ubreve" unicode="&#x16c;" horiz-adv-x="1523" 
d="M272 140.5q-158 160.5 -158 491.5v848h384v-884q0 -158 66.5 -230.5t201.5 -72.5t201 72.5t66 230.5v884h376v-848q0 -330 -156 -491t-487 -161q-336 0 -494 160.5zM480 1673q-102 81 -120 223h226q12 -63 55.5 -94.5t124.5 -31.5q80 0 123.5 31.5t55.5 94.5h226
q-18 -142 -120 -223t-285 -81q-184 0 -286 81z" />
    <glyph glyph-name="ubreve" unicode="&#x16d;" horiz-adv-x="1244" 
d="M204 88.5q-104 107.5 -104 336.5v672h376v-645q0 -81 31.5 -115t91.5 -34q44 0 89 18.5t73 51.5v724h376v-1097h-309l-25 107h-15q-61 -62 -137.5 -94t-163.5 -32q-179 0 -283 107.5zM342 1327q-100 92 -110 268h224q7 -88 47 -131t116 -43t115.5 42.5t46.5 131.5h225
q-10 -177 -110 -268.5t-277 -91.5t-277 92z" />
    <glyph glyph-name="Uring" unicode="&#x16e;" horiz-adv-x="1523" 
d="M272 140.5q-158 160.5 -158 491.5v848h384v-884q0 -158 66.5 -230.5t201.5 -72.5t201 72.5t66 230.5v884h376v-848q0 -330 -156 -491t-487 -161q-336 0 -494 160.5zM651.5 1603.5q-50.5 27.5 -79 76.5t-28.5 111t28.5 111t79 76.5t114.5 27.5q63 0 113.5 -27.5t79 -76.5
t28.5 -111t-28.5 -111t-79 -76.5t-113.5 -27.5q-64 0 -114.5 27.5zM827.5 1726q23.5 24 23.5 65q0 40 -23.5 64.5t-61.5 24.5t-62 -24.5t-24 -64.5q0 -41 23.5 -65t62.5 -24q38 0 61.5 24z" />
    <glyph glyph-name="uring" unicode="&#x16f;" horiz-adv-x="1244" 
d="M204 88.5q-104 107.5 -104 336.5v672h376v-645q0 -81 31.5 -115t91.5 -34q44 0 89 18.5t73 51.5v724h376v-1097h-309l-25 107h-15q-61 -62 -137.5 -94t-163.5 -32q-179 0 -283 107.5zM504.5 1247.5q-50.5 27.5 -79 76.5t-28.5 111t28.5 111t79 76.5t114.5 27.5
q63 0 113.5 -27.5t79 -76.5t28.5 -111t-28.5 -111t-79 -76.5t-113.5 -27.5q-64 0 -114.5 27.5zM680.5 1370.5q23.5 24.5 23.5 64.5q0 41 -23.5 65t-61.5 24q-39 0 -62.5 -24t-23.5 -65q0 -40 24 -64.5t62 -24.5t61.5 24.5z" />
    <glyph glyph-name="Uhungarumlaut" unicode="&#x170;" horiz-adv-x="1523" 
d="M272 140.5q-158 160.5 -158 491.5v848h384v-884q0 -158 66.5 -230.5t201.5 -72.5t201 72.5t66 230.5v884h376v-848q0 -330 -156 -491t-487 -161q-336 0 -494 160.5zM413 1590l139 310h294l-158 -310h-275zM843 1590l139 310h294l-158 -310h-275z" />
    <glyph glyph-name="uhungarumlaut" unicode="&#x171;" horiz-adv-x="1244" 
d="M204 88.5q-104 107.5 -104 336.5v672h376v-645q0 -81 31.5 -115t91.5 -34q44 0 89 18.5t73 51.5v724h376v-1097h-309l-25 107h-15q-61 -62 -137.5 -94t-163.5 -32q-179 0 -283 107.5zM266 1226l149 390h294l-168 -390h-275zM696 1226l149 390h293l-167 -390h-275z" />
    <glyph glyph-name="Uogonek" unicode="&#x172;" horiz-adv-x="1523" 
d="M1409 1480v-848q0 -249 -88 -401.5t-272 -211.5q-162 -53 -223 -108t-61 -119q0 -98 140 -98q62 0 136 27v-141q-90 -31 -189 -31q-148 0 -223 57t-75 159q0 64 31.5 118t101.5 99q-295 19 -434 179t-139 471v848h384v-884q0 -158 66.5 -230.5t201.5 -72.5t201 72.5
t66 230.5v884h376z" />
    <glyph glyph-name="uogonek" unicode="&#x173;" horiz-adv-x="1244" 
d="M1161 -279v-141q-42 -15 -83 -23.5t-93 -8.5q-135 0 -206.5 58t-71.5 159q0 71 35 129t115 106h-29l-25 107h-15q-61 -62 -137.5 -94t-163.5 -32q-179 0 -283 107.5t-104 336.5v672h376v-645q0 -81 31.5 -115t91.5 -34q44 0 89 18.5t73 51.5v724h376v-1097
q-122 -47 -170 -97.5t-48 -113.5q0 -45 30.5 -70.5t88.5 -25.5q54 0 123 28z" />
    <glyph glyph-name="Wcircumflex" unicode="&#x174;" horiz-adv-x="2339" 
d="M1955 1480h362l-381 -1480h-491l-269 1055l-282 -1055h-491l-381 1480h387l269 -1119l292 1119h421l282 -1138zM1587 1590h-279l-138 175l-139 -175h-279l260 310h316z" />
    <glyph glyph-name="wcircumflex" unicode="&#x175;" horiz-adv-x="1854" 
d="M1477 1097h340l-284 -1097h-412l-190 742l-196 -742h-411l-287 1097h355l161 -694l177 694h412l169 -678zM1316 1226h-265l-123 218l-124 -218h-264l236 390h303z" />
    <glyph glyph-name="Ycircumflex" unicode="&#x176;" horiz-adv-x="1325" 
d="M1372 1480l-515 -862v-618h-384v614l-532 866h404l328 -543l324 543h375zM1080 1590h-279l-138 175l-139 -175h-279l260 310h316z" />
    <glyph glyph-name="ycircumflex" unicode="&#x177;" horiz-adv-x="1205" 
d="M843 1097h369l-527 -1537h-367l152 440h-102l-375 1097h392l228 -756zM991 1226h-265l-123 218l-124 -218h-264l236 390h303z" />
    <glyph glyph-name="Ydieresis" unicode="&#x178;" horiz-adv-x="1325" 
d="M1372 1480l-515 -862v-618h-384v614l-532 866h404l328 -543l324 543h375zM250.5 1629.5q-49.5 42.5 -49.5 120.5q0 79 49.5 121.5t146.5 42.5t147 -42.5t50 -121.5q0 -78 -50 -120.5t-147 -42.5t-146.5 42.5zM781 1629.5q-50 42.5 -50 120.5q0 79 50 121.5t147 42.5
t146.5 -42.5t49.5 -121.5q0 -78 -49.5 -120.5t-146.5 -42.5t-147 42.5z" />
    <glyph glyph-name="Zacute" unicode="&#x179;" horiz-adv-x="1271" 
d="M554 316h658v-316h-1153v210l647 954h-637v316h1132v-210zM466 1590l181 310h394l-237 -310h-338z" />
    <glyph glyph-name="zacute" unicode="&#x17a;" horiz-adv-x="1047" 
d="M530 294h468v-294h-932v239l459 565h-448v293h911v-238zM361 1226l229 390h397l-283 -390h-343z" />
    <glyph glyph-name="Zdotaccent" unicode="&#x17b;" horiz-adv-x="1271" 
d="M554 316h658v-316h-1153v210l647 954h-637v316h1132v-210zM468 1629.5q-57 42.5 -57 120.5q0 79 57 121.5t169 42.5q111 0 168 -42.5t57 -121.5q0 -78 -57 -120.5t-168 -42.5q-112 0 -169 42.5z" />
    <glyph glyph-name="zdotaccent" unicode="&#x17c;" horiz-adv-x="1047" 
d="M530 294h468v-294h-932v239l459 565h-448v293h911v-238zM361 1277.5q-56 48.5 -56 141.5q0 92 56 140.5t172 48.5q115 0 171 -48.5t56 -140.5q0 -93 -56 -141.5t-171 -48.5q-116 0 -172 48.5z" />
    <glyph glyph-name="Zcaron" unicode="&#x17d;" horiz-adv-x="1271" 
d="M554 316h658v-316h-1153v210l647 954h-637v316h1132v-210zM775 1900h279l-259 -310h-316l-260 310h279l139 -175z" />
    <glyph glyph-name="zcaron" unicode="&#x17e;" horiz-adv-x="1047" 
d="M530 294h468v-294h-932v239l459 565h-448v293h911v-238zM657 1616h264l-237 -390h-303l-237 390h265l124 -218z" />
    <glyph glyph-name="uni018F" unicode="&#x18f;" horiz-adv-x="1581" 
d="M1283 1309.5q222 -190.5 222 -586.5q0 -238 -87 -405t-247 -252.5t-376 -85.5q-222 0 -385.5 84t-253.5 252t-90 414v123h1051q-21 126 -87 201t-177 108t-274 33q-99 0 -208 -12t-203 -33v307q102 21 217.5 32t225.5 11q450 0 672 -190.5zM960.5 303q65.5 29 106 96
t54.5 180h-656q13 -111 53.5 -178t109 -97t171.5 -30q96 0 161.5 29z" />
    <glyph glyph-name="florin" unicode="&#x192;" horiz-adv-x="833" 
d="M619.5 1298q-50.5 -43 -50.5 -132v-69h269v-294h-269v-775q0 -152 -61 -261.5t-178.5 -168t-285.5 -58.5q-84 0 -165 12v290q68 -7 104 -7q111 0 162 43t51 132v793h-169v294h169v51q0 152 60.5 261.5t178.5 168t286 58.5q83 0 164 -12v-290q-68 7 -103 7
q-112 0 -162.5 -43z" />
    <glyph glyph-name="Ohorn" unicode="&#x1a0;" horiz-adv-x="1606" 
d="M1477.5 1079q53.5 -146 53.5 -339q0 -250 -88.5 -420t-252 -255t-387.5 -85t-387 85t-251.5 255t-88.5 420t89 420t252 255t386 85q52 0 105 -5t62 -6q96 -10 138 -10q95 0 140 36t45 121q0 62 -15 140h248q20 -70 20 -156q0 -127 -59 -202t-165 -98q102 -95 155.5 -241z
M1052.5 395.5q85.5 107.5 85.5 337.5q0 239 -85.5 349t-249.5 110q-163 0 -248.5 -107t-85.5 -338q0 -241 84.5 -350t249.5 -109q164 0 249.5 107.5z" />
    <glyph glyph-name="ohorn" unicode="&#x1a1;" horiz-adv-x="1238" 
d="M1180.5 1056.5q-48.5 -71.5 -137.5 -101.5q134 -143 134 -408q0 -185 -67 -312t-192.5 -191.5t-298.5 -64.5t-298.5 64t-192.5 191t-67 311q0 281 146 425.5t421 144.5q43 0 122 -7q52 -4 67 -4q88 0 132 35.5t44 117.5q0 63 -16 139h233q11 -39 15 -75t4 -79
q0 -114 -48.5 -185.5zM719.5 286q39.5 26 60 88.5t20.5 170.5q0 109 -20.5 172.5t-60 89.5t-100.5 26t-100.5 -26t-60 -89t-20.5 -171q0 -109 20.5 -172t60 -89t100.5 -26t100.5 26z" />
    <glyph glyph-name="Uhorn" unicode="&#x1af;" horiz-adv-x="1527" 
d="M272 140.5q-158 160.5 -158 491.5v848h384v-884q0 -158 66.5 -230.5t201.5 -72.5t201 72.5t66 230.5v884h121q94 0 139 35.5t45 120.5q0 62 -15 140h248q20 -70 20 -156q0 -113 -47.5 -184.5t-134.5 -100.5v-703q0 -330 -156 -491t-487 -161q-336 0 -494 160.5z" />
    <glyph glyph-name="uhorn" unicode="&#x1b0;" horiz-adv-x="1282" 
d="M1271 1051.5q-47 -71.5 -134 -101.5v-950h-309l-25 107h-15q-61 -62 -137.5 -94t-163.5 -32q-179 0 -283 107.5t-104 336.5v672h376v-645q0 -81 31.5 -115t91.5 -34q44 0 89 18.5t73 51.5v724h145q88 0 132 35.5t44 117.5q0 63 -16 139h233q11 -39 15 -75t4 -79
q0 -112 -47 -183.5z" />
    <glyph glyph-name="uni01C4" unicode="&#x1c4;" horiz-adv-x="2758" 
d="M334 -10q-113 6 -214 18v1436q110 24 242 38.5t257 14.5q421 0 631 -185.5t210 -571.5q0 -265 -100 -432t-302 -245.5t-512 -78.5q-99 0 -212 6zM884.5 337.5q91.5 44.5 137 143t45.5 261.5q0 160 -47 259t-139 143.5t-233 44.5q-33 0 -73 -3.5t-71 -9.5v-878
q62 -5 145 -5q144 0 235.5 44.5zM2041 316h658v-316h-1153v210l647 954h-637v316h1132v-210zM2262 1900h279l-259 -310h-316l-260 310h279l139 -175z" />
    <glyph glyph-name="uni01C5" unicode="&#x1c5;" horiz-adv-x="2583" 
d="M334 -10q-113 6 -214 18v1436q110 24 242 38.5t257 14.5q421 0 631 -185.5t210 -571.5q0 -265 -100 -432t-302 -245.5t-512 -78.5q-99 0 -212 6zM884.5 337.5q91.5 44.5 137 143t45.5 261.5q0 160 -47 259t-139 143.5t-233 44.5q-33 0 -73 -3.5t-71 -9.5v-878
q62 -5 145 -5q144 0 235.5 44.5zM2066 294h468v-294h-932v239l459 565h-448v293h911v-238zM2207 1580h279l-259 -310h-316l-260 310h279l139 -175z" />
    <glyph glyph-name="uni01C6" unicode="&#x1c6;" horiz-adv-x="2313" 
d="M286 38q-103 58 -164 180.5t-61 307.5q0 285 156.5 437.5t456.5 152.5q45 0 109 -6v506h376v-1616h-315l-23 114h-16q-48 -63 -121 -98.5t-167 -35.5q-128 0 -231 58zM714.5 298.5q40.5 13.5 68.5 39.5v485q-50 10 -108 10q-121 0 -179 -65t-58 -214q0 -148 49.5 -208.5
t143.5 -60.5q43 0 83.5 13.5zM1796 294h468v-294h-932v239l459 565h-448v293h911v-238zM1923 1616h264l-237 -390h-303l-237 390h265l124 -218z" />
    <glyph glyph-name="uni01C7" unicode="&#x1c7;" horiz-adv-x="1800" 
d="M120 0v1480h384v-1163h663v-317h-1047zM1149 -190q83 110 116 220.5t33 270.5v1179h382v-1169q-2 -193 -67 -350t-221 -313z" />
    <glyph glyph-name="uni01C8" unicode="&#x1c8;" horiz-adv-x="1767" 
d="M120 0v1480h384v-1163h663v-317h-1047zM1134 -314q84 111 116.5 221t32.5 271v919h377v-904q0 -194 -65 -351.5t-219 -315.5zM1295 1278.5q-56 48.5 -56 141.5q0 92 56 140.5t172 48.5q115 0 171 -48.5t56 -140.5q0 -93 -56 -141.5t-171 -48.5q-116 0 -172 48.5z" />
    <glyph glyph-name="uni01C9" unicode="&#x1c9;" horiz-adv-x="1181" 
d="M107 0v1616h376v-1616h-376zM548 -314q84 111 116.5 221t32.5 271v919h377v-904q0 -194 -65 -351.5t-219 -315.5zM709 1278.5q-56 48.5 -56 141.5q0 92 56 140.5t172 48.5q115 0 171 -48.5t56 -140.5q0 -93 -56 -141.5t-171 -48.5q-116 0 -172 48.5z" />
    <glyph glyph-name="uni01CA" unicode="&#x1ca;" horiz-adv-x="2194" 
d="M1089 1480h360v-1480h-384l-585 906v-906h-360v1480h384l585 -906v906zM1543 -190q83 110 116 220.5t33 270.5v1179h382v-1169q-2 -193 -67 -350t-221 -313z" />
    <glyph glyph-name="uni01CB" unicode="&#x1cb;" horiz-adv-x="2161" 
d="M1089 1480h360v-1480h-384l-585 906v-906h-360v1480h384l585 -906v906zM1528 -314q84 111 116.5 221t32.5 271v919h377v-904q0 -194 -65 -351.5t-219 -315.5zM1689 1278.5q-56 48.5 -56 141.5q0 92 56 140.5t172 48.5q115 0 171 -48.5t56 -140.5q0 -93 -56 -141.5
t-171 -48.5q-116 0 -172 48.5z" />
    <glyph glyph-name="uni01CC" unicode="&#x1cc;" horiz-adv-x="1845" 
d="M107 1097h309l25 -107h17q58 61 138.5 93t175.5 32q176 0 279 -108.5t103 -337.5v-669h-376v645q0 81 -32.5 114.5t-96.5 33.5q-47 0 -92 -18.5t-74 -51.5v-723h-376v1097zM1212 -314q84 111 116.5 221t32.5 271v919h377v-904q0 -194 -65 -351.5t-219 -315.5z
M1373 1278.5q-56 48.5 -56 141.5q0 92 56 140.5t172 48.5q115 0 171 -48.5t56 -140.5q0 -93 -56 -141.5t-171 -48.5q-116 0 -172 48.5z" />
    <glyph glyph-name="Gcaron" unicode="&#x1e6;" horiz-adv-x="1454" 
d="M1336 720v-705q-209 -34 -383 -34q-441 0 -659 187t-218 568q0 376 223.5 570t657.5 194q175 0 334 -36v-313q-148 33 -299 33q-184 0 -297 -46.5t-166.5 -146t-52.5 -261.5q0 -224 109.5 -330t336.5 -106q38 0 58 1v425h356zM964 1900h279l-259 -310h-316l-260 310h279
l139 -175z" />
    <glyph glyph-name="gcaron" unicode="&#x1e7;" horiz-adv-x="1266" 
d="M139 -417v291q183 -48 352 -48q155 0 223.5 54.5t68.5 176.5v61h-17q-48 -59 -118 -90.5t-159 -31.5q-117 0 -214 59t-155.5 178.5t-58.5 293.5q0 284 161.5 435.5t484.5 152.5q115 0 236.5 -17t215.5 -48v-922q0 -206 -69 -335.5t-209.5 -191t-358.5 -61.5
q-207 0 -383 43zM715.5 310q38.5 11 67.5 33v479q-55 11 -109 11q-118 0 -177 -65t-59 -210q0 -143 49.5 -201t148.5 -58q41 0 79.5 11zM783 1616h264l-237 -390h-303l-237 390h265l124 -218z" />
    <glyph glyph-name="uni01EA" unicode="&#x1ea;" horiz-adv-x="1606" 
d="M843.5 -87q-62.5 -56 -62.5 -122q0 -98 140 -98q59 0 136 28v-141q-88 -32 -189 -32q-148 0 -223.5 57.5t-75.5 159.5q0 66 32 120.5t103 98.5q-196 18 -336.5 108.5t-216 253t-75.5 394.5q0 250 89 420t252 255t386 85q224 0 387 -85t252 -255.5t89 -419.5
q0 -209 -62.5 -359t-169.5 -239.5t-244 -128.5q-149 -44 -211.5 -100zM553.5 397q84.5 -109 249.5 -109q164 0 249.5 107.5t85.5 337.5q0 239 -85.5 349t-249.5 110q-163 0 -248.5 -107t-85.5 -338q0 -241 84.5 -350z" />
    <glyph glyph-name="uni01EB" unicode="&#x1eb;" horiz-adv-x="1238" 
d="M921 1050.5q125 -64.5 190.5 -192t65.5 -311.5q0 -208 -83.5 -342t-240.5 -190q-141 -52 -193 -105t-52 -115q0 -47 31 -74.5t89 -27.5q55 0 120 27l2 -140q-41 -16 -81.5 -24t-93.5 -8q-135 0 -206.5 58t-71.5 159q0 68 30 122t96 97q-219 26 -340.5 169t-121.5 392
q0 281 145 425.5t413 144.5q177 0 302 -64.5zM719.5 286q39.5 26 60 88.5t20.5 170.5q0 109 -20.5 172.5t-60 89.5t-100.5 26t-100.5 -26t-60 -89t-20.5 -171q0 -109 20.5 -172t60 -89t100.5 -26t100.5 26z" />
    <glyph glyph-name="uni01F1" unicode="&#x1f1;" horiz-adv-x="2758" 
d="M334 -10q-113 6 -214 18v1436q110 24 242 38.5t257 14.5q421 0 631 -185.5t210 -571.5q0 -265 -100 -432t-302 -245.5t-512 -78.5q-99 0 -212 6zM884.5 337.5q91.5 44.5 137 143t45.5 261.5q0 160 -47 259t-139 143.5t-233 44.5q-33 0 -73 -3.5t-71 -9.5v-878
q62 -5 145 -5q144 0 235.5 44.5zM2041 316h658v-316h-1153v210l647 954h-637v316h1132v-210z" />
    <glyph glyph-name="uni01F2" unicode="&#x1f2;" horiz-adv-x="2583" 
d="M334 -10q-113 6 -214 18v1436q110 24 242 38.5t257 14.5q421 0 631 -185.5t210 -571.5q0 -265 -100 -432t-302 -245.5t-512 -78.5q-99 0 -212 6zM884.5 337.5q91.5 44.5 137 143t45.5 261.5q0 160 -47 259t-139 143.5t-233 44.5q-33 0 -73 -3.5t-71 -9.5v-878
q62 -5 145 -5q144 0 235.5 44.5zM2066 294h468v-294h-932v239l459 565h-448v293h911v-238z" />
    <glyph glyph-name="uni01F3" unicode="&#x1f3;" horiz-adv-x="2313" 
d="M286 38q-103 58 -164 180.5t-61 307.5q0 285 156.5 437.5t456.5 152.5q45 0 109 -6v506h376v-1616h-315l-23 114h-16q-48 -63 -121 -98.5t-167 -35.5q-128 0 -231 58zM714.5 298.5q40.5 13.5 68.5 39.5v485q-50 10 -108 10q-121 0 -179 -65t-58 -214q0 -148 49.5 -208.5
t143.5 -60.5q43 0 83.5 13.5zM1796 294h468v-294h-932v239l459 565h-448v293h911v-238z" />
    <glyph glyph-name="uni01F4" unicode="&#x1f4;" horiz-adv-x="1454" 
d="M1336 720v-705q-209 -34 -383 -34q-441 0 -659 187t-218 568q0 376 223.5 570t657.5 194q175 0 334 -36v-313q-148 33 -299 33q-184 0 -297 -46.5t-166.5 -146t-52.5 -261.5q0 -224 109.5 -330t336.5 -106q38 0 58 1v425h356zM655 1590l181 310h394l-237 -310h-338z" />
    <glyph glyph-name="uni01F5" unicode="&#x1f5;" horiz-adv-x="1266" 
d="M139 -417v291q183 -48 352 -48q155 0 223.5 54.5t68.5 176.5v61h-17q-48 -59 -118 -90.5t-159 -31.5q-117 0 -214 59t-155.5 178.5t-58.5 293.5q0 284 161.5 435.5t484.5 152.5q115 0 236.5 -17t215.5 -48v-922q0 -206 -69 -335.5t-209.5 -191t-358.5 -61.5
q-207 0 -383 43zM715.5 310q38.5 11 67.5 33v479q-55 11 -109 11q-118 0 -177 -65t-59 -210q0 -143 49.5 -201t148.5 -58q41 0 79.5 11zM487 1226l229 390h397l-283 -390h-343z" />
    <glyph glyph-name="Aringacute" unicode="&#x1fa;" horiz-adv-x="1497" 
d="M1113 0l-107 365h-519l-106 -365h-372l459 1480h562l459 -1480h-376zM575 667h343l-172 586zM945 1871q25 -48 25 -105q0 -62 -28.5 -111t-79 -76.5t-113.5 -27.5q-64 0 -114.5 27.5t-79 76.5t-28.5 111t28.5 111t79 76.5t114.5 27.5q13 0 35 -2l100 125h266zM810.5 1701
q23.5 24 23.5 65q0 40 -23.5 64.5t-61.5 24.5t-62 -24.5t-24 -64.5q0 -41 23.5 -65t62.5 -24q38 0 61.5 24z" />
    <glyph glyph-name="aringacute" unicode="&#x1fb;" horiz-adv-x="1149" 
d="M823 1068.5q116 -46.5 171 -152.5t55 -288v-628h-308l-26 104h-17q-46 -64 -118 -94.5t-163 -30.5q-113 0 -195.5 41t-125.5 114t-43 169q0 162 114.5 250.5t361.5 103.5l154 10q-2 62 -25.5 98t-74 52t-138.5 16q-67 0 -147.5 -11t-150.5 -32v279q82 22 180.5 34
t187.5 12q192 0 308 -46.5zM617 247q36 11 66 35v181l-114 -8q-76 -5 -111.5 -34.5t-35.5 -81.5q0 -50 31.5 -76.5t90.5 -26.5q37 0 73 11zM766 1542q26 -47 26 -107q0 -62 -28.5 -111t-79 -76.5t-113.5 -27.5q-64 0 -114.5 27.5t-79 76.5t-28.5 111t28.5 111t79 76.5
t114.5 27.5q11 0 33 -2l102 132h266zM632.5 1370.5q23.5 24.5 23.5 64.5q0 41 -23.5 65t-61.5 24q-39 0 -62.5 -24t-23.5 -65q0 -40 24 -64.5t62 -24.5t61.5 24.5z" />
    <glyph glyph-name="AEacute" unicode="&#x1fc;" horiz-adv-x="2063" 
d="M1346 304h646v-304h-1001l-28 364h-472l-107 -364h-375l460 1480h1513v-304h-712l23 -268h585v-304h-558zM581 668h359l-40 508h-170zM892 1590l181 310h394l-237 -310h-338z" />
    <glyph glyph-name="aeacute" unicode="&#x1fd;" horiz-adv-x="1745" 
d="M1695 442h-645q6 -69 35 -108.5t93 -57t176 -17.5q121 0 278 32v-278q-165 -34 -330 -34q-171 0 -290.5 37t-194.5 114q-141 -151 -365 -151q-130 0 -219.5 40.5t-134.5 114t-45 172.5q0 163 118 255t364 92h151q0 68 -24 107t-76.5 56t-142.5 17q-66 0 -145.5 -11
t-149.5 -32v279q174 46 350 46q140 0 236.5 -30.5t155.5 -95.5q61 61 145 93.5t186 32.5q149 0 255.5 -66.5t162.5 -196t56 -314.5v-96zM1088 830q-37 -52 -39 -177h298q-2 126 -37.5 177.5t-109.5 51.5q-75 0 -112 -52zM637 252.5q41 15.5 81 52.5q-20 62 -28 145h-116
q-152 0 -152 -113q0 -49 32.5 -74.5t93.5 -25.5q48 0 89 15.5zM702 1226l229 390h397l-283 -390h-343z" />
    <glyph glyph-name="Oslashacute" unicode="&#x1fe;" horiz-adv-x="1606" 
d="M1486 1052q45 -137 45 -312q0 -249 -89 -419t-252.5 -255.5t-386.5 -85.5q-235 0 -402 93l-102 -129l-153 121l103 131q-85 96 -129 232.5t-44 311.5q0 250 89 420t252 255t386 85q236 0 402 -93l102 129l152 -121l-103 -130q85 -96 130 -233zM498 511l496 628
q-77 53 -191 53q-163 0 -248.5 -107t-85.5 -338q0 -140 29 -236zM1052.5 395.5q85.5 107.5 85.5 337.5q0 141 -30 237l-497 -630q75 -52 192 -52q164 0 249.5 107.5zM631 1590l181 310h394l-237 -310h-338z" />
    <glyph glyph-name="oslashacute" unicode="&#x1ff;" horiz-adv-x="1238" 
d="M1140.5 789.5q36.5 -105.5 36.5 -242.5q0 -185 -67 -312t-192.5 -191.5t-298.5 -64.5q-151 0 -265 48l-70 -95l-148 110l66 89q-141 147 -141 414q0 281 145 425.5t413 144.5q151 0 262 -46l70 96l147 -110l-64 -88q70 -72 106.5 -177.5zM513 811.5q-42 -26.5 -64 -90.5
t-22 -174q0 -71 9 -122l282 391q-39 22 -99 22q-64 0 -106 -26.5zM726 281.5q42 26.5 63.5 90t21.5 173.5q0 71 -10 129l-285 -395q40 -24 103 -24q65 0 107 26.5zM444 1226l229 390h397l-283 -390h-343z" />
    <glyph glyph-name="uni0200" unicode="&#x200;" horiz-adv-x="1497" 
d="M1113 0l-107 365h-519l-106 -365h-372l459 1480h562l459 -1480h-376zM575 667h343l-172 586zM395 1590l-158 310h294l139 -310h-275zM825 1590l-158 310h294l139 -310h-275z" />
    <glyph glyph-name="uni0201" unicode="&#x201;" horiz-adv-x="1149" 
d="M823 1068.5q116 -46.5 171 -152.5t55 -288v-628h-308l-26 104h-17q-46 -64 -118 -94.5t-163 -30.5q-113 0 -195.5 41t-125.5 114t-43 169q0 162 114.5 250.5t361.5 103.5l154 10q-2 62 -25.5 98t-74 52t-138.5 16q-67 0 -147.5 -11t-150.5 -32v279q82 22 180.5 34
t187.5 12q192 0 308 -46.5zM617 247q36 11 66 35v181l-114 -8q-76 -5 -111.5 -34.5t-35.5 -81.5q0 -50 31.5 -76.5t90.5 -26.5q37 0 73 11zM218 1226l-167 390h294l148 -390h-275zM648 1226l-168 390h294l149 -390h-275z" />
    <glyph glyph-name="uni0202" unicode="&#x202;" horiz-adv-x="1497" 
d="M1113 0l-107 365h-519l-106 -365h-372l459 1480h562l459 -1480h-376zM575 667h343l-172 586zM462 1817.5q102 80.5 285 80.5q184 0 286 -81t120 -223h-226q-12 63 -55.5 94.5t-124.5 31.5q-80 0 -123.5 -31.5t-55.5 -94.5h-226q18 143 120 223.5z" />
    <glyph glyph-name="uni0203" unicode="&#x203;" horiz-adv-x="1149" 
d="M823 1068.5q116 -46.5 171 -152.5t55 -288v-628h-308l-26 104h-17q-46 -64 -118 -94.5t-163 -30.5q-113 0 -195.5 41t-125.5 114t-43 169q0 162 114.5 250.5t361.5 103.5l154 10q-2 62 -25.5 98t-74 52t-138.5 16q-67 0 -147.5 -11t-150.5 -32v279q82 22 180.5 34
t187.5 12q192 0 308 -46.5zM617 247q36 11 66 35v181l-114 -8q-76 -5 -111.5 -34.5t-35.5 -81.5q0 -50 31.5 -76.5t90.5 -26.5q37 0 73 11zM293 1522.5q99 91.5 277 91.5q176 0 277 -92t111 -268h-225q-7 90 -47 133t-116 43q-78 0 -116.5 -42.5t-45.5 -133.5h-224
q10 177 109 268.5z" />
    <glyph glyph-name="uni0204" unicode="&#x204;" horiz-adv-x="1286" 
d="M499 304h715v-304h-1094v1480h1084v-304h-705v-268h602v-304h-602v-300zM331 1590l-158 310h294l139 -310h-275zM761 1590l-158 310h294l139 -310h-275z" />
    <glyph glyph-name="uni0205" unicode="&#x205;" horiz-adv-x="1138" 
d="M1088 442h-653q6 -69 35.5 -108.5t95 -57t181.5 -17.5q120 0 278 32v-278q-165 -34 -332 -34q-221 0 -360 59.5t-205.5 185t-66.5 325.5q0 178 61.5 305t180.5 194t290 67q243 0 369 -149.5t126 -428.5v-95zM473.5 830q-37.5 -52 -39.5 -177h306q-2 125 -38.5 177
t-112.5 52q-78 0 -115.5 -52zM233 1226l-167 390h294l148 -390h-275zM663 1226l-168 390h294l149 -390h-275z" />
    <glyph glyph-name="uni0206" unicode="&#x206;" horiz-adv-x="1286" 
d="M499 304h715v-304h-1094v1480h1084v-304h-705v-268h602v-304h-602v-300zM398 1817.5q102 80.5 285 80.5q184 0 286 -81t120 -223h-226q-12 63 -55.5 94.5t-124.5 31.5q-80 0 -123.5 -31.5t-55.5 -94.5h-226q18 143 120 223.5z" />
    <glyph glyph-name="uni0207" unicode="&#x207;" horiz-adv-x="1138" 
d="M1088 442h-653q6 -69 35.5 -108.5t95 -57t181.5 -17.5q120 0 278 32v-278q-165 -34 -332 -34q-221 0 -360 59.5t-205.5 185t-66.5 325.5q0 178 61.5 305t180.5 194t290 67q243 0 369 -149.5t126 -428.5v-95zM473.5 830q-37.5 -52 -39.5 -177h306q-2 125 -38.5 177
t-112.5 52q-78 0 -115.5 -52zM308 1522.5q99 91.5 277 91.5q176 0 277 -92t111 -268h-225q-7 90 -47 133t-116 43q-78 0 -116.5 -42.5t-45.5 -133.5h-224q10 177 109 268.5z" />
    <glyph glyph-name="uni0208" unicode="&#x208;" horiz-adv-x="624" 
d="M120 0v1480h384v-1480h-384zM-41 1590l-158 310h294l139 -310h-275zM389 1590l-158 310h294l139 -310h-275z" />
    <glyph glyph-name="uni0209" unicode="&#x209;" horiz-adv-x="591" 
d="M107 0v1097h377v-1097h-377zM-58 1226l-167 390h294l148 -390h-275zM372 1226l-168 390h294l149 -390h-275z" />
    <glyph glyph-name="uni020A" unicode="&#x20a;" horiz-adv-x="624" 
d="M120 0v1480h384v-1480h-384zM26 1817.5q102 80.5 285 80.5q184 0 286 -81t120 -223h-226q-12 63 -55.5 94.5t-124.5 31.5q-80 0 -123.5 -31.5t-55.5 -94.5h-226q18 143 120 223.5z" />
    <glyph glyph-name="uni020B" unicode="&#x20b;" horiz-adv-x="591" 
d="M107 0v1097h377v-1097h-377zM17 1522.5q99 91.5 277 91.5q176 0 277 -92t111 -268h-225q-7 90 -47 133t-116 43q-78 0 -116.5 -42.5t-45.5 -133.5h-224q10 177 109 268.5z" />
    <glyph glyph-name="uni020C" unicode="&#x20c;" horiz-adv-x="1606" 
d="M417 65q-163 85 -252 255t-89 420t89 420t252 255t386 85t386.5 -85t252.5 -255.5t89 -419.5t-89 -419t-252.5 -255.5t-386.5 -85.5t-386 85zM1052.5 395.5q85.5 107.5 85.5 337.5q0 239 -85.5 349t-249.5 110q-163 0 -248.5 -107t-85.5 -338q0 -241 84.5 -350
t249.5 -109q164 0 249.5 107.5zM450 1590l-158 310h294l139 -310h-275zM880 1590l-158 310h294l139 -310h-275z" />
    <glyph glyph-name="uni020D" unicode="&#x20d;" horiz-adv-x="1238" 
d="M320.5 43q-125.5 64 -192.5 191t-67 311q0 281 145 425.5t413 144.5q177 0 302 -64.5t190.5 -192t65.5 -311.5q0 -185 -67 -312t-192.5 -191.5t-298.5 -64.5t-298.5 64zM719.5 286q39.5 26 60 88.5t20.5 170.5q0 109 -20.5 172.5t-60 89.5t-100.5 26t-100.5 -26t-60 -89
t-20.5 -171q0 -109 20.5 -172t60 -89t100.5 -26t100.5 26zM266 1226l-167 390h294l148 -390h-275zM696 1226l-168 390h294l149 -390h-275z" />
    <glyph glyph-name="uni020E" unicode="&#x20e;" horiz-adv-x="1606" 
d="M417 65q-163 85 -252 255t-89 420t89 420t252 255t386 85t386.5 -85t252.5 -255.5t89 -419.5t-89 -419t-252.5 -255.5t-386.5 -85.5t-386 85zM1052.5 395.5q85.5 107.5 85.5 337.5q0 239 -85.5 349t-249.5 110q-163 0 -248.5 -107t-85.5 -338q0 -241 84.5 -350
t249.5 -109q164 0 249.5 107.5zM517 1817.5q102 80.5 285 80.5q184 0 286 -81t120 -223h-226q-12 63 -55.5 94.5t-124.5 31.5q-80 0 -123.5 -31.5t-55.5 -94.5h-226q18 143 120 223.5z" />
    <glyph glyph-name="uni020F" unicode="&#x20f;" horiz-adv-x="1238" 
d="M320.5 43q-125.5 64 -192.5 191t-67 311q0 281 145 425.5t413 144.5q177 0 302 -64.5t190.5 -192t65.5 -311.5q0 -185 -67 -312t-192.5 -191.5t-298.5 -64.5t-298.5 64zM719.5 286q39.5 26 60 88.5t20.5 170.5q0 109 -20.5 172.5t-60 89.5t-100.5 26t-100.5 -26t-60 -89
t-20.5 -171q0 -109 20.5 -172t60 -89t100.5 -26t100.5 26zM341 1522.5q99 91.5 277 91.5q176 0 277 -92t111 -268h-225q-7 90 -47 133t-116 43q-78 0 -116.5 -42.5t-45.5 -133.5h-224q10 177 109 268.5z" />
    <glyph glyph-name="uni0210" unicode="&#x210;" horiz-adv-x="1403" 
d="M980 0l-350 518q-30 0 -82 2q-34 2 -51 2v-522h-377v1444q110 25 238 40t249 15q331 0 497 -120.5t166 -368.5q1 -153 -70.5 -261t-204.5 -166l401 -583h-416zM497 809q74 -9 147 -9q136 0 202 49.5t66 160.5q0 108 -65 159t-198 51q-79 0 -152 -13v-398zM341 1590
l-158 310h294l139 -310h-275zM771 1590l-158 310h294l139 -310h-275z" />
    <glyph glyph-name="uni0211" unicode="&#x211;" horiz-adv-x="841" 
d="M107 1097h307l29 -140h17q41 80 113 118.5t167 38.5q41 0 89 -8v-339q-44 10 -113 10t-133.5 -23.5t-99.5 -64.5v-689h-376v1097zM114 1226l-167 390h294l148 -390h-275zM544 1226l-168 390h294l149 -390h-275z" />
    <glyph glyph-name="uni0212" unicode="&#x212;" horiz-adv-x="1403" 
d="M980 0l-350 518q-30 0 -82 2q-34 2 -51 2v-522h-377v1444q110 25 238 40t249 15q331 0 497 -120.5t166 -368.5q1 -153 -70.5 -261t-204.5 -166l401 -583h-416zM497 809q74 -9 147 -9q136 0 202 49.5t66 160.5q0 108 -65 159t-198 51q-79 0 -152 -13v-398zM408 1817.5
q102 80.5 285 80.5q184 0 286 -81t120 -223h-226q-12 63 -55.5 94.5t-124.5 31.5q-80 0 -123.5 -31.5t-55.5 -94.5h-226q18 143 120 223.5z" />
    <glyph glyph-name="uni0213" unicode="&#x213;" horiz-adv-x="841" 
d="M107 1097h307l29 -140h17q41 80 113 118.5t167 38.5q41 0 89 -8v-339q-44 10 -113 10t-133.5 -23.5t-99.5 -64.5v-689h-376v1097zM189 1522.5q99 91.5 277 91.5q176 0 277 -92t111 -268h-225q-7 90 -47 133t-116 43q-78 0 -116.5 -42.5t-45.5 -133.5h-224
q10 177 109 268.5z" />
    <glyph glyph-name="uni0214" unicode="&#x214;" horiz-adv-x="1523" 
d="M272 140.5q-158 160.5 -158 491.5v848h384v-884q0 -158 66.5 -230.5t201.5 -72.5t201 72.5t66 230.5v884h376v-848q0 -330 -156 -491t-487 -161q-336 0 -494 160.5zM413 1590l-158 310h294l139 -310h-275zM843 1590l-158 310h294l139 -310h-275z" />
    <glyph glyph-name="uni0215" unicode="&#x215;" horiz-adv-x="1244" 
d="M204 88.5q-104 107.5 -104 336.5v672h376v-645q0 -81 31.5 -115t91.5 -34q44 0 89 18.5t73 51.5v724h376v-1097h-309l-25 107h-15q-61 -62 -137.5 -94t-163.5 -32q-179 0 -283 107.5zM266 1226l-167 390h294l148 -390h-275zM696 1226l-168 390h294l149 -390h-275z" />
    <glyph glyph-name="uni0216" unicode="&#x216;" horiz-adv-x="1523" 
d="M272 140.5q-158 160.5 -158 491.5v848h384v-884q0 -158 66.5 -230.5t201.5 -72.5t201 72.5t66 230.5v884h376v-848q0 -330 -156 -491t-487 -161q-336 0 -494 160.5zM480 1817.5q102 80.5 285 80.5q184 0 286 -81t120 -223h-226q-12 63 -55.5 94.5t-124.5 31.5
q-80 0 -123.5 -31.5t-55.5 -94.5h-226q18 143 120 223.5z" />
    <glyph glyph-name="uni0217" unicode="&#x217;" horiz-adv-x="1244" 
d="M204 88.5q-104 107.5 -104 336.5v672h376v-645q0 -81 31.5 -115t91.5 -34q44 0 89 18.5t73 51.5v724h376v-1097h-309l-25 107h-15q-61 -62 -137.5 -94t-163.5 -32q-179 0 -283 107.5zM341 1522.5q99 91.5 277 91.5q176 0 277 -92t111 -268h-225q-7 90 -47 133t-116 43
q-78 0 -116.5 -42.5t-45.5 -133.5h-224q10 177 109 268.5z" />
    <glyph glyph-name="Scommaaccent" unicode="&#x218;" horiz-adv-x="1186" 
d="M292.5 -3q-111.5 17 -204.5 48v309q92 -31 209 -49t219 -18q130 0 185.5 35t55.5 102q0 37 -16 61.5t-56 44t-115 39.5l-122 32q-200 49 -300 155.5t-100 278.5q0 223 163.5 344t484.5 121q101 0 194 -11.5t168 -31.5v-309q-69 21 -159 33t-180 12q-159 0 -224.5 -36
t-65.5 -102q0 -34 14 -57.5t48.5 -41.5t97.5 -35l122 -31q220 -54 323.5 -160.5t103.5 -279.5q0 -144 -74 -250t-213.5 -163t-332.5 -57q-114 0 -225.5 17zM810 -279q0 -56 -24 -120t-62 -109h-232q47 86 60 147q-153 15 -153 122q0 124 205 124q206 0 206 -164z" />
    <glyph glyph-name="scommaaccent" unicode="&#x219;" horiz-adv-x="1007" 
d="M84 28v271q80 -24 173 -37t188 -13q93 0 132 20.5t39 60.5q0 29 -16.5 44t-57.5 22l-188 33q-156 28 -229 107t-73 216q0 112 60 193t182.5 125.5t303.5 44.5q82 0 162.5 -9.5t142.5 -26.5v-271q-63 17 -139.5 27t-154.5 10q-118 0 -163.5 -23t-45.5 -62q0 -25 17 -39.5
t58 -22.5l188 -33q151 -27 226 -102t75 -220q0 -113 -60.5 -194.5t-175.5 -125.5t-276 -44q-209 0 -368 49zM713 -279q0 -56 -24 -120t-62 -109h-232q47 86 60 147q-153 15 -153 122q0 124 205 124q206 0 206 -164z" />
    <glyph glyph-name="uni021A" unicode="&#x21a;" horiz-adv-x="1325" 
d="M470 0v1163h-457v317h1299v-317h-457v-1163h-385zM868 -279q0 -56 -24 -120t-62 -109h-232q47 86 60 147q-153 15 -153 122q0 124 205 124q206 0 206 -164z" />
    <glyph glyph-name="uni021B" unicode="&#x21b;" horiz-adv-x="877" 
d="M835 298v-294q-45 -11 -103.5 -18t-111.5 -7q-213 0 -322.5 105.5t-109.5 324.5v395h-169v293h169l69 383h307v-383h268v-293h-268v-337q0 -69 16 -108t50.5 -55.5t95.5 -16.5q41 0 109 11zM717 -279q0 -56 -24 -120t-62 -109h-232q47 86 60 147q-153 15 -153 122
q0 124 205 124q206 0 206 -164z" />
    <glyph glyph-name="uni022A" unicode="&#x22a;" horiz-adv-x="1606" 
d="M417 65q-163 85 -252 255t-89 420t89 420t252 255t386 85t386.5 -85t252.5 -255.5t89 -419.5t-89 -419t-252.5 -255.5t-386.5 -85.5t-386 85zM1052.5 395.5q85.5 107.5 85.5 337.5q0 239 -85.5 349t-249.5 110q-163 0 -248.5 -107t-85.5 -338q0 -241 84.5 -350
t249.5 -109q164 0 249.5 107.5zM390.5 1629.5q-49.5 42.5 -49.5 120.5q0 79 49.5 121.5t146.5 42.5t147 -42.5t50 -121.5q0 -78 -50 -120.5t-147 -42.5t-146.5 42.5zM921 1629.5q-50 42.5 -50 120.5q0 79 50 121.5t147 42.5t146.5 -42.5t49.5 -121.5q0 -78 -49.5 -120.5
t-146.5 -42.5t-147 42.5zM412 2011v222h781v-222h-781z" />
    <glyph glyph-name="uni022B" unicode="&#x22b;" horiz-adv-x="1238" 
d="M320.5 43q-125.5 64 -192.5 191t-67 311q0 281 145 425.5t413 144.5q177 0 302 -64.5t190.5 -192t65.5 -311.5q0 -185 -67 -312t-192.5 -191.5t-298.5 -64.5t-298.5 64zM719.5 286q39.5 26 60 88.5t20.5 170.5q0 109 -20.5 172.5t-60 89.5t-100.5 26t-100.5 -26t-60 -89
t-20.5 -171q0 -109 20.5 -172t60 -89t100.5 -26t100.5 26zM217 1283.5q-51 48.5 -51 135.5q0 86 51 134.5t147 48.5q95 0 146 -48.5t51 -134.5q0 -87 -51 -135.5t-146 -48.5q-96 0 -147 48.5zM727 1283.5q-51 48.5 -51 135.5q0 86 51 134.5t146 48.5q96 0 147 -48.5
t51 -134.5q0 -87 -51 -135.5t-147 -48.5q-95 0 -146 48.5zM247 1704v221h743v-221h-743z" />
    <glyph glyph-name="uni022C" unicode="&#x22c;" horiz-adv-x="1606" 
d="M417 65q-163 85 -252 255t-89 420t89 420t252 255t386 85t386.5 -85t252.5 -255.5t89 -419.5t-89 -419t-252.5 -255.5t-386.5 -85.5t-386 85zM1052.5 395.5q85.5 107.5 85.5 337.5q0 239 -85.5 349t-249.5 110q-163 0 -248.5 -107t-85.5 -338q0 -241 84.5 -350
t249.5 -109q164 0 249.5 107.5zM887.5 1611q-43.5 10 -102.5 30q-56 18 -92 27t-76 9q-62 0 -110 -16.5t-99 -53.5v210q43 39 94.5 57t121.5 18q50 0 92 -10t104 -31q54 -19 91 -28t77 -9q62 0 110 16.5t99 53.5v-210q-42 -38 -93 -55.5t-123 -17.5q-50 0 -93.5 10z
M412 2011v222h781v-222h-781z" />
    <glyph glyph-name="uni022D" unicode="&#x22d;" horiz-adv-x="1238" 
d="M320.5 43q-125.5 64 -192.5 191t-67 311q0 281 145 425.5t413 144.5q177 0 302 -64.5t190.5 -192t65.5 -311.5q0 -185 -67 -312t-192.5 -191.5t-298.5 -64.5t-298.5 64zM719.5 286q39.5 26 60 88.5t20.5 170.5q0 109 -20.5 172.5t-60 89.5t-100.5 26t-100.5 -26t-60 -89
t-20.5 -171q0 -109 20.5 -172t60 -89t100.5 -26t100.5 26zM697.5 1277q-39.5 13 -96.5 38q-52 23 -85 34t-68 11q-58 0 -105 -21t-96 -68v230q42 42 92 61.5t116 19.5q45 0 84.5 -13t96.5 -38q52 -23 85 -34t68 -11q58 0 105 21t96 67v-229q-42 -42 -92 -61.5t-116 -19.5
q-45 0 -84.5 13zM247 1704v221h743v-221h-743z" />
    <glyph glyph-name="uni0230" unicode="&#x230;" horiz-adv-x="1606" 
d="M417 65q-163 85 -252 255t-89 420t89 420t252 255t386 85t386.5 -85t252.5 -255.5t89 -419.5t-89 -419t-252.5 -255.5t-386.5 -85.5t-386 85zM1052.5 395.5q85.5 107.5 85.5 337.5q0 239 -85.5 349t-249.5 110q-163 0 -248.5 -107t-85.5 -338q0 -241 84.5 -350
t249.5 -109q164 0 249.5 107.5zM634 1629.5q-57 42.5 -57 120.5q0 79 57 121.5t169 42.5q111 0 168 -42.5t57 -121.5q0 -78 -57 -120.5t-168 -42.5q-112 0 -169 42.5zM412 2011v222h781v-222h-781z" />
    <glyph glyph-name="uni0231" unicode="&#x231;" horiz-adv-x="1238" 
d="M320.5 43q-125.5 64 -192.5 191t-67 311q0 281 145 425.5t413 144.5q177 0 302 -64.5t190.5 -192t65.5 -311.5q0 -185 -67 -312t-192.5 -191.5t-298.5 -64.5t-298.5 64zM719.5 286q39.5 26 60 88.5t20.5 170.5q0 109 -20.5 172.5t-60 89.5t-100.5 26t-100.5 -26t-60 -89
t-20.5 -171q0 -109 20.5 -172t60 -89t100.5 -26t100.5 26zM447 1277.5q-56 48.5 -56 141.5q0 92 56 140.5t172 48.5q115 0 171 -48.5t56 -140.5q0 -93 -56 -141.5t-171 -48.5q-116 0 -172 48.5zM247 1707v221h743v-221h-743z" />
    <glyph glyph-name="uni0232" unicode="&#x232;" horiz-adv-x="1325" 
d="M1372 1480l-515 -862v-618h-384v614l-532 866h404l328 -543l324 543h375zM272 1635v222h781v-222h-781z" />
    <glyph glyph-name="uni0233" unicode="&#x233;" horiz-adv-x="1205" 
d="M843 1097h369l-527 -1537h-367l152 440h-102l-375 1097h392l228 -756zM231 1309v221h743v-221h-743z" />
    <glyph glyph-name="uni0237" unicode="&#x237;" horiz-adv-x="591" 
d="M-42 -314q84 111 116.5 221t32.5 271v919h377v-904q0 -194 -65 -351.5t-219 -315.5z" />
    <glyph glyph-name="uni0259" unicode="&#x259;" horiz-adv-x="1138" 
d="M805 1058.5q139 -59.5 205.5 -185t66.5 -325.5q0 -178 -61.5 -305t-180.5 -194t-290 -67q-243 0 -369 149.5t-126 428.5v95h653q-6 69 -35.5 108.5t-95 57t-181.5 17.5q-120 0 -278 -32v278q165 34 332 34q221 0 360 -59.5zM664.5 267q37.5 52 39.5 177h-306
q2 -125 38.5 -177t112.5 -52q78 0 115.5 52z" />
    <glyph glyph-name="uni02BB" unicode="&#x2bb;" horiz-adv-x="1169" 
d="M790 1357q0 -124 -205 -124q-206 0 -206 163q0 57 24 120.5t62 109.5h232q-47 -86 -60 -147q153 -15 153 -122z" />
    <glyph glyph-name="uni02BC" unicode="&#x2bc;" horiz-adv-x="1169" 
d="M995 1462q0 -57 -23.5 -120.5t-61.5 -108.5h-232q46 85 59 146q-152 15 -152 123q0 60 50 92t154 32q206 0 206 -164z" />
    <glyph glyph-name="uni02BE" unicode="&#x2be;" horiz-adv-x="1169" 
d="M585 1346q38 0 61.5 24.5t23.5 64.5q0 41 -23.5 65t-61.5 24v126q63 0 113.5 -27.5t79 -76.5t28.5 -111t-28.5 -111t-79 -76.5t-113.5 -27.5v126z" />
    <glyph glyph-name="uni02BF" unicode="&#x2bf;" horiz-adv-x="1169" 
d="M470.5 1247.5q-50.5 27.5 -79 76.5t-28.5 111t28.5 111t79 76.5t114.5 27.5v-126q-39 0 -62.5 -24t-23.5 -65q0 -40 24 -64.5t62 -24.5v-126q-64 0 -114.5 27.5z" />
    <glyph glyph-name="circumflex" unicode="&#x2c6;" horiz-adv-x="1169" 
d="M973 1226h-265l-123 218l-124 -218h-264l236 390h303z" />
    <glyph glyph-name="caron" unicode="&#x2c7;" horiz-adv-x="1169" 
d="M709 1616h264l-237 -390h-303l-237 390h265l124 -218z" />
    <glyph glyph-name="uni02C8" unicode="&#x2c8;" horiz-adv-x="1169" 
d="M503 1218v400h163v-400h-163z" />
    <glyph glyph-name="uni02C9" unicode="&#x2c9;" horiz-adv-x="1169" 
d="M213 1309v221h743v-221h-743z" />
    <glyph glyph-name="uni02CA" unicode="&#x2ca;" horiz-adv-x="1169" 
d="M403 1226l229 390h417l-283 -390h-363z" />
    <glyph glyph-name="uni02CB" unicode="&#x2cb;" horiz-adv-x="1169" 
d="M403 1226l-282 390h416l229 -390h-363z" />
    <glyph glyph-name="uni02CC" unicode="&#x2cc;" horiz-adv-x="1169" 
d="M503 -440v400h163v-400h-163z" />
    <glyph glyph-name="breve" unicode="&#x2d8;" horiz-adv-x="1169" 
d="M308 1327q-100 92 -110 268h224q7 -88 47 -131t116 -43t115.5 42.5t46.5 131.5h225q-10 -177 -110 -268.5t-277 -91.5t-277 92z" />
    <glyph glyph-name="dotaccent" unicode="&#x2d9;" horiz-adv-x="1169" 
d="M413 1277.5q-56 48.5 -56 141.5q0 92 56 140.5t172 48.5q115 0 171 -48.5t56 -140.5q0 -93 -56 -141.5t-171 -48.5q-116 0 -172 48.5z" />
    <glyph glyph-name="ring" unicode="&#x2da;" horiz-adv-x="1169" 
d="M470.5 1247.5q-50.5 27.5 -79 76.5t-28.5 111t28.5 111t79 76.5t114.5 27.5q63 0 113.5 -27.5t79 -76.5t28.5 -111t-28.5 -111t-79 -76.5t-113.5 -27.5q-64 0 -114.5 27.5zM646.5 1370.5q23.5 24.5 23.5 64.5q0 41 -23.5 65t-61.5 24q-39 0 -62.5 -24t-23.5 -65
q0 -40 24 -64.5t62 -24.5t61.5 24.5z" />
    <glyph glyph-name="ogonek" unicode="&#x2db;" horiz-adv-x="1169" 
d="M153.5 -394q-71.5 58 -71.5 159q0 102 75 178.5t255 133.5l100 -77q-122 -47 -170 -97.5t-48 -113.5q0 -45 30.5 -70.5t88.5 -25.5q54 0 123 28v-141q-42 -15 -83 -23.5t-93 -8.5q-135 0 -206.5 58z" />
    <glyph glyph-name="tilde" unicode="&#x2dc;" horiz-adv-x="1169" 
d="M663.5 1277q-39.5 13 -96.5 38q-52 23 -85 34t-68 11q-58 0 -105 -21t-96 -68v230q42 42 92 61.5t116 19.5q45 0 84.5 -13t96.5 -38q52 -23 85 -34t68 -11q58 0 105 21t96 67v-229q-42 -42 -92 -61.5t-116 -19.5q-45 0 -84.5 13z" />
    <glyph glyph-name="hungarumlaut" unicode="&#x2dd;" horiz-adv-x="1169" 
d="M232 1226l149 390h294l-168 -390h-275zM662 1226l149 390h293l-167 -390h-275z" />
    <glyph glyph-name="gravecomb" unicode="&#x300;" horiz-adv-x="0" 
d="M-756 1226l-283 390h397l229 -390h-343z" />
    <glyph glyph-name="acutecomb" unicode="&#x301;" horiz-adv-x="0" 
d="M-756 1226l229 390h397l-283 -390h-343z" />
    <glyph glyph-name="uni0302" unicode="&#x302;" horiz-adv-x="0" 
d="M-196 1226h-265l-123 218l-124 -218h-264l236 390h303z" />
    <glyph glyph-name="tildecomb" unicode="&#x303;" horiz-adv-x="0" 
d="M-505.5 1277q-39.5 13 -96.5 38q-52 23 -85 34t-68 11q-58 0 -105 -21t-96 -68v230q42 42 92 61.5t116 19.5q45 0 84.5 -13t96.5 -38q52 -23 85 -34t68 -11q58 0 105 21t96 67v-229q-42 -42 -92 -61.5t-116 -19.5q-45 0 -84.5 13z" />
    <glyph glyph-name="uni0304" unicode="&#x304;" horiz-adv-x="0" 
d="M-956 1309v221h743v-221h-743z" />
    <glyph glyph-name="uni0306" unicode="&#x306;" horiz-adv-x="0" 
d="M-861 1327q-100 92 -110 268h224q7 -88 47 -131t116 -43t115.5 42.5t46.5 131.5h225q-10 -177 -110 -268.5t-277 -91.5t-277 92z" />
    <glyph glyph-name="uni0307" unicode="&#x307;" horiz-adv-x="0" 
d="M-756 1277.5q-56 48.5 -56 141.5q0 92 56 140.5t172 48.5q115 0 171 -48.5t56 -140.5q0 -93 -56 -141.5t-171 -48.5q-116 0 -172 48.5z" />
    <glyph glyph-name="uni0308" unicode="&#x308;" horiz-adv-x="0" 
d="M-986 1283.5q-51 48.5 -51 135.5q0 86 51 134.5t147 48.5q95 0 146 -48.5t51 -134.5q0 -87 -51 -135.5t-146 -48.5q-96 0 -147 48.5zM-476 1283.5q-51 48.5 -51 135.5q0 86 51 134.5t146 48.5q96 0 147 -48.5t51 -134.5q0 -87 -51 -135.5t-147 -48.5q-95 0 -146 48.5z
" />
    <glyph glyph-name="hookabovecomb" unicode="&#x309;" horiz-adv-x="0" 
d="M-647 1318q26 34 69 66q27 20 38.5 32.5t11.5 29.5q0 22 -21.5 32t-69.5 10q-83 0 -168 -24v138q39 12 94 19t103 7q131 0 193.5 -38.5t62.5 -119.5q0 -36 -11.5 -61.5t-28.5 -42.5t-45 -38q-36 -27 -53.5 -48t-20.5 -54h-183q3 58 29 92z" />
    <glyph glyph-name="uni030A" unicode="&#x30a;" horiz-adv-x="0" 
d="M-698.5 1247.5q-50.5 27.5 -79 76.5t-28.5 111t28.5 111t79 76.5t114.5 27.5q63 0 113.5 -27.5t79 -76.5t28.5 -111t-28.5 -111t-79 -76.5t-113.5 -27.5q-64 0 -114.5 27.5zM-522.5 1370.5q23.5 24.5 23.5 64.5q0 41 -23.5 65t-61.5 24q-39 0 -62.5 -24t-23.5 -65
q0 -40 24 -64.5t62 -24.5t61.5 24.5z" />
    <glyph glyph-name="uni030B" unicode="&#x30b;" horiz-adv-x="0" 
d="M-937 1226l149 390h294l-168 -390h-275zM-507 1226l149 390h293l-167 -390h-275z" />
    <glyph glyph-name="uni030C" unicode="&#x30c;" horiz-adv-x="0" 
d="M-460 1616h264l-237 -390h-303l-237 390h265l124 -218z" />
    <glyph glyph-name="uni030F" unicode="&#x30f;" horiz-adv-x="0" 
d="M-937 1226l-167 390h294l148 -390h-275zM-507 1226l-168 390h294l149 -390h-275z" />
    <glyph glyph-name="uni0311" unicode="&#x311;" horiz-adv-x="0" 
d="M-862 1522.5q99 91.5 277 91.5q176 0 277 -92t111 -268h-225q-7 90 -47 133t-116 43q-78 0 -116.5 -42.5t-45.5 -133.5h-224q10 177 109 268.5z" />
    <glyph glyph-name="uni0312" unicode="&#x312;" horiz-adv-x="0" 
d="M-379 1357q0 -124 -205 -124q-206 0 -206 163q0 57 24 120.5t62 109.5h232q-47 -86 -60 -147q153 -15 153 -122z" />
    <glyph glyph-name="uni031B" unicode="&#x31b;" horiz-adv-x="0" 
d="M-757 1480h118q87 0 131 35.5t44 117.5q0 60 -15 139h232q20 -70 20 -155q0 -155 -88 -231t-243 -76h-199v170z" />
    <glyph glyph-name="dotbelowcomb" unicode="&#x323;" horiz-adv-x="0" 
d="M-731 -426q-51 48 -51 132t51.5 131.5t146.5 47.5t146 -47.5t51 -131.5t-51 -132t-146 -48q-96 0 -147 48z" />
    <glyph glyph-name="uni0324" unicode="&#x324;" horiz-adv-x="0" 
d="M-986 -434q-51 48 -51 135t51 135.5t147 48.5q95 0 146 -48.5t51 -135.5t-51 -135t-146 -48q-96 0 -147 48zM-476 -434q-51 48 -51 135t51 135.5t146 48.5q96 0 147 -48.5t51 -135.5t-51 -135t-147 -48q-95 0 -146 48z" />
    <glyph glyph-name="uni0326" unicode="&#x326;" horiz-adv-x="0" 
d="M-379 -279q0 -56 -24 -120t-62 -109h-232q47 86 60 147q-153 15 -153 122q0 124 205 124q206 0 206 -164z" />
    <glyph glyph-name="uni0327" unicode="&#x327;" horiz-adv-x="0" 
d="M-362 -144.5q42 -46.5 42 -118.5q0 -89 -68.5 -139t-203.5 -50q-97 0 -185 30v139q37 -15 83 -22.5t84 -7.5q49 0 73 15.5t24 50.5q0 68 -98 68h-49v199h175v-102q81 -16 123 -62.5z" />
    <glyph glyph-name="uni0328" unicode="&#x328;" horiz-adv-x="0" 
d="M-1015.5 -394q-71.5 58 -71.5 159q0 102 75 178.5t255 133.5l100 -77q-122 -47 -170 -97.5t-48 -113.5q0 -45 30.5 -70.5t88.5 -25.5q54 0 123 28v-141q-42 -15 -83 -23.5t-93 -8.5q-135 0 -206.5 58z" />
    <glyph glyph-name="uni032E" unicode="&#x32e;" horiz-adv-x="0" 
d="M-865 -383.5q-101 86.5 -106 241.5h224q6 -144 163 -144q78 0 118 36t44 108h225q-6 -155 -107 -241.5t-280 -86.5q-180 0 -281 86.5z" />
    <glyph glyph-name="uni0331" unicode="&#x331;" horiz-adv-x="0" 
d="M-952 -401v220h735v-220h-735z" />
    <glyph glyph-name="uni0394" unicode="&#x394;" horiz-adv-x="1497" 
d="M1030 1480l459 -1480h-1480l459 1480h562zM746 1254l-278 -952h558z" />
    <glyph glyph-name="uni03A9" unicode="&#x3a9;" horiz-adv-x="1606" 
d="M1476 521q-55 -130 -160 -226h215v-295h-636v236q127 124 185 250t58 291q0 209 -86 312t-250 103q-162 0 -247.5 -103.5t-85.5 -311.5q0 -165 57.5 -291.5t185.5 -249.5v-236h-636v295h214q-104 95 -159 225.5t-55 288.5q0 216 89 372t252.5 237.5t384.5 81.5
q222 0 386.5 -81.5t253.5 -237.5t89 -372q0 -158 -55 -288z" />
    <glyph glyph-name="uni03BC" unicode="&#x3bc;" horiz-adv-x="1244" 
d="M1137 1097v-1097h-309l-25 107h-15q-44 -62 -100 -94t-119 -32q-51 0 -93 16v-437h-376v1536h376v-644q0 -81 31.5 -115t91.5 -34q44 0 89 18.5t73 51.5v724h376z" />
    <glyph glyph-name="pi" unicode="&#x3c0;" horiz-adv-x="1481" 
d="M1440 298v-294q-47 -11 -104 -18t-108 -7q-210 0 -318 104t-109 322v399h-237v-804h-376v804h-169v293h1327v-293h-169v-341q0 -68 15.5 -106t49 -54t92.5 -16q40 0 106 11z" />
    <glyph glyph-name="uni1E08" unicode="&#x1e08;" horiz-adv-x="1268" 
d="M1173 1900l-237 -310h-338l181 310h394zM675 1138q-100 -46 -149 -143.5t-49 -254.5q0 -159 48 -256.5t145.5 -142.5t251.5 -45q140 0 296 43v-313q-71 -21 -159 -33.5t-174 -12.5q-34 0 -50 1v-61q92 -14 139 -60t47 -120q0 -91 -72.5 -141.5t-218.5 -50.5
q-108 0 -206 31v138q43 -14 93.5 -22t93.5 -8q59 0 88 15.5t29 50.5t-30 51.5t-88 16.5h-50v176q-288 47 -436 229.5t-148 509.5q0 249 95.5 419.5t280 257.5t449.5 87q167 0 317 -33v-313q-142 30 -285 30q-158 0 -258 -46z" />
    <glyph glyph-name="uni1E09" unicode="&#x1e09;" horiz-adv-x="993" 
d="M1000 1616l-283 -390h-343l229 390h397zM223 972.5q162 142.5 467 142.5q140 0 253 -25v-294q-105 18 -199 18q-156 0 -226.5 -63t-70.5 -202q0 -143 67 -206.5t205 -63.5q50 0 100.5 8t123.5 25v-293q-59 -19 -131 -29.5t-147 -10.5v-61q81 -16 123 -62.5t42 -118.5
q0 -89 -68.5 -139t-203.5 -50q-97 0 -185 30v139q37 -15 83 -22.5t84 -7.5q49 0 73 15.5t24 50.5q0 68 -98 68h-49v172q-211 38 -320 177t-109 376q0 284 162 426.5z" />
    <glyph glyph-name="uni1E0C" unicode="&#x1e0c;" horiz-adv-x="1536" 
d="M334 -10q-113 6 -214 18v1436q110 24 242 38.5t257 14.5q421 0 631 -185.5t210 -571.5q0 -265 -100 -432t-302 -245.5t-512 -78.5q-99 0 -212 6zM884.5 337.5q91.5 44.5 137 143t45.5 261.5q0 160 -47 259t-139 143.5t-233 44.5q-33 0 -73 -3.5t-71 -9.5v-878
q62 -5 145 -5q144 0 235.5 44.5zM532 -400q-57 43 -57 121t57 121t169 43q111 0 168 -43t57 -121t-57 -121t-168 -43q-112 0 -169 43z" />
    <glyph glyph-name="uni1E0D" unicode="&#x1e0d;" horiz-adv-x="1266" 
d="M286 38q-103 58 -164 180.5t-61 307.5q0 285 156.5 437.5t456.5 152.5q45 0 109 -6v506h376v-1616h-315l-23 114h-16q-48 -63 -121 -98.5t-167 -35.5q-128 0 -231 58zM714.5 298.5q40.5 13.5 68.5 39.5v485q-50 10 -108 10q-121 0 -179 -65t-58 -214q0 -148 49.5 -208.5
t143.5 -60.5q43 0 83.5 13.5zM497 -426q-51 48 -51 132t51.5 131.5t146.5 47.5t146 -47.5t51 -131.5t-51 -132t-146 -48q-96 0 -147 48z" />
    <glyph glyph-name="uni1E0E" unicode="&#x1e0e;" horiz-adv-x="1536" 
d="M334 -10q-113 6 -214 18v1436q110 24 242 38.5t257 14.5q421 0 631 -185.5t210 -571.5q0 -265 -100 -432t-302 -245.5t-512 -78.5q-99 0 -212 6zM884.5 337.5q91.5 44.5 137 143t45.5 261.5q0 160 -47 259t-139 143.5t-233 44.5q-33 0 -73 -3.5t-71 -9.5v-878
q62 -5 145 -5q144 0 235.5 44.5zM310 -380v221h781v-221h-781z" />
    <glyph glyph-name="uni1E0F" unicode="&#x1e0f;" horiz-adv-x="1266" 
d="M286 38q-103 58 -164 180.5t-61 307.5q0 285 156.5 437.5t456.5 152.5q45 0 109 -6v506h376v-1616h-315l-23 114h-16q-48 -63 -121 -98.5t-167 -35.5q-128 0 -231 58zM714.5 298.5q40.5 13.5 68.5 39.5v485q-50 10 -108 10q-121 0 -179 -65t-58 -214q0 -148 49.5 -208.5
t143.5 -60.5q43 0 83.5 13.5zM276 -401v220h735v-220h-735z" />
    <glyph glyph-name="uni1E14" unicode="&#x1e14;" horiz-adv-x="1286" 
d="M499 304h715v-304h-1094v1480h1084v-304h-705v-268h602v-304h-602v-300zM494 1972l-237 232h435l181 -232h-379zM293 1635v222h781v-222h-781z" />
    <glyph glyph-name="uni1E15" unicode="&#x1e15;" horiz-adv-x="1138" 
d="M1088 442h-653q6 -69 35.5 -108.5t95 -57t181.5 -17.5q120 0 278 32v-278q-165 -34 -332 -34q-221 0 -360 59.5t-205.5 185t-66.5 325.5q0 178 61.5 305t180.5 194t290 67q243 0 369 -149.5t126 -428.5v-95zM473.5 830q-37.5 -52 -39.5 -177h306q-2 125 -38.5 177
t-112.5 52q-78 0 -115.5 -52zM214 1309v221h743v-221h-743zM416 1670l-237 310h394l182 -310h-339z" />
    <glyph glyph-name="uni1E16" unicode="&#x1e16;" horiz-adv-x="1286" 
d="M499 304h715v-304h-1094v1480h1084v-304h-705v-268h602v-304h-602v-300zM494 1972l181 232h436l-237 -232h-380zM293 1635v222h781v-222h-781z" />
    <glyph glyph-name="uni1E17" unicode="&#x1e17;" horiz-adv-x="1138" 
d="M1088 442h-653q6 -69 35.5 -108.5t95 -57t181.5 -17.5q120 0 278 32v-278q-165 -34 -332 -34q-221 0 -360 59.5t-205.5 185t-66.5 325.5q0 178 61.5 305t180.5 194t290 67q243 0 369 -149.5t126 -428.5v-95zM473.5 830q-37.5 -52 -39.5 -177h306q-2 125 -38.5 177
t-112.5 52q-78 0 -115.5 -52zM214 1309v221h743v-221h-743zM415 1670l181 310h394l-237 -310h-338z" />
    <glyph glyph-name="uni1E1C" unicode="&#x1e1c;" horiz-adv-x="1286" 
d="M398 1673q-102 81 -120 223h226q12 -63 55.5 -94.5t124.5 -31.5q80 0 123.5 31.5t55.5 94.5h226q-18 -142 -120 -223t-285 -81q-184 0 -286 81zM748 0v-80q92 -14 139 -60t47 -120q0 -91 -72.5 -141.5t-218.5 -50.5q-108 0 -206 31v138q43 -14 93.5 -22t93.5 -8
q59 0 88 15.5t29 50.5t-30 51.5t-88 16.5h-50v179h-453v1480h1084v-304h-705v-268h602v-304h-602v-300h715v-304h-466z" />
    <glyph glyph-name="uni1E1D" unicode="&#x1e1d;" horiz-adv-x="1138" 
d="M309 1327q-100 92 -110 268h224q7 -88 47 -131t116 -43t115.5 42.5t46.5 131.5h225q-10 -177 -110 -268.5t-277 -91.5t-277 92zM1088 442h-653q6 -69 35.5 -108.5t95 -57t181.5 -17.5q120 0 278 32v-278q-165 -34 -332 -34h-8v-61q81 -16 123 -62.5t42 -118.5
q0 -89 -68.5 -139t-203.5 -50q-97 0 -185 30v139q37 -15 83 -22.5t84 -7.5q49 0 73 15.5t24 50.5q0 68 -98 68h-49v170q-233 34 -341 169t-108 389q0 178 61.5 305t180.5 194t290 67q243 0 369 -149.5t126 -428.5v-95zM473.5 830q-37.5 -52 -39.5 -177h306q-2 125 -38.5 177
t-112.5 52q-78 0 -115.5 -52z" />
    <glyph glyph-name="uni1E20" unicode="&#x1e20;" horiz-adv-x="1454" 
d="M1336 720v-705q-209 -34 -383 -34q-441 0 -659 187t-218 568q0 376 223.5 570t657.5 194q175 0 334 -36v-313q-148 33 -299 33q-184 0 -297 -46.5t-166.5 -146t-52.5 -261.5q0 -224 109.5 -330t336.5 -106q38 0 58 1v425h356zM435 1635v222h781v-222h-781z" />
    <glyph glyph-name="uni1E21" unicode="&#x1e21;" horiz-adv-x="1266" 
d="M139 -417v291q183 -48 352 -48q155 0 223.5 54.5t68.5 176.5v61h-17q-48 -59 -118 -90.5t-159 -31.5q-117 0 -214 59t-155.5 178.5t-58.5 293.5q0 284 161.5 435.5t484.5 152.5q115 0 236.5 -17t215.5 -48v-922q0 -206 -69 -335.5t-209.5 -191t-358.5 -61.5
q-207 0 -383 43zM715.5 310q38.5 11 67.5 33v479q-55 11 -109 11q-118 0 -177 -65t-59 -210q0 -143 49.5 -201t148.5 -58q41 0 79.5 11zM287 1309v221h743v-221h-743z" />
    <glyph glyph-name="uni1E24" unicode="&#x1e24;" horiz-adv-x="1555" 
d="M120 0v1480h384v-556h547v556h384v-1480h-384v587h-547v-587h-384zM609 -400q-57 43 -57 121t57 121t169 43q111 0 168 -43t57 -121t-57 -121t-168 -43q-112 0 -169 43z" />
    <glyph glyph-name="uni1E25" unicode="&#x1e25;" horiz-adv-x="1254" 
d="M107 1616h376v-625h17q53 61 126.5 92.5t164.5 31.5q105 0 186.5 -46t129 -145.5t47.5 -254.5v-669h-376v643q0 82 -32.5 116t-96.5 34q-47 0 -92 -18.5t-74 -51.5v-723h-376v1616zM484 -426q-51 48 -51 132t51.5 131.5t146.5 47.5t146 -47.5t51 -131.5t-51 -132
t-146 -48q-96 0 -147 48z" />
    <glyph glyph-name="uni1E2A" unicode="&#x1e2a;" horiz-adv-x="1555" 
d="M120 0v1480h384v-556h547v556h384v-1480h-384v587h-547v-587h-384zM491.5 -362.5q-102.5 81.5 -119.5 224.5h226q11 -64 55 -96t125 -32t124.5 32t54.5 96h226q-17 -143 -119 -224.5t-286 -81.5t-286.5 81.5z" />
    <glyph glyph-name="uni1E2B" unicode="&#x1e2b;" horiz-adv-x="1254" 
d="M107 1616h376v-625h17q53 61 126.5 92.5t164.5 31.5q105 0 186.5 -46t129 -145.5t47.5 -254.5v-669h-376v643q0 82 -32.5 116t-96.5 34q-47 0 -92 -18.5t-74 -51.5v-723h-376v1616zM350 -383.5q-101 86.5 -106 241.5h224q6 -144 163 -144q78 0 118 36t44 108h225
q-6 -155 -107 -241.5t-280 -86.5q-180 0 -281 86.5z" />
    <glyph glyph-name="uni1E2E" unicode="&#x1e2e;" horiz-adv-x="624" 
d="M120 0v1480h384v-1480h-384zM122 1972l181 232h436l-237 -232h-380zM-100.5 1629.5q-49.5 42.5 -49.5 120.5q0 79 49.5 121.5t146.5 42.5t147 -42.5t50 -121.5q0 -78 -50 -120.5t-147 -42.5t-146.5 42.5zM430 1629.5q-50 42.5 -50 120.5q0 79 50 121.5t147 42.5
t146.5 -42.5t49.5 -121.5q0 -78 -49.5 -120.5t-146.5 -42.5t-147 42.5z" />
    <glyph glyph-name="uni1E2F" unicode="&#x1e2f;" horiz-adv-x="591" 
d="M107 0v1097h377v-1097h-377zM-107 1283.5q-51 48.5 -51 135.5q0 86 51 134.5t147 48.5q95 0 146 -48.5t51 -134.5q0 -87 -51 -135.5t-146 -48.5q-96 0 -147 48.5zM403 1283.5q-51 48.5 -51 135.5q0 86 51 134.5t146 48.5q96 0 147 -48.5t51 -134.5q0 -87 -51 -135.5
t-147 -48.5q-95 0 -146 48.5zM255 2003l181 310h394l-237 -310h-338z" />
    <glyph glyph-name="uni1E36" unicode="&#x1e36;" horiz-adv-x="1176" 
d="M120 0v1480h384v-1163h663v-317h-1047zM475 -400q-57 43 -57 121t57 121t169 43q111 0 168 -43t57 -121t-57 -121t-168 -43q-112 0 -169 43z" />
    <glyph glyph-name="uni1E37" unicode="&#x1e37;" horiz-adv-x="590" 
d="M107 0v1616h376v-1616h-376zM148 -426q-51 48 -51 132t51.5 131.5t146.5 47.5t146 -47.5t51 -131.5t-51 -132t-146 -48q-96 0 -147 48z" />
    <glyph glyph-name="uni1E3A" unicode="&#x1e3a;" horiz-adv-x="1176" 
d="M120 0v1480h384v-1163h663v-317h-1047zM253 -380v221h781v-221h-781z" />
    <glyph glyph-name="uni1E3B" unicode="&#x1e3b;" horiz-adv-x="590" 
d="M107 0v1616h376v-1616h-376zM-73 -401v220h735v-220h-735z" />
    <glyph glyph-name="uni1E42" unicode="&#x1e42;" horiz-adv-x="1920" 
d="M1327 1480h469v-1480h-358v978l-323 -761h-310l-323 729v-946h-358v1480h469l373 -868zM816 -400q-57 43 -57 121t57 121t169 43q111 0 168 -43t57 -121t-57 -121t-168 -43q-112 0 -169 43z" />
    <glyph glyph-name="uni1E43" unicode="&#x1e43;" horiz-adv-x="1844" 
d="M1643 1007q101 -108 101 -340v-667h-375v646q0 80 -31.5 113.5t-88.5 33.5q-40 0 -75 -13.5t-62 -40.5q2 -38 2 -59v-680h-368v646q0 80 -29 113.5t-85 33.5q-44 0 -84 -18.5t-65 -52.5v-722h-376v1097h309l25 -107h17q116 125 304 125q90 0 162 -34t118 -104
q67 70 151 104t175 34q174 0 275 -108zM784 -426q-51 48 -51 132t51.5 131.5t146.5 47.5t146 -47.5t51 -131.5t-51 -132t-146 -48q-96 0 -147 48z" />
    <glyph glyph-name="uni1E44" unicode="&#x1e44;" horiz-adv-x="1570" 
d="M1089 1480h360v-1480h-384l-585 906v-906h-360v1480h384l585 -906v906zM616 1629.5q-57 42.5 -57 120.5q0 79 57 121.5t169 42.5q111 0 168 -42.5t57 -121.5q0 -78 -57 -120.5t-168 -42.5q-112 0 -169 42.5z" />
    <glyph glyph-name="uni1E45" unicode="&#x1e45;" horiz-adv-x="1254" 
d="M107 1097h309l25 -107h17q58 61 138.5 93t175.5 32q176 0 279 -108.5t103 -337.5v-669h-376v645q0 81 -32.5 114.5t-96.5 33.5q-47 0 -92 -18.5t-74 -51.5v-723h-376v1097zM459 1277.5q-56 48.5 -56 141.5q0 92 56 140.5t172 48.5q115 0 171 -48.5t56 -140.5
q0 -93 -56 -141.5t-171 -48.5q-116 0 -172 48.5z" />
    <glyph glyph-name="uni1E46" unicode="&#x1e46;" horiz-adv-x="1570" 
d="M1089 1480h360v-1480h-384l-585 906v-906h-360v1480h384l585 -906v906zM616 -400q-57 43 -57 121t57 121t169 43q111 0 168 -43t57 -121t-57 -121t-168 -43q-112 0 -169 43z" />
    <glyph glyph-name="uni1E47" unicode="&#x1e47;" horiz-adv-x="1254" 
d="M107 1097h309l25 -107h17q58 61 138.5 93t175.5 32q176 0 279 -108.5t103 -337.5v-669h-376v645q0 81 -32.5 114.5t-96.5 33.5q-47 0 -92 -18.5t-74 -51.5v-723h-376v1097zM484 -426q-51 48 -51 132t51.5 131.5t146.5 47.5t146 -47.5t51 -131.5t-51 -132t-146 -48
q-96 0 -147 48z" />
    <glyph glyph-name="uni1E48" unicode="&#x1e48;" horiz-adv-x="1570" 
d="M1089 1480h360v-1480h-384l-585 906v-906h-360v1480h384l585 -906v906zM394 -380v221h781v-221h-781z" />
    <glyph glyph-name="uni1E49" unicode="&#x1e49;" horiz-adv-x="1254" 
d="M107 1097h309l25 -107h17q58 61 138.5 93t175.5 32q176 0 279 -108.5t103 -337.5v-669h-376v645q0 81 -32.5 114.5t-96.5 33.5q-47 0 -92 -18.5t-74 -51.5v-723h-376v1097zM263 -401v220h735v-220h-735z" />
    <glyph glyph-name="uni1E4C" unicode="&#x1e4c;" horiz-adv-x="1606" 
d="M417 65q-163 85 -252 255t-89 420t89 420t252 255t386 85t386.5 -85t252.5 -255.5t89 -419.5t-89 -419t-252.5 -255.5t-386.5 -85.5t-386 85zM1052.5 395.5q85.5 107.5 85.5 337.5q0 239 -85.5 349t-249.5 110q-163 0 -248.5 -107t-85.5 -338q0 -241 84.5 -350
t249.5 -109q164 0 249.5 107.5zM613 1972l181 232h436l-237 -232h-380zM887.5 1611q-43.5 10 -102.5 30q-56 18 -92 27t-76 9q-62 0 -110 -16.5t-99 -53.5v210q43 39 94.5 57t121.5 18q50 0 92 -10t104 -31q54 -19 91 -28t77 -9q62 0 110 16.5t99 53.5v-210
q-42 -38 -93 -55.5t-123 -17.5q-50 0 -93.5 10z" />
    <glyph glyph-name="uni1E4D" unicode="&#x1e4d;" horiz-adv-x="1238" 
d="M320.5 43q-125.5 64 -192.5 191t-67 311q0 281 145 425.5t413 144.5q177 0 302 -64.5t190.5 -192t65.5 -311.5q0 -185 -67 -312t-192.5 -191.5t-298.5 -64.5t-298.5 64zM719.5 286q39.5 26 60 88.5t20.5 170.5q0 109 -20.5 172.5t-60 89.5t-100.5 26t-100.5 -26t-60 -89
t-20.5 -171q0 -109 20.5 -172t60 -89t100.5 -26t100.5 26zM697.5 1277q-39.5 13 -96.5 38q-52 23 -85 34t-68 11q-58 0 -105 -21t-96 -68v230q42 42 92 61.5t116 19.5q45 0 84.5 -13t96.5 -38q52 -23 85 -34t68 -11q58 0 105 21t96 67v-229q-42 -42 -92 -61.5t-116 -19.5
q-45 0 -84.5 13zM579 2003l181 310h394l-237 -310h-338z" />
    <glyph glyph-name="uni1E4E" unicode="&#x1e4e;" horiz-adv-x="1606" 
d="M417 65q-163 85 -252 255t-89 420t89 420t252 255t386 85t386.5 -85t252.5 -255.5t89 -419.5t-89 -419t-252.5 -255.5t-386.5 -85.5t-386 85zM1052.5 395.5q85.5 107.5 85.5 337.5q0 239 -85.5 349t-249.5 110q-163 0 -248.5 -107t-85.5 -338q0 -241 84.5 -350
t249.5 -109q164 0 249.5 107.5zM887.5 1611q-43.5 10 -102.5 30q-56 18 -92 27t-76 9q-62 0 -110 -16.5t-99 -53.5v210q43 39 94.5 57t121.5 18q50 0 92 -10t104 -31q54 -19 91 -28t77 -9q62 0 110 16.5t99 53.5v-210q-42 -38 -93 -55.5t-123 -17.5q-50 0 -93.5 10z
M390.5 2005.5q-49.5 42.5 -49.5 120.5q0 79 49.5 121.5t146.5 42.5t147 -42.5t50 -121.5q0 -78 -50 -120.5t-147 -42.5t-146.5 42.5zM921 2005.5q-50 42.5 -50 120.5q0 79 50 121.5t147 42.5t146.5 -42.5t49.5 -121.5q0 -78 -49.5 -120.5t-146.5 -42.5t-147 42.5z" />
    <glyph glyph-name="uni1E4F" unicode="&#x1e4f;" horiz-adv-x="1238" 
d="M320.5 43q-125.5 64 -192.5 191t-67 311q0 281 145 425.5t413 144.5q177 0 302 -64.5t190.5 -192t65.5 -311.5q0 -185 -67 -312t-192.5 -191.5t-298.5 -64.5t-298.5 64zM719.5 286q39.5 26 60 88.5t20.5 170.5q0 109 -20.5 172.5t-60 89.5t-100.5 26t-100.5 -26t-60 -89
t-20.5 -171q0 -109 20.5 -172t60 -89t100.5 -26t100.5 26zM697.5 1277q-39.5 13 -96.5 38q-52 23 -85 34t-68 11q-58 0 -105 -21t-96 -68v230q42 42 92 61.5t116 19.5q45 0 84.5 -13t96.5 -38q52 -23 85 -34t68 -11q58 0 105 21t96 67v-229q-42 -42 -92 -61.5t-116 -19.5
q-45 0 -84.5 13zM217 1678.5q-51 48.5 -51 135.5q0 86 51 134.5t147 48.5q95 0 146 -48.5t51 -134.5q0 -87 -51 -135.5t-146 -48.5q-96 0 -147 48.5zM727 1678.5q-51 48.5 -51 135.5q0 86 51 134.5t146 48.5q96 0 147 -48.5t51 -134.5q0 -87 -51 -135.5t-147 -48.5
q-95 0 -146 48.5z" />
    <glyph glyph-name="uni1E50" unicode="&#x1e50;" horiz-adv-x="1606" 
d="M417 65q-163 85 -252 255t-89 420t89 420t252 255t386 85t386.5 -85t252.5 -255.5t89 -419.5t-89 -419t-252.5 -255.5t-386.5 -85.5t-386 85zM1052.5 395.5q85.5 107.5 85.5 337.5q0 239 -85.5 349t-249.5 110q-163 0 -248.5 -107t-85.5 -338q0 -241 84.5 -350
t249.5 -109q164 0 249.5 107.5zM613 1972l-237 232h435l181 -232h-379zM412 1635v222h781v-222h-781z" />
    <glyph glyph-name="uni1E51" unicode="&#x1e51;" horiz-adv-x="1238" 
d="M320.5 43q-125.5 64 -192.5 191t-67 311q0 281 145 425.5t413 144.5q177 0 302 -64.5t190.5 -192t65.5 -311.5q0 -185 -67 -312t-192.5 -191.5t-298.5 -64.5t-298.5 64zM719.5 286q39.5 26 60 88.5t20.5 170.5q0 109 -20.5 172.5t-60 89.5t-100.5 26t-100.5 -26t-60 -89
t-20.5 -171q0 -109 20.5 -172t60 -89t100.5 -26t100.5 26zM247 1309v221h743v-221h-743zM449 1670l-237 310h394l182 -310h-339z" />
    <glyph glyph-name="uni1E52" unicode="&#x1e52;" horiz-adv-x="1606" 
d="M417 65q-163 85 -252 255t-89 420t89 420t252 255t386 85t386.5 -85t252.5 -255.5t89 -419.5t-89 -419t-252.5 -255.5t-386.5 -85.5t-386 85zM1052.5 395.5q85.5 107.5 85.5 337.5q0 239 -85.5 349t-249.5 110q-163 0 -248.5 -107t-85.5 -338q0 -241 84.5 -350
t249.5 -109q164 0 249.5 107.5zM613 1972l181 232h436l-237 -232h-380zM412 1635v222h781v-222h-781z" />
    <glyph glyph-name="uni1E53" unicode="&#x1e53;" horiz-adv-x="1238" 
d="M320.5 43q-125.5 64 -192.5 191t-67 311q0 281 145 425.5t413 144.5q177 0 302 -64.5t190.5 -192t65.5 -311.5q0 -185 -67 -312t-192.5 -191.5t-298.5 -64.5t-298.5 64zM719.5 286q39.5 26 60 88.5t20.5 170.5q0 109 -20.5 172.5t-60 89.5t-100.5 26t-100.5 -26t-60 -89
t-20.5 -171q0 -109 20.5 -172t60 -89t100.5 -26t100.5 26zM247 1309v221h743v-221h-743zM448 1670l181 310h394l-237 -310h-338z" />
    <glyph glyph-name="uni1E5A" unicode="&#x1e5a;" horiz-adv-x="1403" 
d="M980 0l-350 518q-30 0 -82 2q-34 2 -51 2v-522h-377v1444q110 25 238 40t249 15q331 0 497 -120.5t166 -368.5q1 -153 -70.5 -261t-204.5 -166l401 -583h-416zM497 809q74 -9 147 -9q136 0 202 49.5t66 160.5q0 108 -65 159t-198 51q-79 0 -152 -13v-398zM569 -400
q-57 43 -57 121t57 121t169 43q111 0 168 -43t57 -121t-57 -121t-168 -43q-112 0 -169 43z" />
    <glyph glyph-name="uni1E5B" unicode="&#x1e5b;" horiz-adv-x="841" 
d="M107 1097h307l29 -140h17q41 80 113 118.5t167 38.5q41 0 89 -8v-339q-44 10 -113 10t-133.5 -23.5t-99.5 -64.5v-689h-376v1097zM148 -426q-51 48 -51 132t51.5 131.5t146.5 47.5t146 -47.5t51 -131.5t-51 -132t-146 -48q-96 0 -147 48z" />
    <glyph glyph-name="uni1E5E" unicode="&#x1e5e;" horiz-adv-x="1403" 
d="M980 0l-350 518q-30 0 -82 2q-34 2 -51 2v-522h-377v1444q110 25 238 40t249 15q331 0 497 -120.5t166 -368.5q1 -153 -70.5 -261t-204.5 -166l401 -583h-416zM497 809q74 -9 147 -9q136 0 202 49.5t66 160.5q0 108 -65 159t-198 51q-79 0 -152 -13v-398zM347 -380v221
h781v-221h-781z" />
    <glyph glyph-name="uni1E5F" unicode="&#x1e5f;" horiz-adv-x="841" 
d="M107 1097h307l29 -140h17q41 80 113 118.5t167 38.5q41 0 89 -8v-339q-44 10 -113 10t-133.5 -23.5t-99.5 -64.5v-689h-376v1097zM-73 -401v220h735v-220h-735z" />
    <glyph glyph-name="uni1E60" unicode="&#x1e60;" horiz-adv-x="1186" 
d="M292.5 -3q-111.5 17 -204.5 48v309q92 -31 209 -49t219 -18q130 0 185.5 35t55.5 102q0 37 -16 61.5t-56 44t-115 39.5l-122 32q-200 49 -300 155.5t-100 278.5q0 223 163.5 344t484.5 121q101 0 194 -11.5t168 -31.5v-309q-69 21 -159 33t-180 12q-159 0 -224.5 -36
t-65.5 -102q0 -34 14 -57.5t48.5 -41.5t97.5 -35l122 -31q220 -54 323.5 -160.5t103.5 -279.5q0 -144 -74 -250t-213.5 -163t-332.5 -57q-114 0 -225.5 17zM436 1629.5q-57 42.5 -57 120.5q0 79 57 121.5t169 42.5q111 0 168 -42.5t57 -121.5q0 -78 -57 -120.5t-168 -42.5
q-112 0 -169 42.5z" />
    <glyph glyph-name="uni1E61" unicode="&#x1e61;" horiz-adv-x="1007" 
d="M84 28v271q80 -24 173 -37t188 -13q93 0 132 20.5t39 60.5q0 29 -16.5 44t-57.5 22l-188 33q-156 28 -229 107t-73 216q0 112 60 193t182.5 125.5t303.5 44.5q82 0 162.5 -9.5t142.5 -26.5v-271q-63 17 -139.5 27t-154.5 10q-118 0 -163.5 -23t-45.5 -62q0 -25 17 -39.5
t58 -22.5l188 -33q151 -27 226 -102t75 -220q0 -113 -60.5 -194.5t-175.5 -125.5t-276 -44q-209 0 -368 49zM336 1277.5q-56 48.5 -56 141.5q0 92 56 140.5t172 48.5q115 0 171 -48.5t56 -140.5q0 -93 -56 -141.5t-171 -48.5q-116 0 -172 48.5z" />
    <glyph glyph-name="uni1E62" unicode="&#x1e62;" horiz-adv-x="1186" 
d="M292.5 -3q-111.5 17 -204.5 48v309q92 -31 209 -49t219 -18q130 0 185.5 35t55.5 102q0 37 -16 61.5t-56 44t-115 39.5l-122 32q-200 49 -300 155.5t-100 278.5q0 223 163.5 344t484.5 121q101 0 194 -11.5t168 -31.5v-309q-69 21 -159 33t-180 12q-159 0 -224.5 -36
t-65.5 -102q0 -34 14 -57.5t48.5 -41.5t97.5 -35l122 -31q220 -54 323.5 -160.5t103.5 -279.5q0 -144 -74 -250t-213.5 -163t-332.5 -57q-114 0 -225.5 17zM436 -400q-57 43 -57 121t57 121t169 43q111 0 168 -43t57 -121t-57 -121t-168 -43q-112 0 -169 43z" />
    <glyph glyph-name="uni1E63" unicode="&#x1e63;" horiz-adv-x="1007" 
d="M84 28v271q80 -24 173 -37t188 -13q93 0 132 20.5t39 60.5q0 29 -16.5 44t-57.5 22l-188 33q-156 28 -229 107t-73 216q0 112 60 193t182.5 125.5t303.5 44.5q82 0 162.5 -9.5t142.5 -26.5v-271q-63 17 -139.5 27t-154.5 10q-118 0 -163.5 -23t-45.5 -62q0 -25 17 -39.5
t58 -22.5l188 -33q151 -27 226 -102t75 -220q0 -113 -60.5 -194.5t-175.5 -125.5t-276 -44q-209 0 -368 49zM361 -426q-51 48 -51 132t51.5 131.5t146.5 47.5t146 -47.5t51 -131.5t-51 -132t-146 -48q-96 0 -147 48z" />
    <glyph glyph-name="uni1E64" unicode="&#x1e64;" horiz-adv-x="1186" 
d="M292.5 -3q-111.5 17 -204.5 48v309q92 -31 209 -49t219 -18q130 0 185.5 35t55.5 102q0 37 -16 61.5t-56 44t-115 39.5l-122 32q-200 49 -300 155.5t-100 278.5q0 223 163.5 344t484.5 121q101 0 194 -11.5t168 -31.5v-309q-69 21 -159 33t-180 12q-159 0 -224.5 -36
t-65.5 -102q0 -34 14 -57.5t48.5 -41.5t97.5 -35l122 -31q220 -54 323.5 -160.5t103.5 -279.5q0 -144 -74 -250t-213.5 -163t-332.5 -57q-114 0 -225.5 17zM205 1894.5q-46 34.5 -46 98.5q0 63 46 98t136 35q89 0 135.5 -35t46.5 -98q0 -64 -46 -98.5t-136 -34.5t-136 34.5z
M434 1590l181 310h394l-237 -310h-338z" />
    <glyph glyph-name="uni1E65" unicode="&#x1e65;" horiz-adv-x="1007" 
d="M84 28v271q80 -24 173 -37t188 -13q93 0 132 20.5t39 60.5q0 29 -16.5 44t-57.5 22l-188 33q-156 28 -229 107t-73 216q0 112 60 193t182.5 125.5t303.5 44.5q82 0 162.5 -9.5t142.5 -26.5v-271q-63 17 -139.5 27t-154.5 10q-118 0 -163.5 -23t-45.5 -62q0 -25 17 -39.5
t58 -22.5l188 -33q151 -27 226 -102t75 -220q0 -113 -60.5 -194.5t-175.5 -125.5t-276 -44q-209 0 -368 49zM176 1610.5q-46 34.5 -46 98.5q0 63 46 97.5t136 34.5t136 -34.5t46 -97.5q0 -64 -46 -98.5t-136 -34.5t-136 34.5zM336 1226l229 390h397l-283 -390h-343z" />
    <glyph glyph-name="uni1E66" unicode="&#x1e66;" horiz-adv-x="1186" 
d="M292.5 -3q-111.5 17 -204.5 48v309q92 -31 209 -49t219 -18q130 0 185.5 35t55.5 102q0 37 -16 61.5t-56 44t-115 39.5l-122 32q-200 49 -300 155.5t-100 278.5q0 223 163.5 344t484.5 121q101 0 194 -11.5t168 -31.5v-309q-69 21 -159 33t-180 12q-159 0 -224.5 -36
t-65.5 -102q0 -34 14 -57.5t48.5 -41.5t97.5 -35l122 -31q220 -54 323.5 -160.5t103.5 -279.5q0 -144 -74 -250t-213.5 -163t-332.5 -57q-114 0 -225.5 17zM469 1969q-46 35 -46 98q0 64 46 98.5t136 34.5t135.5 -34.5t45.5 -98.5q0 -63 -46 -98t-135 -35q-90 0 -136 35z
M743 1900h279l-259 -310h-316l-260 310h279l139 -175z" />
    <glyph glyph-name="uni1E67" unicode="&#x1e67;" horiz-adv-x="1007" 
d="M84 28v271q80 -24 173 -37t188 -13q93 0 132 20.5t39 60.5q0 29 -16.5 44t-57.5 22l-188 33q-156 28 -229 107t-73 216q0 112 60 193t182.5 125.5t303.5 44.5q82 0 162.5 -9.5t142.5 -26.5v-271q-63 17 -139.5 27t-154.5 10q-118 0 -163.5 -23t-45.5 -62q0 -25 17 -39.5
t58 -22.5l188 -33q151 -27 226 -102t75 -220q0 -113 -60.5 -194.5t-175.5 -125.5t-276 -44q-209 0 -368 49zM372 1684.5q-46 34.5 -46 98.5q0 63 46 98t136 35q89 0 135 -35t46 -98q0 -64 -45.5 -98.5t-135.5 -34.5t-136 34.5zM632 1616h264l-237 -390h-303l-237 390h265
l124 -218z" />
    <glyph glyph-name="uni1E68" unicode="&#x1e68;" horiz-adv-x="1186" 
d="M292.5 -3q-111.5 17 -204.5 48v309q92 -31 209 -49t219 -18q130 0 185.5 35t55.5 102q0 37 -16 61.5t-56 44t-115 39.5l-122 32q-200 49 -300 155.5t-100 278.5q0 223 163.5 344t484.5 121q101 0 194 -11.5t168 -31.5v-309q-69 21 -159 33t-180 12q-159 0 -224.5 -36
t-65.5 -102q0 -34 14 -57.5t48.5 -41.5t97.5 -35l122 -31q220 -54 323.5 -160.5t103.5 -279.5q0 -144 -74 -250t-213.5 -163t-332.5 -57q-114 0 -225.5 17zM436 -400q-57 43 -57 121t57 121t169 43q111 0 168 -43t57 -121t-57 -121t-168 -43q-112 0 -169 43zM436 1629.5
q-57 42.5 -57 120.5q0 79 57 121.5t169 42.5q111 0 168 -42.5t57 -121.5q0 -78 -57 -120.5t-168 -42.5q-112 0 -169 42.5z" />
    <glyph glyph-name="uni1E69" unicode="&#x1e69;" horiz-adv-x="1007" 
d="M84 28v271q80 -24 173 -37t188 -13q93 0 132 20.5t39 60.5q0 29 -16.5 44t-57.5 22l-188 33q-156 28 -229 107t-73 216q0 112 60 193t182.5 125.5t303.5 44.5q82 0 162.5 -9.5t142.5 -26.5v-271q-63 17 -139.5 27t-154.5 10q-118 0 -163.5 -23t-45.5 -62q0 -25 17 -39.5
t58 -22.5l188 -33q151 -27 226 -102t75 -220q0 -113 -60.5 -194.5t-175.5 -125.5t-276 -44q-209 0 -368 49zM361 -426q-51 48 -51 132t51.5 131.5t146.5 47.5t146 -47.5t51 -131.5t-51 -132t-146 -48q-96 0 -147 48zM336 1277.5q-56 48.5 -56 141.5q0 92 56 140.5t172 48.5
q115 0 171 -48.5t56 -140.5q0 -93 -56 -141.5t-171 -48.5q-116 0 -172 48.5z" />
    <glyph glyph-name="uni1E6C" unicode="&#x1e6c;" horiz-adv-x="1325" 
d="M470 0v1163h-457v317h1299v-317h-457v-1163h-385zM494 -400q-57 43 -57 121t57 121t169 43q111 0 168 -43t57 -121t-57 -121t-168 -43q-112 0 -169 43z" />
    <glyph glyph-name="uni1E6D" unicode="&#x1e6d;" horiz-adv-x="877" 
d="M835 298v-294q-45 -11 -103.5 -18t-111.5 -7q-213 0 -322.5 105.5t-109.5 324.5v395h-169v293h169l69 383h307v-383h268v-293h-268v-337q0 -69 16 -108t50.5 -55.5t95.5 -16.5q41 0 109 11zM365 -426q-51 48 -51 132t51.5 131.5t146.5 47.5t146 -47.5t51 -131.5t-51 -132
t-146 -48q-96 0 -147 48z" />
    <glyph glyph-name="uni1E6E" unicode="&#x1e6e;" horiz-adv-x="1325" 
d="M470 0v1163h-457v317h1299v-317h-457v-1163h-385zM272 -380v221h781v-221h-781z" />
    <glyph glyph-name="uni1E6F" unicode="&#x1e6f;" horiz-adv-x="877" 
d="M835 298v-294q-45 -11 -103.5 -18t-111.5 -7q-213 0 -322.5 105.5t-109.5 324.5v395h-169v293h169l69 383h307v-383h268v-293h-268v-337q0 -69 16 -108t50.5 -55.5t95.5 -16.5q41 0 109 11zM144 -401v220h735v-220h-735z" />
    <glyph glyph-name="uni1E78" unicode="&#x1e78;" horiz-adv-x="1523" 
d="M272 140.5q-158 160.5 -158 491.5v848h384v-884q0 -158 66.5 -230.5t201.5 -72.5t201 72.5t66 230.5v884h376v-848q0 -330 -156 -491t-487 -161q-336 0 -494 160.5zM576 1972l181 232h436l-237 -232h-380zM850.5 1611q-43.5 10 -102.5 30q-56 18 -92 27t-76 9
q-62 0 -110 -16.5t-99 -53.5v210q43 39 94.5 57t121.5 18q50 0 92 -10t104 -31q54 -19 91 -28t77 -9q62 0 110 16.5t99 53.5v-210q-42 -38 -93 -55.5t-123 -17.5q-50 0 -93.5 10z" />
    <glyph glyph-name="uni1E79" unicode="&#x1e79;" horiz-adv-x="1244" 
d="M204 88.5q-104 107.5 -104 336.5v672h376v-645q0 -81 31.5 -115t91.5 -34q44 0 89 18.5t73 51.5v724h376v-1097h-309l-25 107h-15q-61 -62 -137.5 -94t-163.5 -32q-179 0 -283 107.5zM697.5 1277q-39.5 13 -96.5 38q-52 23 -85 34t-68 11q-58 0 -105 -21t-96 -68v230
q42 42 92 61.5t116 19.5q45 0 84.5 -13t96.5 -38q52 -23 85 -34t68 -11q58 0 105 21t96 67v-229q-42 -42 -92 -61.5t-116 -19.5q-45 0 -84.5 13zM579 2003l181 310h394l-237 -310h-338z" />
    <glyph glyph-name="uni1E7A" unicode="&#x1e7a;" horiz-adv-x="1523" 
d="M272 140.5q-158 160.5 -158 491.5v848h384v-884q0 -158 66.5 -230.5t201.5 -72.5t201 72.5t66 230.5v884h376v-848q0 -330 -156 -491t-487 -161q-336 0 -494 160.5zM375 1635v222h781v-222h-781zM353.5 2005.5q-49.5 42.5 -49.5 120.5q0 79 49.5 121.5t146.5 42.5
t147 -42.5t50 -121.5q0 -78 -50 -120.5t-147 -42.5t-146.5 42.5zM884 2005.5q-50 42.5 -50 120.5q0 79 50 121.5t147 42.5t146.5 -42.5t49.5 -121.5q0 -78 -49.5 -120.5t-146.5 -42.5t-147 42.5z" />
    <glyph glyph-name="uni1E7B" unicode="&#x1e7b;" horiz-adv-x="1244" 
d="M204 88.5q-104 107.5 -104 336.5v672h376v-645q0 -81 31.5 -115t91.5 -34q44 0 89 18.5t73 51.5v724h376v-1097h-309l-25 107h-15q-61 -62 -137.5 -94t-163.5 -32q-179 0 -283 107.5zM247 1309v221h743v-221h-743zM217 1678.5q-51 48.5 -51 135.5q0 86 51 134.5t147 48.5
q95 0 146 -48.5t51 -134.5q0 -87 -51 -135.5t-146 -48.5q-96 0 -147 48.5zM727 1678.5q-51 48.5 -51 135.5q0 86 51 134.5t146 48.5q96 0 147 -48.5t51 -134.5q0 -87 -51 -135.5t-147 -48.5q-95 0 -146 48.5z" />
    <glyph glyph-name="Wgrave" unicode="&#x1e80;" horiz-adv-x="2339" 
d="M1955 1480h362l-381 -1480h-491l-269 1055l-282 -1055h-491l-381 1480h387l269 -1119l292 1119h421l282 -1138zM1000 1590l-237 310h394l182 -310h-339z" />
    <glyph glyph-name="wgrave" unicode="&#x1e81;" horiz-adv-x="1854" 
d="M1477 1097h340l-284 -1097h-412l-190 742l-196 -742h-411l-287 1097h355l161 -694l177 694h412l169 -678zM756 1226l-283 390h397l229 -390h-343z" />
    <glyph glyph-name="Wacute" unicode="&#x1e82;" horiz-adv-x="2339" 
d="M1955 1480h362l-381 -1480h-491l-269 1055l-282 -1055h-491l-381 1480h387l269 -1119l292 1119h421l282 -1138zM999 1590l181 310h394l-237 -310h-338z" />
    <glyph glyph-name="wacute" unicode="&#x1e83;" horiz-adv-x="1854" 
d="M1477 1097h340l-284 -1097h-412l-190 742l-196 -742h-411l-287 1097h355l161 -694l177 694h412l169 -678zM756 1226l229 390h397l-283 -390h-343z" />
    <glyph glyph-name="Wdieresis" unicode="&#x1e84;" horiz-adv-x="2339" 
d="M1955 1480h362l-381 -1480h-491l-269 1055l-282 -1055h-491l-381 1480h387l269 -1119l292 1119h421l282 -1138zM757.5 1629.5q-49.5 42.5 -49.5 120.5q0 79 49.5 121.5t146.5 42.5t147 -42.5t50 -121.5q0 -78 -50 -120.5t-147 -42.5t-146.5 42.5zM1288 1629.5
q-50 42.5 -50 120.5q0 79 50 121.5t147 42.5t146.5 -42.5t49.5 -121.5q0 -78 -49.5 -120.5t-146.5 -42.5t-147 42.5z" />
    <glyph glyph-name="wdieresis" unicode="&#x1e85;" horiz-adv-x="1854" 
d="M1477 1097h340l-284 -1097h-412l-190 742l-196 -742h-411l-287 1097h355l161 -694l177 694h412l169 -678zM526 1283.5q-51 48.5 -51 135.5q0 86 51 134.5t147 48.5q95 0 146 -48.5t51 -134.5q0 -87 -51 -135.5t-146 -48.5q-96 0 -147 48.5zM1036 1283.5
q-51 48.5 -51 135.5q0 86 51 134.5t146 48.5q96 0 147 -48.5t51 -134.5q0 -87 -51 -135.5t-147 -48.5q-95 0 -146 48.5z" />
    <glyph glyph-name="uni1E8E" unicode="&#x1e8e;" horiz-adv-x="1325" 
d="M1372 1480l-515 -862v-618h-384v614l-532 866h404l328 -543l324 543h375zM494 1629.5q-57 42.5 -57 120.5q0 79 57 121.5t169 42.5q111 0 168 -42.5t57 -121.5q0 -78 -57 -120.5t-168 -42.5q-112 0 -169 42.5z" />
    <glyph glyph-name="uni1E8F" unicode="&#x1e8f;" horiz-adv-x="1205" 
d="M843 1097h369l-527 -1537h-367l152 440h-102l-375 1097h392l228 -756zM431 1277.5q-56 48.5 -56 141.5q0 92 56 140.5t172 48.5q115 0 171 -48.5t56 -140.5q0 -93 -56 -141.5t-171 -48.5q-116 0 -172 48.5z" />
    <glyph glyph-name="uni1E92" unicode="&#x1e92;" horiz-adv-x="1271" 
d="M554 316h658v-316h-1153v210l647 954h-637v316h1132v-210zM464 -400q-57 43 -57 121t57 121t169 43q111 0 168 -43t57 -121t-57 -121t-168 -43q-112 0 -169 43z" />
    <glyph glyph-name="uni1E93" unicode="&#x1e93;" horiz-adv-x="1047" 
d="M530 294h468v-294h-932v239l459 565h-448v293h911v-238zM386 -426q-51 48 -51 132t51.5 131.5t146.5 47.5t146 -47.5t51 -131.5t-51 -132t-146 -48q-96 0 -147 48z" />
    <glyph glyph-name="uni1E97" unicode="&#x1e97;" horiz-adv-x="877" 
d="M835 298v-294q-45 -11 -103.5 -18t-111.5 -7q-213 0 -322.5 105.5t-109.5 324.5v395h-169v293h169l69 383h307v-383h268v-293h-268v-337q0 -69 16 -108t50.5 -55.5t95.5 -16.5q41 0 109 11zM-26 1597.5q-51 48.5 -51 135.5q0 86 51 134.5t147 48.5q95 0 146 -48.5
t51 -134.5q0 -87 -51 -135.5t-146 -48.5q-96 0 -147 48.5zM484 1597.5q-51 48.5 -51 135.5q0 86 51 134.5t146 48.5q96 0 147 -48.5t51 -134.5q0 -87 -51 -135.5t-147 -48.5q-95 0 -146 48.5z" />
    <glyph glyph-name="uni1E9E" unicode="&#x1e9e;" horiz-adv-x="1864" 
d="M1717 729q99 -106 99 -279q0 -145 -71.5 -250.5t-207.5 -162.5t-326 -57q-102 0 -208 16t-195 45v308q87 -28 199 -45t199 -17q127 0 181 35t54 102q0 37 -15.5 62.5t-52 45.5t-102.5 37l-117 32q-193 49 -289 155.5t-96 278.5q0 85 22 152q-34 8 -67 8
q-109 0 -164.5 -60.5t-55.5 -179.5v-955h-384v908q0 285 151 438.5t453 153.5q180 0 314 -60q148 60 365 60q91 0 178.5 -10.5t157.5 -28.5v-309q-67 19 -151.5 30t-158.5 11q-156 0 -220 -36t-64 -102q0 -51 31 -81t113 -53l117 -31q212 -55 311 -161z" />
    <glyph glyph-name="uni1EA0" unicode="&#x1ea0;" horiz-adv-x="1497" 
d="M1113 0l-107 365h-519l-106 -365h-372l459 1480h562l459 -1480h-376zM575 667h343l-172 586zM580 -400q-57 43 -57 121t57 121t169 43q111 0 168 -43t57 -121t-57 -121t-168 -43q-112 0 -169 43z" />
    <glyph glyph-name="uni1EA1" unicode="&#x1ea1;" horiz-adv-x="1149" 
d="M823 1068.5q116 -46.5 171 -152.5t55 -288v-628h-308l-26 104h-17q-46 -64 -118 -94.5t-163 -30.5q-113 0 -195.5 41t-125.5 114t-43 169q0 162 114.5 250.5t361.5 103.5l154 10q-2 62 -25.5 98t-74 52t-138.5 16q-67 0 -147.5 -11t-150.5 -32v279q82 22 180.5 34
t187.5 12q192 0 308 -46.5zM617 247q36 11 66 35v181l-114 -8q-76 -5 -111.5 -34.5t-35.5 -81.5q0 -50 31.5 -76.5t90.5 -26.5q37 0 73 11zM426 -426q-51 48 -51 132t51.5 131.5t146.5 47.5t146 -47.5t51 -131.5t-51 -132t-146 -48q-96 0 -147 48z" />
    <glyph glyph-name="uni1EA2" unicode="&#x1ea2;" horiz-adv-x="1497" 
d="M1113 0l-107 365h-519l-106 -365h-372l459 1480h562l459 -1480h-376zM575 667h343l-172 586zM688 1660.5q29 25.5 79 49.5q28 13 41.5 22.5t13.5 21.5q0 18 -25.5 26t-81.5 8q-98 0 -192 -22v134q43 11 105 17.5t116 6.5q139 0 205.5 -35t66.5 -106q0 -43 -26 -68
t-75 -53q-37 -21 -55 -36t-21 -36h-183q3 45 32 70.5z" />
    <glyph glyph-name="uni1EA3" unicode="&#x1ea3;" horiz-adv-x="1149" 
d="M823 1068.5q116 -46.5 171 -152.5t55 -288v-628h-308l-26 104h-17q-46 -64 -118 -94.5t-163 -30.5q-113 0 -195.5 41t-125.5 114t-43 169q0 162 114.5 250.5t361.5 103.5l154 10q-2 62 -25.5 98t-74 52t-138.5 16q-67 0 -147.5 -11t-150.5 -32v279q82 22 180.5 34
t187.5 12q192 0 308 -46.5zM617 247q36 11 66 35v181l-114 -8q-76 -5 -111.5 -34.5t-35.5 -81.5q0 -50 31.5 -76.5t90.5 -26.5q37 0 73 11zM508 1318q26 34 69 66q27 20 38.5 32.5t11.5 29.5q0 22 -21.5 32t-69.5 10q-83 0 -168 -24v138q39 12 94 19t103 7
q131 0 193.5 -38.5t62.5 -119.5q0 -36 -11.5 -61.5t-28.5 -42.5t-45 -38q-36 -27 -53.5 -48t-20.5 -54h-183q3 58 29 92z" />
    <glyph glyph-name="uni1EA4" unicode="&#x1ea4;" horiz-adv-x="1497" 
d="M1113 0l-107 365h-519l-106 -365h-372l459 1480h562l459 -1480h-376zM575 667h343l-172 586zM1113 2064h249l-157 -241h-199zM590 1862h316l259 -272h-279l-138 155l-139 -155h-279z" />
    <glyph glyph-name="uni1EA5" unicode="&#x1ea5;" horiz-adv-x="1149" 
d="M823 1068.5q116 -46.5 171 -152.5t55 -288v-628h-308l-26 104h-17q-46 -64 -118 -94.5t-163 -30.5q-113 0 -195.5 41t-125.5 114t-43 169q0 162 114.5 250.5t361.5 103.5l154 10q-2 62 -25.5 98t-74 52t-138.5 16q-67 0 -147.5 -11t-150.5 -32v279q82 22 180.5 34
t187.5 12q192 0 308 -46.5zM617 247q36 11 66 35v181l-114 -8q-76 -5 -111.5 -34.5t-35.5 -81.5q0 -50 31.5 -76.5t90.5 -26.5q37 0 73 11zM986 1868h315l-237 -270h-259zM419 1616h303l237 -390h-265l-123 218l-124 -218h-264z" />
    <glyph glyph-name="uni1EA6" unicode="&#x1ea6;" horiz-adv-x="1497" 
d="M1113 0l-107 365h-519l-106 -365h-372l459 1480h562l459 -1480h-376zM575 667h343l-172 586zM1242 1823h-199l-156 241h249zM590 1862h316l259 -272h-279l-138 155l-139 -155h-279z" />
    <glyph glyph-name="uni1EA7" unicode="&#x1ea7;" horiz-adv-x="1149" 
d="M823 1068.5q116 -46.5 171 -152.5t55 -288v-628h-308l-26 104h-17q-46 -64 -118 -94.5t-163 -30.5q-113 0 -195.5 41t-125.5 114t-43 169q0 162 114.5 250.5t361.5 103.5l154 10q-2 62 -25.5 98t-74 52t-138.5 16q-67 0 -147.5 -11t-150.5 -32v279q82 22 180.5 34
t187.5 12q192 0 308 -46.5zM617 247q36 11 66 35v181l-114 -8q-76 -5 -111.5 -34.5t-35.5 -81.5q0 -50 31.5 -76.5t90.5 -26.5q37 0 73 11zM1100 1598h-259l-237 270h314zM419 1616h303l237 -390h-265l-123 218l-124 -218h-264z" />
    <glyph glyph-name="uni1EA8" unicode="&#x1ea8;" horiz-adv-x="1497" 
d="M1113 0l-107 365h-519l-106 -365h-372l459 1480h562l459 -1480h-376zM575 667h343l-172 586zM1299 2085q66 -31 66 -93q0 -37 -25.5 -59t-75.5 -47q-36 -17 -54.5 -30.5t-21.5 -32.5h-183q3 40 31.5 61.5t79.5 43.5q30 13 43 21t13 19q0 30 -108 30q-95 0 -191 -20v115
q43 10 105 16.5t116 6.5q139 0 205 -31zM590 1862h316l259 -272h-279l-138 155l-139 -155h-279z" />
    <glyph glyph-name="uni1EA9" unicode="&#x1ea9;" horiz-adv-x="1149" 
d="M823 1068.5q116 -46.5 171 -152.5t55 -288v-628h-308l-26 104h-17q-46 -64 -118 -94.5t-163 -30.5q-113 0 -195.5 41t-125.5 114t-43 169q0 162 114.5 250.5t361.5 103.5l154 10q-2 62 -25.5 98t-74 52t-138.5 16q-67 0 -147.5 -11t-150.5 -32v279q82 22 180.5 34
t187.5 12q192 0 308 -46.5zM617 247q36 11 66 35v181l-114 -8q-76 -5 -111.5 -34.5t-35.5 -81.5q0 -50 31.5 -76.5t90.5 -26.5q37 0 73 11zM1078 1860.5q61 -29.5 61 -93.5q0 -33 -21 -52t-64 -41q-37 -19 -56.5 -35t-24.5 -41h-170q3 44 30.5 67.5t74.5 44.5q24 10 34.5 17
t10.5 16q0 16 -23 23.5t-74 7.5q-100 0 -179 -19v113q37 10 97 16t111 6q132 0 193 -29.5zM419 1616h303l237 -390h-265l-123 218l-124 -218h-264z" />
    <glyph glyph-name="uni1EAA" unicode="&#x1eaa;" horiz-adv-x="1497" 
d="M1113 0l-107 365h-519l-106 -365h-372l459 1480h562l459 -1480h-376zM575 667h343l-172 586zM1044 2070.5q52 14.5 121 51.5v-155q-59 -37 -112.5 -49.5t-126.5 -12.5q-50 0 -95.5 8t-105.5 24q-53 14 -88.5 20.5t-71.5 6.5q-62 0 -113.5 -15t-121.5 -52v155
q59 37 113 50.5t126 13.5q50 0 94.5 -8.5t106.5 -24.5q53 -14 88.5 -20.5t71.5 -6.5q62 0 114 14.5zM590 1862h316l259 -272h-279l-138 155l-139 -155h-279z" />
    <glyph glyph-name="uni1EAB" unicode="&#x1eab;" horiz-adv-x="1149" 
d="M823 1068.5q116 -46.5 171 -152.5t55 -288v-628h-308l-26 104h-17q-46 -64 -118 -94.5t-163 -30.5q-113 0 -195.5 41t-125.5 114t-43 169q0 162 114.5 250.5t361.5 103.5l154 10q-2 62 -25.5 98t-74 52t-138.5 16q-67 0 -147.5 -11t-150.5 -32v279q82 22 180.5 34
t187.5 12q192 0 308 -46.5zM617 247q36 11 66 35v181l-114 -8q-76 -5 -111.5 -34.5t-35.5 -81.5q0 -50 31.5 -76.5t90.5 -26.5q37 0 73 11zM656 1616q-43 9 -103 26q-51 16 -88.5 24t-77.5 8q-62 0 -110 -14.5t-99 -47.5v182q43 34 94.5 50t121.5 16q49 0 89.5 -8.5
t104.5 -27.5q53 -17 90 -25t77 -8q61 0 109 15t99 47v-182q-43 -33 -94 -48.5t-121 -15.5q-49 0 -92 9zM985 1228h-278l-136 185l-137 -185h-278l257 321h316z" />
    <glyph glyph-name="uni1EAC" unicode="&#x1eac;" horiz-adv-x="1497" 
d="M1113 0l-107 365h-519l-106 -365h-372l459 1480h562l459 -1480h-376zM575 667h343l-172 586zM580 -400q-57 43 -57 121t57 121t169 43q111 0 168 -43t57 -121t-57 -121t-168 -43q-112 0 -169 43zM1165 1590h-279l-138 175l-139 -175h-279l260 310h316z" />
    <glyph glyph-name="uni1EAD" unicode="&#x1ead;" horiz-adv-x="1149" 
d="M823 1068.5q116 -46.5 171 -152.5t55 -288v-628h-308l-26 104h-17q-46 -64 -118 -94.5t-163 -30.5q-113 0 -195.5 41t-125.5 114t-43 169q0 162 114.5 250.5t361.5 103.5l154 10q-2 62 -25.5 98t-74 52t-138.5 16q-67 0 -147.5 -11t-150.5 -32v279q82 22 180.5 34
t187.5 12q192 0 308 -46.5zM617 247q36 11 66 35v181l-114 -8q-76 -5 -111.5 -34.5t-35.5 -81.5q0 -50 31.5 -76.5t90.5 -26.5q37 0 73 11zM426 -426q-51 48 -51 132t51.5 131.5t146.5 47.5t146 -47.5t51 -131.5t-51 -132t-146 -48q-96 0 -147 48zM959 1226h-265l-123 218
l-124 -218h-264l236 390h303z" />
    <glyph glyph-name="uni1EAE" unicode="&#x1eae;" horiz-adv-x="1497" 
d="M1113 0l-107 365h-519l-106 -365h-372l459 1480h562l459 -1480h-376zM575 667h343l-172 586zM648 1831l107 238h249l-157 -238h-199zM479 1662.5q-96 70.5 -115 195.5h196q14 -59 55 -87.5t133 -28.5q62 0 100.5 13.5t60 38t35.5 64.5h187q-19 -125 -115 -195.5
t-268 -70.5q-173 0 -269 70.5z" />
    <glyph glyph-name="uni1EAF" unicode="&#x1eaf;" horiz-adv-x="1149" 
d="M823 1068.5q116 -46.5 171 -152.5t55 -288v-628h-308l-26 104h-17q-46 -64 -118 -94.5t-163 -30.5q-113 0 -195.5 41t-125.5 114t-43 169q0 162 114.5 250.5t361.5 103.5l154 10q-2 62 -25.5 98t-74 52t-138.5 16q-67 0 -147.5 -11t-150.5 -32v279q82 22 180.5 34
t187.5 12q192 0 308 -46.5zM617 247q36 11 66 35v181l-114 -8q-76 -5 -111.5 -34.5t-35.5 -81.5q0 -50 31.5 -76.5t90.5 -26.5q37 0 73 11zM439 1598l182 270h314l-237 -270h-259zM287.5 1322q-101.5 84 -119.5 232h226q11 -69 54.5 -103.5t122.5 -34.5t122 34.5t54 103.5
h226q-17 -148 -118.5 -232t-283.5 -84t-283.5 84z" />
    <glyph glyph-name="uni1EB0" unicode="&#x1eb0;" horiz-adv-x="1497" 
d="M1113 0l-107 365h-519l-106 -365h-372l459 1480h562l459 -1480h-376zM575 667h343l-172 586zM648 1831l-157 238h250l106 -238h-199zM479 1662.5q-96 70.5 -115 195.5h187q14 -40 35.5 -64.5t60 -38t100.5 -13.5q92 0 133 28.5t55 87.5h196q-19 -125 -115 -195.5
t-269 -70.5q-172 0 -268 70.5z" />
    <glyph glyph-name="uni1EB1" unicode="&#x1eb1;" horiz-adv-x="1149" 
d="M823 1068.5q116 -46.5 171 -152.5t55 -288v-628h-308l-26 104h-17q-46 -64 -118 -94.5t-163 -30.5q-113 0 -195.5 41t-125.5 114t-43 169q0 162 114.5 250.5t361.5 103.5l154 10q-2 62 -25.5 98t-74 52t-138.5 16q-67 0 -147.5 -11t-150.5 -32v279q82 22 180.5 34
t187.5 12q192 0 308 -46.5zM617 247q36 11 66 35v181l-114 -8q-76 -5 -111.5 -34.5t-35.5 -81.5q0 -50 31.5 -76.5t90.5 -26.5q37 0 73 11zM443 1598l-237 270h314l182 -270h-259zM287.5 1322q-101.5 84 -119.5 232h226q11 -69 54.5 -103.5t122.5 -34.5t122 34.5t54 103.5
h226q-17 -148 -118.5 -232t-283.5 -84t-283.5 84z" />
    <glyph glyph-name="uni1EB2" unicode="&#x1eb2;" horiz-adv-x="1497" 
d="M1113 0l-107 365h-519l-106 -365h-372l459 1480h562l459 -1480h-376zM575 667h343l-172 586zM687.5 1893q28.5 22 78.5 43q30 13 43 21t13 19q0 15 -26 22t-81 7q-100 0 -192 -19v115q44 10 106.5 16t114.5 6q139 0 205.5 -31t66.5 -93q0 -37 -26 -59.5t-75 -45.5
q-37 -18 -55 -31t-21 -32h-183q3 40 31.5 62zM479 1662.5q-96 70.5 -115 195.5h196q14 -59 54.5 -87.5t132.5 -28.5q63 0 101.5 13.5t60 38t35.5 64.5h187q-19 -125 -115 -195.5t-269 -70.5q-172 0 -268 70.5z" />
    <glyph glyph-name="uni1EB3" unicode="&#x1eb3;" horiz-adv-x="1149" 
d="M823 1068.5q116 -46.5 171 -152.5t55 -288v-628h-308l-26 104h-17q-46 -64 -118 -94.5t-163 -30.5q-113 0 -195.5 41t-125.5 114t-43 169q0 162 114.5 250.5t361.5 103.5l154 10q-2 62 -25.5 98t-74 52t-138.5 16q-67 0 -147.5 -11t-150.5 -32v279q82 22 180.5 34
t187.5 12q192 0 308 -46.5zM617 247q36 11 66 35v181l-114 -8q-76 -5 -111.5 -34.5t-35.5 -81.5q0 -50 31.5 -76.5t90.5 -26.5q37 0 73 11zM510.5 1659q28.5 22 78.5 44q30 13 43 21t13 19q0 30 -107 30q-95 0 -192 -20v115q43 10 105 16t116 6q140 0 206 -30.5t66 -93.5
q0 -36 -25.5 -58t-75.5 -47q-37 -18 -55 -31t-21 -32h-183q3 39 31.5 61zM287.5 1322q-101.5 84 -119.5 232h226q11 -69 54.5 -103.5t122.5 -34.5t122 34.5t54 103.5h226q-17 -148 -118.5 -232t-283.5 -84t-283.5 84z" />
    <glyph glyph-name="uni1EB4" unicode="&#x1eb4;" horiz-adv-x="1497" 
d="M1113 0l-107 365h-519l-106 -365h-372l459 1480h562l459 -1480h-376zM575 667h343l-172 586zM823 1913q-38 8 -96 24q-46 13 -77.5 20t-61.5 7q-57 0 -106.5 -15t-117.5 -52v155q59 37 110 50.5t117 13.5q43 0 83 -8.5t94 -24.5q46 -13 77.5 -20t61.5 -7q57 0 106.5 14.5
t117.5 51.5v-155q-58 -37 -108.5 -49.5t-118.5 -12.5q-43 0 -81 8zM479 1662.5q-96 70.5 -115 195.5h196q14 -59 54.5 -87.5t132.5 -28.5t133 28.5t55 87.5h196q-19 -125 -115 -195.5t-269 -70.5q-172 0 -268 70.5z" />
    <glyph glyph-name="uni1EB5" unicode="&#x1eb5;" horiz-adv-x="1149" 
d="M823 1068.5q116 -46.5 171 -152.5t55 -288v-628h-308l-26 104h-17q-46 -64 -118 -94.5t-163 -30.5q-113 0 -195.5 41t-125.5 114t-43 169q0 162 114.5 250.5t361.5 103.5l154 10q-2 62 -25.5 98t-74 52t-138.5 16q-67 0 -147.5 -11t-150.5 -32v279q82 22 180.5 34
t187.5 12q192 0 308 -46.5zM617 247q36 11 66 35v181l-114 -8q-76 -5 -111.5 -34.5t-35.5 -81.5q0 -50 31.5 -76.5t90.5 -26.5q37 0 73 11zM659.5 1616q-44.5 9 -106.5 26q-59 16 -95.5 24t-77.5 8q-64 0 -113 -15t-102 -47v182q44 35 96.5 50.5t125.5 15.5q51 0 96.5 -9
t104.5 -27q58 -16 95.5 -24t77.5 -8q64 0 113.5 14.5t101.5 46.5v-181q-43 -34 -95.5 -49.5t-126.5 -15.5q-50 0 -94.5 9zM287.5 1322q-101.5 84 -119.5 232h226q11 -69 54.5 -103.5t122.5 -34.5t122 34.5t54 103.5h226q-17 -148 -118.5 -232t-283.5 -84t-283.5 84z" />
    <glyph glyph-name="uni1EB6" unicode="&#x1eb6;" horiz-adv-x="1497" 
d="M1113 0l-107 365h-519l-106 -365h-372l459 1480h562l459 -1480h-376zM575 667h343l-172 586zM580 -400q-57 43 -57 121t57 121t169 43q111 0 168 -43t57 -121t-57 -121t-168 -43q-112 0 -169 43zM462 1673q-102 81 -120 223h226q12 -63 55.5 -94.5t124.5 -31.5
q80 0 123.5 31.5t55.5 94.5h226q-18 -142 -120 -223t-285 -81q-184 0 -286 81z" />
    <glyph glyph-name="uni1EB7" unicode="&#x1eb7;" horiz-adv-x="1149" 
d="M823 1068.5q116 -46.5 171 -152.5t55 -288v-628h-308l-26 104h-17q-46 -64 -118 -94.5t-163 -30.5q-113 0 -195.5 41t-125.5 114t-43 169q0 162 114.5 250.5t361.5 103.5l154 10q-2 62 -25.5 98t-74 52t-138.5 16q-67 0 -147.5 -11t-150.5 -32v279q82 22 180.5 34
t187.5 12q192 0 308 -46.5zM617 247q36 11 66 35v181l-114 -8q-76 -5 -111.5 -34.5t-35.5 -81.5q0 -50 31.5 -76.5t90.5 -26.5q37 0 73 11zM426 -426q-51 48 -51 132t51.5 131.5t146.5 47.5t146 -47.5t51 -131.5t-51 -132t-146 -48q-96 0 -147 48zM294 1327
q-100 92 -110 268h224q7 -88 47 -131t116 -43t115.5 42.5t46.5 131.5h225q-10 -177 -110 -268.5t-277 -91.5t-277 92z" />
    <glyph glyph-name="uni1EB8" unicode="&#x1eb8;" horiz-adv-x="1286" 
d="M499 304h715v-304h-1094v1480h1084v-304h-705v-268h602v-304h-602v-300zM515 -400q-57 43 -57 121t57 121t169 43q111 0 168 -43t57 -121t-57 -121t-168 -43q-112 0 -169 43z" />
    <glyph glyph-name="uni1EB9" unicode="&#x1eb9;" horiz-adv-x="1138" 
d="M1088 442h-653q6 -69 35.5 -108.5t95 -57t181.5 -17.5q120 0 278 32v-278q-165 -34 -332 -34q-221 0 -360 59.5t-205.5 185t-66.5 325.5q0 178 61.5 305t180.5 194t290 67q243 0 369 -149.5t126 -428.5v-95zM473.5 830q-37.5 -52 -39.5 -177h306q-2 125 -38.5 177
t-112.5 52q-78 0 -115.5 -52zM439 -426q-51 48 -51 132t51.5 131.5t146.5 47.5t146 -47.5t51 -131.5t-51 -132t-146 -48q-96 0 -147 48z" />
    <glyph glyph-name="uni1EBA" unicode="&#x1eba;" horiz-adv-x="1286" 
d="M499 304h715v-304h-1094v1480h1084v-304h-705v-268h602v-304h-602v-300zM624 1660.5q29 25.5 79 49.5q28 13 41.5 22.5t13.5 21.5q0 18 -25.5 26t-81.5 8q-98 0 -192 -22v134q43 11 105 17.5t116 6.5q139 0 205.5 -35t66.5 -106q0 -43 -26 -68t-75 -53q-37 -21 -55 -36
t-21 -36h-183q3 45 32 70.5z" />
    <glyph glyph-name="uni1EBB" unicode="&#x1ebb;" horiz-adv-x="1138" 
d="M1088 442h-653q6 -69 35.5 -108.5t95 -57t181.5 -17.5q120 0 278 32v-278q-165 -34 -332 -34q-221 0 -360 59.5t-205.5 185t-66.5 325.5q0 178 61.5 305t180.5 194t290 67q243 0 369 -149.5t126 -428.5v-95zM473.5 830q-37.5 -52 -39.5 -177h306q-2 125 -38.5 177
t-112.5 52q-78 0 -115.5 -52zM523 1318q26 34 69 66q27 20 38.5 32.5t11.5 29.5q0 22 -21.5 32t-69.5 10q-83 0 -168 -24v138q39 12 94 19t103 7q131 0 193.5 -38.5t62.5 -119.5q0 -36 -11.5 -61.5t-28.5 -42.5t-45 -38q-36 -27 -53.5 -48t-20.5 -54h-183q3 58 29 92z" />
    <glyph glyph-name="uni1EBC" unicode="&#x1ebc;" horiz-adv-x="1286" 
d="M499 304h715v-304h-1094v1480h1084v-304h-705v-268h602v-304h-602v-300zM768.5 1611q-43.5 10 -102.5 30q-56 18 -92 27t-76 9q-62 0 -110 -16.5t-99 -53.5v210q43 39 94.5 57t121.5 18q50 0 92 -10t104 -31q54 -19 91 -28t77 -9q62 0 110 16.5t99 53.5v-210
q-42 -38 -93 -55.5t-123 -17.5q-50 0 -93.5 10z" />
    <glyph glyph-name="uni1EBD" unicode="&#x1ebd;" horiz-adv-x="1138" 
d="M1088 442h-653q6 -69 35.5 -108.5t95 -57t181.5 -17.5q120 0 278 32v-278q-165 -34 -332 -34q-221 0 -360 59.5t-205.5 185t-66.5 325.5q0 178 61.5 305t180.5 194t290 67q243 0 369 -149.5t126 -428.5v-95zM473.5 830q-37.5 -52 -39.5 -177h306q-2 125 -38.5 177
t-112.5 52q-78 0 -115.5 -52zM664.5 1277q-39.5 13 -96.5 38q-52 23 -85 34t-68 11q-58 0 -105 -21t-96 -68v230q42 42 92 61.5t116 19.5q45 0 84.5 -13t96.5 -38q52 -23 85 -34t68 -11q58 0 105 21t96 67v-229q-42 -42 -92 -61.5t-116 -19.5q-45 0 -84.5 13z" />
    <glyph glyph-name="uni1EBE" unicode="&#x1ebe;" horiz-adv-x="1286" 
d="M499 304h715v-304h-1094v1480h1084v-304h-705v-268h602v-304h-602v-300zM1049 2064h249l-157 -241h-199zM526 1862h316l259 -272h-279l-138 155l-139 -155h-279z" />
    <glyph glyph-name="uni1EBF" unicode="&#x1ebf;" horiz-adv-x="1138" 
d="M1088 442h-653q6 -69 35.5 -108.5t95 -57t181.5 -17.5q120 0 278 32v-278q-165 -34 -332 -34q-221 0 -360 59.5t-205.5 185t-66.5 325.5q0 178 61.5 305t180.5 194t290 67q243 0 369 -149.5t126 -428.5v-95zM473.5 830q-37.5 -52 -39.5 -177h306q-2 125 -38.5 177
t-112.5 52q-78 0 -115.5 -52zM1001 1868h315l-237 -270h-259zM434 1616h303l237 -390h-265l-123 218l-124 -218h-264z" />
    <glyph glyph-name="uni1EC0" unicode="&#x1ec0;" horiz-adv-x="1286" 
d="M499 304h715v-304h-1094v1480h1084v-304h-705v-268h602v-304h-602v-300zM1178 1823h-199l-156 241h249zM526 1862h316l259 -272h-279l-138 155l-139 -155h-279z" />
    <glyph glyph-name="uni1EC1" unicode="&#x1ec1;" horiz-adv-x="1138" 
d="M1088 442h-653q6 -69 35.5 -108.5t95 -57t181.5 -17.5q120 0 278 32v-278q-165 -34 -332 -34q-221 0 -360 59.5t-205.5 185t-66.5 325.5q0 178 61.5 305t180.5 194t290 67q243 0 369 -149.5t126 -428.5v-95zM473.5 830q-37.5 -52 -39.5 -177h306q-2 125 -38.5 177
t-112.5 52q-78 0 -115.5 -52zM1115 1598h-259l-237 270h314zM434 1616h303l237 -390h-265l-123 218l-124 -218h-264z" />
    <glyph glyph-name="uni1EC2" unicode="&#x1ec2;" horiz-adv-x="1286" 
d="M499 304h715v-304h-1094v1480h1084v-304h-705v-268h602v-304h-602v-300zM1235 2085q66 -31 66 -93q0 -37 -25.5 -59t-75.5 -47q-36 -17 -54.5 -30.5t-21.5 -32.5h-183q3 40 31.5 61.5t79.5 43.5q30 13 43 21t13 19q0 30 -108 30q-95 0 -191 -20v115q43 10 105 16.5
t116 6.5q139 0 205 -31zM526 1862h316l259 -272h-279l-138 155l-139 -155h-279z" />
    <glyph glyph-name="uni1EC3" unicode="&#x1ec3;" horiz-adv-x="1138" 
d="M1088 442h-653q6 -69 35.5 -108.5t95 -57t181.5 -17.5q120 0 278 32v-278q-165 -34 -332 -34q-221 0 -360 59.5t-205.5 185t-66.5 325.5q0 178 61.5 305t180.5 194t290 67q243 0 369 -149.5t126 -428.5v-95zM473.5 830q-37.5 -52 -39.5 -177h306q-2 125 -38.5 177
t-112.5 52q-78 0 -115.5 -52zM1093 1860.5q61 -29.5 61 -93.5q0 -33 -21 -52t-64 -41q-37 -19 -56.5 -35t-24.5 -41h-170q3 44 30.5 67.5t74.5 44.5q24 10 34.5 17t10.5 16q0 16 -23 23.5t-74 7.5q-100 0 -179 -19v113q37 10 97 16t111 6q132 0 193 -29.5zM434 1616h303
l237 -390h-265l-123 218l-124 -218h-264z" />
    <glyph glyph-name="uni1EC4" unicode="&#x1ec4;" horiz-adv-x="1286" 
d="M499 304h715v-304h-1094v1480h1084v-304h-705v-268h602v-304h-602v-300zM980 2070.5q52 14.5 121 51.5v-155q-59 -37 -112.5 -49.5t-126.5 -12.5q-50 0 -95.5 8t-105.5 24q-53 14 -88.5 20.5t-71.5 6.5q-62 0 -113.5 -15t-121.5 -52v155q59 37 113 50.5t126 13.5
q50 0 94.5 -8.5t106.5 -24.5q53 -14 88.5 -20.5t71.5 -6.5q62 0 114 14.5zM526 1862h316l259 -272h-279l-138 155l-139 -155h-279z" />
    <glyph glyph-name="uni1EC5" unicode="&#x1ec5;" horiz-adv-x="1138" 
d="M1088 442h-653q6 -69 35.5 -108.5t95 -57t181.5 -17.5q120 0 278 32v-278q-165 -34 -332 -34q-221 0 -360 59.5t-205.5 185t-66.5 325.5q0 178 61.5 305t180.5 194t290 67q243 0 369 -149.5t126 -428.5v-95zM473.5 830q-37.5 -52 -39.5 -177h306q-2 125 -38.5 177
t-112.5 52q-78 0 -115.5 -52zM671 1616q-43 9 -103 26q-51 16 -88.5 24t-77.5 8q-62 0 -110 -14.5t-99 -47.5v182q43 34 94.5 50t121.5 16q49 0 89.5 -8.5t104.5 -27.5q53 -17 90 -25t77 -8q61 0 109 15t99 47v-182q-43 -33 -94 -48.5t-121 -15.5q-49 0 -92 9zM1000 1228
h-278l-136 185l-137 -185h-278l257 321h316z" />
    <glyph glyph-name="uni1EC6" unicode="&#x1ec6;" horiz-adv-x="1286" 
d="M499 304h715v-304h-1094v1480h1084v-304h-705v-268h602v-304h-602v-300zM515 -400q-57 43 -57 121t57 121t169 43q111 0 168 -43t57 -121t-57 -121t-168 -43q-112 0 -169 43zM1101 1590h-279l-138 175l-139 -175h-279l260 310h316z" />
    <glyph glyph-name="uni1EC7" unicode="&#x1ec7;" horiz-adv-x="1138" 
d="M1088 442h-653q6 -69 35.5 -108.5t95 -57t181.5 -17.5q120 0 278 32v-278q-165 -34 -332 -34q-221 0 -360 59.5t-205.5 185t-66.5 325.5q0 178 61.5 305t180.5 194t290 67q243 0 369 -149.5t126 -428.5v-95zM473.5 830q-37.5 -52 -39.5 -177h306q-2 125 -38.5 177
t-112.5 52q-78 0 -115.5 -52zM439 -426q-51 48 -51 132t51.5 131.5t146.5 47.5t146 -47.5t51 -131.5t-51 -132t-146 -48q-96 0 -147 48zM974 1226h-265l-123 218l-124 -218h-264l236 390h303z" />
    <glyph glyph-name="uni1EC8" unicode="&#x1ec8;" horiz-adv-x="624" 
d="M120 0v1480h384v-1480h-384zM252 1660.5q29 25.5 79 49.5q28 13 41.5 22.5t13.5 21.5q0 18 -25.5 26t-81.5 8q-98 0 -192 -22v134q43 11 105 17.5t116 6.5q139 0 205.5 -35t66.5 -106q0 -43 -26 -68t-75 -53q-37 -21 -55 -36t-21 -36h-183q3 45 32 70.5z" />
    <glyph glyph-name="uni1EC9" unicode="&#x1ec9;" horiz-adv-x="591" 
d="M107 0v1097h377v-1097h-377zM232 1318q26 34 69 66q27 20 38.5 32.5t11.5 29.5q0 22 -21.5 32t-69.5 10q-83 0 -168 -24v138q39 12 94 19t103 7q131 0 193.5 -38.5t62.5 -119.5q0 -36 -11.5 -61.5t-28.5 -42.5t-45 -38q-36 -27 -53.5 -48t-20.5 -54h-183q3 58 29 92z" />
    <glyph glyph-name="uni1ECA" unicode="&#x1eca;" horiz-adv-x="624" 
d="M120 0v1480h384v-1480h-384zM142 -400q-57 43 -57 121t57 121t169 43q111 0 168 -43t57 -121t-57 -121t-168 -43q-112 0 -169 43z" />
    <glyph glyph-name="uni1ECB" unicode="&#x1ecb;" horiz-adv-x="591" 
d="M107 0v1097h377v-1097h-377zM124 1277.5q-56 48.5 -56 141.5q0 92 56 140.5t172 48.5q115 0 171 -48.5t56 -140.5q0 -93 -56 -141.5t-171 -48.5q-116 0 -172 48.5zM148 -426q-51 48 -51 132t51.5 131.5t146.5 47.5t146 -47.5t51 -131.5t-51 -132t-146 -48q-96 0 -147 48z
" />
    <glyph glyph-name="uni1ECC" unicode="&#x1ecc;" horiz-adv-x="1606" 
d="M417 65q-163 85 -252 255t-89 420t89 420t252 255t386 85t386.5 -85t252.5 -255.5t89 -419.5t-89 -419t-252.5 -255.5t-386.5 -85.5t-386 85zM1052.5 395.5q85.5 107.5 85.5 337.5q0 239 -85.5 349t-249.5 110q-163 0 -248.5 -107t-85.5 -338q0 -241 84.5 -350
t249.5 -109q164 0 249.5 107.5zM634 -400q-57 43 -57 121t57 121t169 43q111 0 168 -43t57 -121t-57 -121t-168 -43q-112 0 -169 43z" />
    <glyph glyph-name="uni1ECD" unicode="&#x1ecd;" horiz-adv-x="1238" 
d="M320.5 43q-125.5 64 -192.5 191t-67 311q0 281 145 425.5t413 144.5q177 0 302 -64.5t190.5 -192t65.5 -311.5q0 -185 -67 -312t-192.5 -191.5t-298.5 -64.5t-298.5 64zM719.5 286q39.5 26 60 88.5t20.5 170.5q0 109 -20.5 172.5t-60 89.5t-100.5 26t-100.5 -26t-60 -89
t-20.5 -171q0 -109 20.5 -172t60 -89t100.5 -26t100.5 26zM472 -426q-51 48 -51 132t51.5 131.5t146.5 47.5t146 -47.5t51 -131.5t-51 -132t-146 -48q-96 0 -147 48z" />
    <glyph glyph-name="uni1ECE" unicode="&#x1ece;" horiz-adv-x="1606" 
d="M417 65q-163 85 -252 255t-89 420t89 420t252 255t386 85t386.5 -85t252.5 -255.5t89 -419.5t-89 -419t-252.5 -255.5t-386.5 -85.5t-386 85zM1052.5 395.5q85.5 107.5 85.5 337.5q0 239 -85.5 349t-249.5 110q-163 0 -248.5 -107t-85.5 -338q0 -241 84.5 -350
t249.5 -109q164 0 249.5 107.5zM743 1660.5q29 25.5 79 49.5q28 13 41.5 22.5t13.5 21.5q0 18 -25.5 26t-81.5 8q-98 0 -192 -22v134q43 11 105 17.5t116 6.5q139 0 205.5 -35t66.5 -106q0 -43 -26 -68t-75 -53q-37 -21 -55 -36t-21 -36h-183q3 45 32 70.5z" />
    <glyph glyph-name="uni1ECF" unicode="&#x1ecf;" horiz-adv-x="1238" 
d="M320.5 43q-125.5 64 -192.5 191t-67 311q0 281 145 425.5t413 144.5q177 0 302 -64.5t190.5 -192t65.5 -311.5q0 -185 -67 -312t-192.5 -191.5t-298.5 -64.5t-298.5 64zM719.5 286q39.5 26 60 88.5t20.5 170.5q0 109 -20.5 172.5t-60 89.5t-100.5 26t-100.5 -26t-60 -89
t-20.5 -171q0 -109 20.5 -172t60 -89t100.5 -26t100.5 26zM556 1318q26 34 69 66q27 20 38.5 32.5t11.5 29.5q0 22 -21.5 32t-69.5 10q-83 0 -168 -24v138q39 12 94 19t103 7q131 0 193.5 -38.5t62.5 -119.5q0 -36 -11.5 -61.5t-28.5 -42.5t-45 -38q-36 -27 -53.5 -48
t-20.5 -54h-183q3 58 29 92z" />
    <glyph glyph-name="uni1ED0" unicode="&#x1ed0;" horiz-adv-x="1606" 
d="M417 65q-163 85 -252 255t-89 420t89 420t252 255t386 85t386.5 -85t252.5 -255.5t89 -419.5t-89 -419t-252.5 -255.5t-386.5 -85.5t-386 85zM1052.5 395.5q85.5 107.5 85.5 337.5q0 239 -85.5 349t-249.5 110q-163 0 -248.5 -107t-85.5 -338q0 -241 84.5 -350
t249.5 -109q164 0 249.5 107.5zM1168 2064h249l-157 -241h-199zM645 1862h316l259 -272h-279l-138 155l-139 -155h-279z" />
    <glyph glyph-name="uni1ED1" unicode="&#x1ed1;" horiz-adv-x="1238" 
d="M320.5 43q-125.5 64 -192.5 191t-67 311q0 281 145 425.5t413 144.5q177 0 302 -64.5t190.5 -192t65.5 -311.5q0 -185 -67 -312t-192.5 -191.5t-298.5 -64.5t-298.5 64zM719.5 286q39.5 26 60 88.5t20.5 170.5q0 109 -20.5 172.5t-60 89.5t-100.5 26t-100.5 -26t-60 -89
t-20.5 -171q0 -109 20.5 -172t60 -89t100.5 -26t100.5 26zM1034 1868h315l-237 -270h-259zM467 1616h303l237 -390h-265l-123 218l-124 -218h-264z" />
    <glyph glyph-name="uni1ED2" unicode="&#x1ed2;" horiz-adv-x="1606" 
d="M417 65q-163 85 -252 255t-89 420t89 420t252 255t386 85t386.5 -85t252.5 -255.5t89 -419.5t-89 -419t-252.5 -255.5t-386.5 -85.5t-386 85zM1052.5 395.5q85.5 107.5 85.5 337.5q0 239 -85.5 349t-249.5 110q-163 0 -248.5 -107t-85.5 -338q0 -241 84.5 -350
t249.5 -109q164 0 249.5 107.5zM1297 1823h-199l-156 241h249zM645 1862h316l259 -272h-279l-138 155l-139 -155h-279z" />
    <glyph glyph-name="uni1ED3" unicode="&#x1ed3;" horiz-adv-x="1238" 
d="M320.5 43q-125.5 64 -192.5 191t-67 311q0 281 145 425.5t413 144.5q177 0 302 -64.5t190.5 -192t65.5 -311.5q0 -185 -67 -312t-192.5 -191.5t-298.5 -64.5t-298.5 64zM719.5 286q39.5 26 60 88.5t20.5 170.5q0 109 -20.5 172.5t-60 89.5t-100.5 26t-100.5 -26t-60 -89
t-20.5 -171q0 -109 20.5 -172t60 -89t100.5 -26t100.5 26zM1148 1598h-259l-237 270h314zM467 1616h303l237 -390h-265l-123 218l-124 -218h-264z" />
    <glyph glyph-name="uni1ED4" unicode="&#x1ed4;" horiz-adv-x="1606" 
d="M417 65q-163 85 -252 255t-89 420t89 420t252 255t386 85t386.5 -85t252.5 -255.5t89 -419.5t-89 -419t-252.5 -255.5t-386.5 -85.5t-386 85zM1052.5 395.5q85.5 107.5 85.5 337.5q0 239 -85.5 349t-249.5 110q-163 0 -248.5 -107t-85.5 -338q0 -241 84.5 -350
t249.5 -109q164 0 249.5 107.5zM1354 2085q66 -31 66 -93q0 -37 -25.5 -59t-75.5 -47q-36 -17 -54.5 -30.5t-21.5 -32.5h-183q3 40 31.5 61.5t79.5 43.5q30 13 43 21t13 19q0 30 -108 30q-95 0 -191 -20v115q43 10 105 16.5t116 6.5q139 0 205 -31zM645 1862h316l259 -272
h-279l-138 155l-139 -155h-279z" />
    <glyph glyph-name="uni1ED5" unicode="&#x1ed5;" horiz-adv-x="1238" 
d="M320.5 43q-125.5 64 -192.5 191t-67 311q0 281 145 425.5t413 144.5q177 0 302 -64.5t190.5 -192t65.5 -311.5q0 -185 -67 -312t-192.5 -191.5t-298.5 -64.5t-298.5 64zM719.5 286q39.5 26 60 88.5t20.5 170.5q0 109 -20.5 172.5t-60 89.5t-100.5 26t-100.5 -26t-60 -89
t-20.5 -171q0 -109 20.5 -172t60 -89t100.5 -26t100.5 26zM1126 1860.5q61 -29.5 61 -93.5q0 -33 -21 -52t-64 -41q-37 -19 -56.5 -35t-24.5 -41h-170q3 44 30.5 67.5t74.5 44.5q24 10 34.5 17t10.5 16q0 16 -23 23.5t-74 7.5q-100 0 -179 -19v113q37 10 97 16t111 6
q132 0 193 -29.5zM467 1616h303l237 -390h-265l-123 218l-124 -218h-264z" />
    <glyph glyph-name="uni1ED6" unicode="&#x1ed6;" horiz-adv-x="1606" 
d="M417 65q-163 85 -252 255t-89 420t89 420t252 255t386 85t386.5 -85t252.5 -255.5t89 -419.5t-89 -419t-252.5 -255.5t-386.5 -85.5t-386 85zM1052.5 395.5q85.5 107.5 85.5 337.5q0 239 -85.5 349t-249.5 110q-163 0 -248.5 -107t-85.5 -338q0 -241 84.5 -350
t249.5 -109q164 0 249.5 107.5zM1099 2070.5q52 14.5 121 51.5v-155q-59 -37 -112.5 -49.5t-126.5 -12.5q-50 0 -95.5 8t-105.5 24q-53 14 -88.5 20.5t-71.5 6.5q-62 0 -113.5 -15t-121.5 -52v155q59 37 113 50.5t126 13.5q50 0 94.5 -8.5t106.5 -24.5q53 -14 88.5 -20.5
t71.5 -6.5q62 0 114 14.5zM645 1862h316l259 -272h-279l-138 155l-139 -155h-279z" />
    <glyph glyph-name="uni1ED7" unicode="&#x1ed7;" horiz-adv-x="1238" 
d="M320.5 43q-125.5 64 -192.5 191t-67 311q0 281 145 425.5t413 144.5q177 0 302 -64.5t190.5 -192t65.5 -311.5q0 -185 -67 -312t-192.5 -191.5t-298.5 -64.5t-298.5 64zM719.5 286q39.5 26 60 88.5t20.5 170.5q0 109 -20.5 172.5t-60 89.5t-100.5 26t-100.5 -26t-60 -89
t-20.5 -171q0 -109 20.5 -172t60 -89t100.5 -26t100.5 26zM704 1616q-43 9 -103 26q-51 16 -88.5 24t-77.5 8q-62 0 -110 -14.5t-99 -47.5v182q43 34 94.5 50t121.5 16q49 0 89.5 -8.5t104.5 -27.5q53 -17 90 -25t77 -8q61 0 109 15t99 47v-182q-43 -33 -94 -48.5
t-121 -15.5q-49 0 -92 9zM1033 1228h-278l-136 185l-137 -185h-278l257 321h316z" />
    <glyph glyph-name="uni1ED8" unicode="&#x1ed8;" horiz-adv-x="1606" 
d="M417 65q-163 85 -252 255t-89 420t89 420t252 255t386 85t386.5 -85t252.5 -255.5t89 -419.5t-89 -419t-252.5 -255.5t-386.5 -85.5t-386 85zM1052.5 395.5q85.5 107.5 85.5 337.5q0 239 -85.5 349t-249.5 110q-163 0 -248.5 -107t-85.5 -338q0 -241 84.5 -350
t249.5 -109q164 0 249.5 107.5zM634 -400q-57 43 -57 121t57 121t169 43q111 0 168 -43t57 -121t-57 -121t-168 -43q-112 0 -169 43zM1220 1590h-279l-138 175l-139 -175h-279l260 310h316z" />
    <glyph glyph-name="uni1ED9" unicode="&#x1ed9;" horiz-adv-x="1238" 
d="M320.5 43q-125.5 64 -192.5 191t-67 311q0 281 145 425.5t413 144.5q177 0 302 -64.5t190.5 -192t65.5 -311.5q0 -185 -67 -312t-192.5 -191.5t-298.5 -64.5t-298.5 64zM719.5 286q39.5 26 60 88.5t20.5 170.5q0 109 -20.5 172.5t-60 89.5t-100.5 26t-100.5 -26t-60 -89
t-20.5 -171q0 -109 20.5 -172t60 -89t100.5 -26t100.5 26zM472 -426q-51 48 -51 132t51.5 131.5t146.5 47.5t146 -47.5t51 -131.5t-51 -132t-146 -48q-96 0 -147 48zM1007 1226h-265l-123 218l-124 -218h-264l236 390h303z" />
    <glyph glyph-name="uni1EDA" unicode="&#x1eda;" horiz-adv-x="1606" 
d="M1477.5 1079q53.5 -146 53.5 -339q0 -250 -88.5 -420t-252 -255t-387.5 -85t-387 85t-251.5 255t-88.5 420t89 420t252 255t386 85q52 0 105 -5t62 -6q96 -10 138 -10q95 0 140 36t45 121q0 62 -15 140h248q20 -70 20 -156q0 -127 -59 -202t-165 -98q102 -95 155.5 -241z
M1052.5 395.5q85.5 107.5 85.5 337.5q0 239 -85.5 349t-249.5 110q-163 0 -248.5 -107t-85.5 -338q0 -241 84.5 -350t249.5 -109q164 0 249.5 107.5zM632 1590l181 310h394l-237 -310h-338z" />
    <glyph glyph-name="uni1EDB" unicode="&#x1edb;" horiz-adv-x="1238" 
d="M1035 1616l-265 -390h-321l214 390h372zM1180.5 1056.5q-48.5 -71.5 -137.5 -101.5q134 -143 134 -408q0 -185 -67 -312t-192.5 -191.5t-298.5 -64.5t-298.5 64t-192.5 191t-67 311q0 281 146 425.5t421 144.5q43 0 122 -7q52 -4 67 -4q88 0 132 35.5t44 117.5
q0 63 -16 139h233q11 -39 15 -75t4 -79q0 -114 -48.5 -185.5zM719.5 286q39.5 26 60 88.5t20.5 170.5q0 109 -20.5 172.5t-60 89.5t-100.5 26t-100.5 -26t-60 -89t-20.5 -171q0 -109 20.5 -172t60 -89t100.5 -26t100.5 26z" />
    <glyph glyph-name="uni1EDC" unicode="&#x1edc;" horiz-adv-x="1606" 
d="M1477.5 1079q53.5 -146 53.5 -339q0 -250 -88.5 -420t-252 -255t-387.5 -85t-387 85t-251.5 255t-88.5 420t89 420t252 255t386 85q52 0 105 -5t62 -6q96 -10 138 -10q95 0 140 36t45 121q0 62 -15 140h248q20 -70 20 -156q0 -127 -59 -202t-165 -98q102 -95 155.5 -241z
M1052.5 395.5q85.5 107.5 85.5 337.5q0 239 -85.5 349t-249.5 110q-163 0 -248.5 -107t-85.5 -338q0 -241 84.5 -350t249.5 -109q164 0 249.5 107.5zM633 1590l-237 310h394l182 -310h-339z" />
    <glyph glyph-name="uni1EDD" unicode="&#x1edd;" horiz-adv-x="1238" 
d="M1180.5 1056.5q-48.5 -71.5 -137.5 -101.5q134 -143 134 -408q0 -185 -67 -312t-192.5 -191.5t-298.5 -64.5t-298.5 64t-192.5 191t-67 311q0 281 146 425.5t421 144.5q43 0 122 -7q52 -4 67 -4q88 0 132 35.5t44 117.5q0 63 -16 139h233q11 -39 15 -75t4 -79
q0 -114 -48.5 -185.5zM719.5 286q39.5 26 60 88.5t20.5 170.5q0 109 -20.5 172.5t-60 89.5t-100.5 26t-100.5 -26t-60 -89t-20.5 -171q0 -109 20.5 -172t60 -89t100.5 -26t100.5 26zM438 1226l-283 390h397l229 -390h-343z" />
    <glyph glyph-name="uni1EDE" unicode="&#x1ede;" horiz-adv-x="1606" 
d="M1477.5 1079q53.5 -146 53.5 -339q0 -250 -88.5 -420t-252 -255t-387.5 -85t-387 85t-251.5 255t-88.5 420t89 420t252 255t386 85q52 0 105 -5t62 -6q96 -10 138 -10q95 0 140 36t45 121q0 62 -15 140h248q20 -70 20 -156q0 -127 -59 -202t-165 -98q102 -95 155.5 -241z
M1052.5 395.5q85.5 107.5 85.5 337.5q0 239 -85.5 349t-249.5 110q-163 0 -248.5 -107t-85.5 -338q0 -241 84.5 -350t249.5 -109q164 0 249.5 107.5zM743 1660.5q29 25.5 79 49.5q28 13 41.5 22.5t13.5 21.5q0 18 -25.5 26t-81.5 8q-98 0 -192 -22v134q43 11 105 17.5
t116 6.5q139 0 205.5 -35t66.5 -106q0 -43 -26 -68t-75 -53q-37 -21 -55 -36t-21 -36h-183q3 45 32 70.5z" />
    <glyph glyph-name="uni1EDF" unicode="&#x1edf;" horiz-adv-x="1238" 
d="M1180.5 1056.5q-48.5 -71.5 -137.5 -101.5q134 -143 134 -408q0 -185 -67 -312t-192.5 -191.5t-298.5 -64.5t-298.5 64t-192.5 191t-67 311q0 281 146 425.5t421 144.5q43 0 122 -7q52 -4 67 -4q88 0 132 35.5t44 117.5q0 63 -16 139h233q11 -39 15 -75t4 -79
q0 -114 -48.5 -185.5zM719.5 286q39.5 26 60 88.5t20.5 170.5q0 109 -20.5 172.5t-60 89.5t-100.5 26t-100.5 -26t-60 -89t-20.5 -171q0 -109 20.5 -172t60 -89t100.5 -26t100.5 26zM547 1318q26 34 69 66q27 20 38.5 32.5t11.5 29.5q0 22 -21.5 32t-69.5 10q-83 0 -168 -24
v138q39 12 94 19t103 7q131 0 193.5 -38.5t62.5 -119.5q0 -36 -11.5 -61.5t-28.5 -42.5t-45 -38q-36 -27 -53.5 -48t-20.5 -54h-183q3 58 29 92z" />
    <glyph glyph-name="uni1EE0" unicode="&#x1ee0;" horiz-adv-x="1606" 
d="M887 1611q-40 10 -101 30q-54 19 -88.5 27.5t-72.5 8.5q-59 0 -105 -16.5t-95 -53.5v210q41 39 90 57t117 18q48 0 89 -10.5t99 -30.5q52 -19 87.5 -28t73.5 -9q60 0 106 16.5t95 53.5v-210q-41 -38 -90 -55.5t-117 -17.5q-48 0 -88 10zM1477.5 1079q53.5 -146 53.5 -339
q0 -250 -88.5 -420t-252 -255t-387.5 -85t-387 85t-251.5 255t-88.5 420t89 420t252 255t386 85q52 0 105 -5t62 -6q96 -10 138 -10q95 0 140 36t45 121q0 62 -15 140h248q20 -70 20 -156q0 -127 -59 -202t-165 -98q102 -95 155.5 -241zM1052.5 395.5q85.5 107.5 85.5 337.5
q0 239 -85.5 349t-249.5 110q-163 0 -248.5 -107t-85.5 -338q0 -241 84.5 -350t249.5 -109q164 0 249.5 107.5z" />
    <glyph glyph-name="uni1EE1" unicode="&#x1ee1;" horiz-adv-x="1238" 
d="M663 1277q-37 13 -87 38q-44 22 -75 33.5t-65 11.5q-51 0 -95.5 -21t-93.5 -68v230q42 42 89.5 61.5t105.5 19.5q44 0 80.5 -13t87.5 -38q44 -22 75 -33.5t65 -11.5q51 0 96 21t93 67v-229q-41 -42 -88.5 -61.5t-106.5 -19.5q-44 0 -81 13zM1180.5 1056.5
q-48.5 -71.5 -137.5 -101.5q134 -143 134 -408q0 -185 -67 -312t-192.5 -191.5t-298.5 -64.5t-298.5 64t-192.5 191t-67 311q0 281 146 425.5t421 144.5q43 0 122 -7q52 -4 67 -4q88 0 132 35.5t44 117.5q0 63 -16 139h233q11 -39 15 -75t4 -79q0 -114 -48.5 -185.5z
M719.5 286q39.5 26 60 88.5t20.5 170.5q0 109 -20.5 172.5t-60 89.5t-100.5 26t-100.5 -26t-60 -89t-20.5 -171q0 -109 20.5 -172t60 -89t100.5 -26t100.5 26z" />
    <glyph glyph-name="uni1EE2" unicode="&#x1ee2;" horiz-adv-x="1606" 
d="M1477.5 1079q53.5 -146 53.5 -339q0 -250 -88.5 -420t-252 -255t-387.5 -85t-387 85t-251.5 255t-88.5 420t89 420t252 255t386 85q52 0 105 -5t62 -6q96 -10 138 -10q95 0 140 36t45 121q0 62 -15 140h248q20 -70 20 -156q0 -127 -59 -202t-165 -98q102 -95 155.5 -241z
M1052.5 395.5q85.5 107.5 85.5 337.5q0 239 -85.5 349t-249.5 110q-163 0 -248.5 -107t-85.5 -338q0 -241 84.5 -350t249.5 -109q164 0 249.5 107.5zM634 -400q-57 43 -57 121t57 121t169 43q111 0 168 -43t57 -121t-57 -121t-168 -43q-112 0 -169 43z" />
    </font>
</defs>
</svg>
